<?xml version="1.0" encoding="utf-8"?>
<!-- Generator: Adobe Illustrator 16.0.0, SVG Export Plug-In . SVG Version: 6.00 Build 0)  -->
<!DOCTYPE svg PUBLIC "-//W3C//DTD SVG 1.1//EN" "http://www.w3.org/Graphics/SVG/1.1/DTD/svg11.dtd">
<svg version="1.1" id="Layer_1" xmlns="http://www.w3.org/2000/svg" xmlns:xlink="http://www.w3.org/1999/xlink" x="0px" y="0px"
	 width="273.214px" height="378.572px" viewBox="0 0 273.214 378.572" enable-background="new 0 0 273.214 378.572"
	 xml:space="preserve">
<g>
	<path fill="#FFFFFF" d="M45.665,277.39c7.441,0,12.947,2.307,18.007,6.92c0.669,0.595,0.669,1.488,0.074,2.084l-5.804,6.027
		c-0.52,0.521-1.339,0.521-1.86,0c-2.753-2.456-6.399-3.795-10.045-3.795c-8.408,0-14.584,6.993-14.584,15.328
		c0,8.259,6.25,15.104,14.658,15.104c3.497,0,7.292-1.264,9.971-3.57c0.521-0.447,1.488-0.447,1.934,0.074l5.806,6.176
		c0.52,0.52,0.446,1.488-0.075,2.01c-5.06,4.909-11.459,7.216-18.082,7.216c-14.882,0-26.862-11.83-26.862-26.713
		C18.803,289.372,30.782,277.39,45.665,277.39z"/>
	<path fill="#FFFFFF" d="M85.62,305.145l-16.443-24.853c-0.595-0.967,0-2.157,1.19-2.157h9.673c0.595,0,0.967,0.371,1.19,0.668
		l10.344,15.255l10.342-15.255c0.224-0.297,0.52-0.668,1.19-0.668h9.674c1.19,0,1.786,1.19,1.19,2.157l-16.67,24.778v23.736
		c0,0.745-0.669,1.415-1.412,1.415h-8.855c-0.819,0-1.415-0.67-1.415-1.415V305.145z"/>
	<path fill="#FFFFFF" d="M123.27,279.92c0-0.967,0.745-1.785,1.786-1.785h8.706c0.968,0,1.786,0.818,1.786,1.785v19.569
		l16.521-20.612c0.297-0.371,0.967-0.742,1.412-0.742h9.376c1.414,0,2.157,1.636,1.339,2.752l-17.412,21.803l18.976,24.703
		c0.817,1.116,0,2.754-1.412,2.754h-10.27c-0.523,0-1.19-0.298-1.339-0.521l-17.19-23.365v22.175c0,0.967-0.818,1.786-1.786,1.786
		h-8.706c-1.041,0-1.786-0.819-1.786-1.786V279.92z"/>
	<path fill="#FFFFFF" d="M176.695,279.547c0-0.744,0.594-1.412,1.414-1.412h30.804c0.818,0,1.414,0.668,1.414,1.412v8.112
		c0,0.744-0.596,1.412-1.414,1.412h-20.611v9.228h16.967c0.742,0,1.414,0.669,1.414,1.414v8.11c0,0.819-0.672,1.415-1.414,1.415
		h-16.967v10.044h20.611c0.818,0,1.414,0.67,1.414,1.414v8.11c0,0.745-0.596,1.415-1.414,1.415h-30.804
		c-0.82,0-1.414-0.67-1.414-1.415V279.547z"/>
	<path fill="#FFFFFF" d="M223.645,279.547c0-0.744,0.594-1.412,1.414-1.412h8.853c0.745,0,1.417,0.668,1.417,1.412v39.735h17.709
		c0.816,0,1.412,0.67,1.412,1.414v8.11c0,0.745-0.596,1.415-1.412,1.415h-27.979c-0.82,0-1.414-0.67-1.414-1.415V279.547z"/>
	<path fill="#FFFFFF" d="M16.064,369.53l10.481-22.533c0.1-0.203,0.334-0.369,0.569-0.369h0.335c0.234,0,0.469,0.166,0.569,0.369
		L38.5,369.53c0.201,0.436-0.067,0.871-0.569,0.871h-3.717c-0.604,0-0.871-0.2-1.173-0.837l-1.205-2.645h-9.107l-1.206,2.678
		c-0.167,0.402-0.535,0.804-1.206,0.804h-3.683C16.131,370.401,15.863,369.965,16.064,369.53z M23.431,341.37
		c0-2.144,1.708-3.852,3.851-3.852c2.109,0,3.851,1.708,3.851,3.852c0,2.143-1.741,3.853-3.851,3.853
		C25.139,345.222,23.431,343.512,23.431,341.37z M29.826,362.366l-2.544-5.525h-0.033l-2.512,5.525H29.826z M28.721,341.37
		c0-0.771-0.67-1.439-1.439-1.439c-0.771,0-1.473,0.669-1.473,1.439s0.702,1.474,1.473,1.474
		C28.051,342.843,28.721,342.14,28.721,341.37z"/>
	<path fill="#FFFFFF" d="M44.559,351.884H39.77c-0.369,0-0.636-0.303-0.636-0.637v-3.65c0-0.334,0.268-0.637,0.636-0.637h14.867
		c0.369,0,0.636,0.303,0.636,0.637v3.65c0,0.334-0.267,0.637-0.636,0.637h-4.788v17.881c0,0.333-0.302,0.636-0.637,0.636h-4.018
		c-0.334,0-0.636-0.303-0.636-0.636V351.884z"/>
	<path fill="#FFFFFF" d="M60.127,347.597c0-0.334,0.268-0.637,0.636-0.637h13.862c0.368,0,0.637,0.303,0.637,0.637v3.65
		c0,0.334-0.269,0.637-0.637,0.637h-9.275v4.15h7.634c0.335,0,0.638,0.303,0.638,0.638v3.648c0,0.37-0.303,0.637-0.638,0.637h-7.634
		v4.522h9.275c0.368,0,0.637,0.3,0.637,0.635v3.65c0,0.333-0.269,0.636-0.637,0.636H60.764c-0.368,0-0.636-0.303-0.636-0.636
		V347.597z"/>
	<path fill="#FFFFFF" d="M81.255,347.597c0-0.334,0.268-0.637,0.637-0.637h10.012c4.019,0,7.3,3.251,7.3,7.233
		c0,3.082-2.042,5.559-4.956,6.731l4.588,8.505c0.232,0.435,0,0.971-0.571,0.971h-4.452c-0.269,0-0.468-0.167-0.537-0.303
		l-4.452-8.871h-2.311v8.538c0,0.333-0.3,0.636-0.636,0.636h-3.984c-0.369,0-0.637-0.303-0.637-0.636V347.597z M91.469,356.973
		c1.371,0,2.542-1.271,2.542-2.678s-1.171-2.545-2.542-2.545h-4.957v5.223H91.469z"/>
	<path fill="#FFFFFF" d="M102.183,347.833c-0.201-0.435,0.066-0.872,0.569-0.872h4.454c0.267,0,0.502,0.202,0.568,0.37l5.524,12.221
		h0.2l5.525-12.221c0.068-0.168,0.301-0.37,0.569-0.37h4.453c0.503,0,0.771,0.438,0.57,0.872l-10.515,22.534
		c-0.101,0.202-0.3,0.369-0.57,0.369h-0.333c-0.268,0-0.469-0.167-0.569-0.369L102.183,347.833z"/>
	<path fill="#FFFFFF" d="M128.869,347.597c0-0.334,0.3-0.637,0.636-0.637h4.018c0.335,0,0.636,0.303,0.636,0.637v22.168
		c0,0.333-0.301,0.636-0.636,0.636h-4.018c-0.336,0-0.636-0.303-0.636-0.636V347.597z"/>
	<path fill="#FFFFFF" d="M141.392,347.23c0-0.335,0.301-0.603,0.637-0.603h0.838l13.358,12.857h0.034v-11.888
		c0-0.334,0.268-0.637,0.638-0.637h4.018c0.333,0,0.637,0.303,0.637,0.637v22.536c0,0.335-0.304,0.603-0.637,0.603h-0.536
		c-0.102,0-0.368-0.101-0.436-0.167l-13.228-13.293h-0.032v12.489c0,0.333-0.269,0.636-0.637,0.636h-3.985
		c-0.335,0-0.635-0.303-0.635-0.636L141.392,347.23z"/>
	<path fill="#FFFFFF" d="M168.781,347.23c0-0.335,0.302-0.603,0.637-0.603h0.838l13.36,12.857h0.033v-11.888
		c0-0.334,0.267-0.637,0.635-0.637h4.02c0.336,0,0.635,0.303,0.635,0.637v22.536c0,0.335-0.299,0.603-0.635,0.603h-0.536
		c-0.102,0-0.368-0.101-0.438-0.167l-13.223-13.293h-0.034v12.489c0,0.333-0.27,0.636-0.638,0.636h-3.982
		c-0.336,0-0.638-0.303-0.638-0.636L168.781,347.23z"/>
	<path fill="#FFFFFF" d="M196.207,347.597c0-0.334,0.301-0.637,0.635-0.637h4.02c0.334,0,0.635,0.303,0.635,0.637v22.168
		c0,0.333-0.301,0.636-0.635,0.636h-4.02c-0.334,0-0.635-0.303-0.635-0.636V347.597z"/>
	<path fill="#FFFFFF" d="M208.727,347.23c0-0.335,0.302-0.603,0.636-0.603h0.839l13.361,12.857h0.032v-11.888
		c0-0.334,0.267-0.637,0.635-0.637h4.02c0.334,0,0.635,0.303,0.635,0.637v22.536c0,0.335-0.301,0.603-0.635,0.603h-0.536
		c-0.101,0-0.368-0.101-0.437-0.167l-13.224-13.293h-0.036v12.489c0,0.333-0.268,0.636-0.636,0.636h-3.984
		c-0.334,0-0.635-0.303-0.635-0.636L208.727,347.23z"/>
	<path fill="#FFFFFF" d="M246.498,346.662c2.812,0,5.895,1.171,8.17,3.146c0.302,0.234,0.336,0.636,0.069,0.905l-2.646,2.812
		c-0.269,0.234-0.637,0.234-0.906,0.033c-1.271-1.172-2.745-1.608-4.386-1.608c-3.648,0-6.596,3.082-6.596,6.766
		c0,3.65,2.979,6.662,6.631,6.662c0.971,0,1.976-0.133,2.979-0.534v-1.942h-2.11c-0.368,0-0.637-0.269-0.637-0.604v-3.314
		c0-0.369,0.269-0.636,0.637-0.636h6.73c0.336,0,0.603,0.303,0.603,0.636l0.034,9.007c0,0.167-0.133,0.437-0.267,0.536
		c0,0-3.449,2.178-8.306,2.178c-6.663,0-12.021-5.292-12.021-11.988C234.476,352.016,239.834,346.662,246.498,346.662z"/>
</g>
<g>
	<path fill="#FFFFFF" d="M112.31,139.572c3.67,4.068,6.834,8.061,9.213,13.01c3.252,6.767,6.885,13.697,7.821,21.223
		c1.291,10.362-0.577,21.614-3.841,31.491c-1.677,5.077,6.308,7.235,7.972,2.198c3.748-11.345,5.672-24.456,3.802-36.294
		c-1.282-8.099-5.176-15.423-8.616-22.791c-2.598-5.564-6.417-10.15-10.507-14.683C114.577,129.76,108.75,135.625,112.31,139.572
		L112.31,139.572z"/>
	<g>
		<path fill="#FFFFFF" d="M108.973,150.455c2.013,0.165,4.112,0.519,6.232,0.992c2.902,14.665,5.804,29.329,8.708,43.994
			c1.55-7.125,2.179-14.567,1.298-21.636c-0.838-6.728-4.354-13.097-7.256-19.136c-2.271-4.727-5.081-8.309-8.568-12.174
			c-0.566-0.628-1.001-1.281-1.341-1.945C102.625,141.03,102.971,149.963,108.973,150.455z"/>
		<path fill="#FFFFFF" d="M136.132,154.603c1.596-2.181,1.626-5.333-1.507-6.778c-0.704-0.324-1.417-0.633-2.13-0.943
			C133.698,149.443,134.95,152.007,136.132,154.603z"/>
		<path fill="#FFFFFF" d="M121.231,205.292c-19.058,0-38.118,0-57.176,0c-6.397,0-6.397,9.921,0,9.921c12.853,0,25.704,0,38.557,0
			c7.56,0,15.121,0,22.681,0c3.2,0,6.738,0.588,8.992-2.168c0.08-0.099,0.159-0.195,0.24-0.293
			C129.147,216.683,119.696,212.852,121.231,205.292z"/>
	</g>
</g>
<path fill="#FFFFFF" d="M144.606,80.641c-0.938-14.325-7.343-28.946-15.087-40.838c-4.128-6.341-9.24-11.995-13.833-17.989
	c-2.474-3.227-4.708-6.611-6.773-10.111c-1.47-2.488-2.271-5.497-4.667-7.22c-0.405-0.292-0.979-0.213-1.391,0
	c-2.071,1.068-3.185,3.292-4.521,5.147c-2.264,3.149-4.395,6.39-6.483,9.657c-4.387,6.862-8.383,13.973-12.083,21.227
	c-6.43,12.604-12.301,26.24-13.622,40.458c-1.205,12.96,2.132,25.677,10.158,35.949c8.458,10.822,21.637,17.094,34.436,21.134
	c5.056,1.743,9.333-5.138,12.351-8.29c4.66-4.868,8.927-10.108,12.607-15.754C142.21,104.016,145.387,92.548,144.606,80.641z
	 M111.009,113.681c1.735-3.365,5.044-6.132,7.614-8.851c2.902-3.066,5.566-6.298,7.83-9.865c1.693-2.669,5.433-9.141,4.443-12.34
	c-0.492-1.592-1.929-2.63-3.584-1.66c-0.985,0.577-1.112,2.113-1.297,3.047c-0.566,2.863-1.822,5.535-3.233,8.067
	c-3.641,6.533-10.053,11.013-14.312,17.029c-0.416-4.012-0.694-8.032-0.875-12.069c-0.271-6.013,0.66-9.697,3.965-14.604
	c2.531-3.756,5.323-7.342,8.08-10.934c1.531-1.993,5.75-5.723,6.167-8.248c0.169-1.02,0.12-2.75-1.274-2.986
	c-2.243-0.38-2.909,0.984-4.172,2.674c-4.275,5.725-8.894,11.242-12.87,17.187c0.216-10.541,0.815-21.063,1.459-31.587
	c0.218-3.557,2.098-14.109-2.126-15.248c-3.945-1.062-2.377,7.804-2.326,9.296c0.177,5.063-0.322,10.288-0.732,15.418
	c-1.959-4.052-3.449-8.226-4.718-12.639c-0.617-2.145-1.5-7.069-4.796-4.704c-2.529,1.817,1.22,9.134,1.933,11.358
	c1.702,5.309,4.325,10.153,7.258,14.873c0.297,0.477,0.739,0.663,1.175,0.647l-0.285,27.051
	c-5.435-9.361-10.826-18.565-13.976-29.02c-0.867-2.879-1.568-5.808-2.254-8.733c-0.55-2.35-0.478-6.667-2.266-8.456
	c-1.564-1.564-4.277,0.098-3.85,2.167c2.358,11.419,5.225,22.438,10.635,32.817c2.917,5.597,6.219,10.998,9.369,16.464
	c1.928,3.345,1.574,7.368,2.005,11.193c0.254,2.252,0.591,4.492,0.98,6.723c-2.912-3.11-5.86-6.23-8.355-9.643
	c-2.941-4.021-4.819-8.907-6.978-13.36c-2.625-5.411-5.415-10.697-8.271-15.987c-0.632-1.169-1.16-2.811-2.611-3.208
	c-1.251-0.345-2.864,0.703-2.864,2.059c0,3.501,3.983,8.166,5.589,11.146c3.192,5.925,5.791,12.158,8.932,18.111
	c1.748,3.314,4.12,6.126,6.604,8.906c2.638,2.952,5.317,5.867,7.958,8.815c2.146,2.396,2.996,5.327,4.019,8.332
	c-10.162-3.91-19.845-9.142-27.067-17.488c-8.076-9.335-10.033-21.776-9.164-33.717c0.974-13.368,6.399-26.604,11.828-38.694
	c5.163-11.495,11.282-22.758,18.68-32.993c5.6,10.855,12.886,20.491,19.462,30.767c6.945,10.851,12.557,23.07,15.115,35.738
	c4.607,22.809-8.978,40.987-24.001,56.44C111.373,127.254,108.272,118.986,111.009,113.681z"/>
<g>
	<g>
		<polygon fill="#FFFFFF" points="229.04,184.973 229.04,184.974 229.042,184.974 		"/>
		<rect x="229.036" y="184.974" fill="#FFFFFF" width="0.004" height="0.001"/>
	</g>
	<g>
		<path fill="#FFFFFF" d="M200.118,180.051L200.118,180.051L200.118,180.051C200.118,180.051,200.118,180.051,200.118,180.051
			L200.118,180.051L200.118,180.051L200.118,180.051L200.118,180.051v0.003l0,0l0,0l0,0v0.001v-0.001l0,0l0,0l0,0l0,0
			c0.002-0.002,0.002-0.002,0.002-0.002C200.118,180.051,200.118,180.051,200.118,180.051z M200.118,180.054L200.118,180.054
			L200.118,180.054v-0.002l0,0l0,0l0,0l0,0l0,0C200.118,180.052,200.118,180.052,200.118,180.054L200.118,180.054z M200.118,180.052
			L200.118,180.052L200.118,180.052L200.118,180.052L200.118,180.052L200.118,180.052L200.118,180.052z M200.118,180.054
			L200.118,180.054c0-0.002,0-0.002,0-0.002c0-0.001,0-0.001,0.002,0C200.12,180.052,200.12,180.052,200.118,180.054z
			 M200.118,180.052L200.118,180.052L200.118,180.052C200.118,180.051,200.118,180.051,200.118,180.052
			C200.118,180.051,200.118,180.051,200.118,180.052z"/>
	</g>
</g>
<g>
	<polygon fill="#FFFFFF" points="174.985,213.071 174.988,213.073 174.985,213.071 	"/>
	<g>
		<path fill="#FFFFFF" d="M189.444,238.597L189.444,238.597L189.444,238.597c0,0,0,0,0.002,0l0,0l0,0l0,0l0,0l0.003-0.002l0,0l0,0
			l0,0l0,0h-0.003l0,0l0,0l0,0l0,0c-0.002,0-0.002,0-0.002,0C189.444,238.597,189.444,238.597,189.444,238.597z M189.446,238.595
			L189.446,238.595L189.446,238.595v0.002l0,0l0,0l0,0l0,0l0,0C189.446,238.597,189.446,238.597,189.446,238.595L189.446,238.595z
			 M189.446,238.597L189.446,238.597L189.446,238.597L189.446,238.597L189.446,238.597L189.446,238.597L189.446,238.597z
			 M189.446,238.595L189.446,238.595c0,0.002,0,0.002,0,0.002c-0.002,0-0.002,0-0.002-0.002
			C189.444,238.595,189.444,238.595,189.446,238.595z M189.446,238.597L189.446,238.597L189.446,238.597c-0.002,0-0.002,0-0.002,0
			S189.444,238.597,189.446,238.597z"/>
	</g>
</g>
<g>
	<g>
		<polygon fill="#FFFFFF" points="225.819,243.399 225.819,243.396 225.819,243.399 		"/>
		<rect x="225.817" y="243.394" fill="#FFFFFF" width="0.004" height="0.002"/>
	</g>
	<g>
		<path fill="#FFFFFF" d="M241.672,218.713L241.672,218.713L241.672,218.713c0,0,0,0-0.002-0.002l0,0l0,0l0,0l0,0v-0.001l0,0l0,0
			l0,0v0.001l0,0l0,0l0,0l0,0l0,0C241.672,218.714,241.672,218.714,241.672,218.713
			C241.672,218.713,241.672,218.713,241.672,218.713z M241.67,218.711L241.67,218.711L241.67,218.711L241.67,218.711L241.67,218.711
			L241.67,218.711L241.67,218.711L241.67,218.711L241.67,218.711L241.67,218.711L241.67,218.711z M241.67,218.711L241.67,218.711
			L241.67,218.711L241.67,218.711L241.67,218.711L241.67,218.711L241.67,218.711z M241.67,218.711L241.67,218.711L241.67,218.711
			c0.002,0.002,0.002,0.002,0.002,0.003C241.672,218.714,241.672,218.714,241.67,218.711z M241.67,218.711L241.67,218.711
			L241.67,218.711c0.002,0.002,0.002,0.002,0.002,0.002S241.672,218.713,241.67,218.711z"/>
	</g>
</g>
<g>
	<path fill="#FFFFFF" d="M130.09,142.355c2.092,0.811,4.165,1.675,6.204,2.613c4.093,1.888,5.075,7.711,2.965,11.312
		c-0.443,0.759-0.978,1.379-1.561,1.912c1.595,3.848,2.915,7.789,3.565,11.91c0.601,3.789,0.848,7.686,0.803,11.608
		c2.009-2.423,4.015-4.846,6.022-7.27c-0.064-8.495-1.417-16.947-5.324-24.605c-4.271-8.371-8.573-16.702-13.826-24.521
		c-2.956-4.4-10.121-0.267-7.139,4.172c1.693,2.52,3.235,5.109,4.715,7.728C127.794,138.866,129.002,140.568,130.09,142.355z"/>
</g>
<g>
	<path fill="#FFFFFF" d="M139.11,99.177c-2.007,1.589-3.665,5.25-2.002,6.438c4.915,3.513,9.645,7.13,14.192,11.023
		c0.25-1.219,0.783-2.333,1.514-3.295C148.044,108.834,143.583,104.098,139.11,99.177z"/>
</g>
<g>
	<g>
		<path fill="#FFFFFF" d="M140.854,94.958c7.016,7.754,13.897,15.068,21.963,21.769c4.069,3.378,9.951-2.437,5.846-5.847
			c-8.067-6.7-14.947-14.015-21.964-21.768l-2.635-3.141l-2.962,3.095c-0.006,0.005-0.013,0.012-0.017,0.018l-0.028,0.028
			l0.002,0.002C139.628,90.583,139.086,93.005,140.854,94.958z"/>
	</g>
	<path fill="#FFFFFF" d="M211.031,210.037c-8.312-23.057-31.06-86.878-33.068-93.142c-0.594-1.857-2.077-3.258-3.972-3.574
		c0.054,2.338-0.82,4.744-2.405,6.328c-3.403,3.406-8.228,2.876-11.692,0c-1.521-1.265-2.992-2.559-4.44-3.867
		c-1.462,2.939-0.065,7.391,4.226,7.391c3.294,0,6.59,0,9.886,0c2.393,7.464,4.784,14.93,7.176,22.394
		c-11.675,14.268-23.348,28.537-35.023,42.804c-0.646,6.929-2.138,13.812-4.254,20.221c-0.136,0.408-0.297,0.783-0.472,1.145
		c14.672-17.934,29.346-35.867,44.018-53.799c6.817,18.911,13.638,37.824,20.456,56.735
		C203.619,218.644,213.208,216.069,211.031,210.037z"/>
</g>
<g>
	<g>
		<path fill="#FFFFFF" d="M111.534,200.883c-1.78-6.514-4.999-12.689-9.623-18.011c-0.289,0.621-0.661,1.211-1.127,1.756
			c-1.428,1.67-3.182,2.291-4.101,2.514l-0.882,0.211c3.6,4.013,6.225,8.632,7.853,13.529H111.534z"/>
		<path fill="#FFFFFF" d="M105.074,219.623c-1.134,6.63-4.013,13.049-8.705,18.532c-1.214,1.419-2.512,2.727-3.875,3.926
			l-0.945-1.846c0,0-0.957-0.958-1.734,0.428c0,0-6.022,10.213-6.012,10.443c-0.325,0.605-0.86,1.982,1.199,1.707l10.892-0.098
			c0,0,2.692,0.53,1.026-1.995l-0.899-1.754c2.164-1.75,4.201-3.72,6.075-5.91c5.911-6.906,9.413-15.056,10.605-23.434H105.074z"/>
	</g>
	<g>
		<path fill="#FFFFFF" d="M28.434,218.836l-1.53,0.204c1.157,9.184,5.602,17.983,13.188,24.475
			c10.525,9.009,24.502,11.353,36.799,7.445c-0.277,1.915,0.114,3.8,1.196,5.367c0.298,0.43,0.815,1.062,1.583,1.651
			c-14.819,4.893-31.757,2.15-44.479-8.736c-9.054-7.748-14.361-18.247-15.756-29.203l-1.799,0.239
			c-2.561,0.669-1.272-1.841-1.272-1.841l4.549-10.812c0.6-1.471,1.668-0.639,1.668-0.639l6.622,9.745
			C31.169,219.029,28.434,218.836,28.434,218.836z"/>
		<path fill="#FFFFFF" d="M90.015,168.632l5.633,10.29c0.778,1.385-0.537,1.703-0.537,1.703l-11.751-0.88
			c-3.021,0.107-1.168-1.914-1.168-1.914l0.495-0.827c-15.553-8.073-35.164-4.711-47.049,9.176
			c-4.113,4.806-6.83,10.332-8.206,16.088l-0.729-0.568c-1.929-1.503-4.341-1.949-6.546-1.424
			c1.662-6.796,4.895-13.318,9.753-18.996c14.312-16.722,37.995-20.679,56.651-10.755l1.222-2.041
			C88.853,166.062,90.015,168.632,90.015,168.632z"/>
	</g>
</g>
<g>
	<path fill="#FFFFFF" d="M225.445,251.106c-0.009-0.23,6.013-10.443,6.013-10.443c0.777-1.386,1.732-0.428,1.732-0.428l0.945,1.846
		c1.363-1.199,2.661-2.507,3.875-3.926c12.727-14.868,12.155-36.619-0.565-50.801l0.88-0.211c0.92-0.223,2.674-0.844,4.102-2.514
		c0.467-0.545,0.84-1.136,1.128-1.756c14.734,16.96,15.231,42.6,0.184,60.184c-1.873,2.19-3.912,4.16-6.076,5.91l0.9,1.754
		c1.666,2.525-1.027,1.995-1.027,1.995l-10.892,0.098C224.585,253.088,225.12,251.711,225.445,251.106z"/>
	<g>
		<path fill="#FFFFFF" d="M170.077,218.836l-1.53,0.204c1.158,9.184,5.602,17.983,13.188,24.475
			c10.525,9.009,24.502,11.353,36.799,7.445c-0.277,1.915,0.114,3.8,1.195,5.367c0.299,0.43,0.815,1.062,1.584,1.651
			c-14.818,4.893-31.757,2.15-44.48-8.736c-9.053-7.748-14.359-18.247-15.755-29.203l-1.8,0.239
			c-2.56,0.669-1.272-1.841-1.272-1.841l4.549-10.812c0.601-1.471,1.669-0.639,1.669-0.639l6.622,9.745
			C172.811,219.029,170.077,218.836,170.077,218.836z"/>
		<g>
			<path fill="#FFFFFF" d="M237.29,178.922l-5.632-10.29c0,0-1.163-2.569-2.232-0.147l-1.221,2.041
				c-8.84-4.702-18.808-6.282-28.371-4.871c0.863,2.426,1.729,4.854,2.588,7.263c7.419-0.804,15.058,0.531,21.908,4.087
				l-0.495,0.827c0,0-1.854,2.021,1.166,1.914l11.753,0.88C236.753,180.625,238.069,180.307,237.29,178.922z"/>
			<path fill="#FFFFFF" d="M182.163,172.136c-3.886,2.427-7.473,5.479-10.609,9.144c-4.858,5.677-8.093,12.2-9.754,18.996
				c2.204-0.525,4.617-0.079,6.547,1.424l0.728,0.568c1.375-5.757,4.093-11.282,8.206-16.088c2.252-2.632,4.784-4.884,7.512-6.754
				L182.163,172.136z"/>
		</g>
	</g>
</g>
</svg>
