<?xml version="1.0" encoding="utf-8"?>
<!-- Generator: Adobe Illustrator 19.2.1, SVG Export Plug-In . SVG Version: 6.00 Build 0)  -->
<svg version="1.1" id="Layer_1" xmlns="http://www.w3.org/2000/svg" xmlns:xlink="http://www.w3.org/1999/xlink" x="0px" y="0px"
	 viewBox="0 0 553.1 560.6" style="enable-background:new 0 0 553.1 560.6;" xml:space="preserve">
<style type="text/css">
	.st0{fill:#1A76B2;}
	.st1{fill:#FFCB31;}
	.st2{fill:none;}
	.st3{fill:#231F20;}
	.st4{font-family:'FuturaStd-Book';}
	.st5{font-size:61.0351px;}
	.st6{font-size:63.9415px;}
	.st7{letter-spacing:-4;}
	.st8{font-size:59.2912px;}
	.st9{letter-spacing:-2;}
</style>
<g>
	<g>
		<rect x="91.4" y="143.1" class="st0" width="341.7" height="214.1"/>
		<polygon class="st1" points="433.2,223.7 248.2,223.7 248.2,143.1 198.9,143.1 198.9,223.7 91.4,223.7 91.4,272.9 198.9,272.9 
			198.9,357.2 248.2,357.2 248,272.9 433.2,272.9 		"/>
	</g>
	<rect x="86.8" y="384.1" class="st2" width="381.1" height="121.7"/>
	<text transform="matrix(1 0 0 1 86.8202 436.8259)" class="st3 st4 st5">Born in</text>
	<text transform="matrix(1 0 0 1 275.4784 436.8259)" class="st3 st4 st6 st7"> </text>
	<text transform="matrix(1 0 0 1 290.4081 436.8259)" class="st3 st4 st8 st9">1</text>
	<text transform="matrix(1 0 0 1 324.203 436.8259)" class="st3 st4 st8">9</text>
	<text transform="matrix(1 0 0 1 362.2313 436.8259)" class="st3 st4 st8">94</text>
</g>
</svg>
