<?xml version="1.0" encoding="utf-8"?>
<!-- Generator: Adobe Illustrator 19.2.1, SVG Export Plug-In . SVG Version: 6.00 Build 0)  -->
<svg version="1.1" id="Layer_1" xmlns="http://www.w3.org/2000/svg" xmlns:xlink="http://www.w3.org/1999/xlink" x="0px" y="0px"
	 viewBox="0 0 553.1 560.6" style="enable-background:new 0 0 553.1 560.6;" xml:space="preserve">
<style type="text/css">
	.st0{fill:#265B4D;}
</style>
<g>
	<path class="st0" d="M309.2,72.5C224.7,72.5,194.8,204,167,309.7c-10-10.2-41-41-41-41c-6.2-6.2-13.4-4.2-17.8,0.1
		c-4.4,4.4-5,12.6,0,17.5c0.3,0.2,41.9,41.8,56.4,56.2c4,3.9,9.7,6.1,15.4,2.8c6-3.6,6.8-10.2,6.9-10.2
		c49.4-221.3,93.5-237.8,122.2-237.8c24.1,0,51.9,17.8,51.9,53.4c36,0,58.5,47.2,29.5,76.3c24,11.6,34.7,25.9,34.7,43.9
		c0,18.1-15.1,36.5-37.2,36.5c-21.9,0-33-14.1-50.1-14.1c-7.7,0-12.4,6.2-12.4,12.4v44.7h-32.2v-44.5c-0.1-7-5.2-12.5-11.6-12.5
		c-0.1,0-2.8,0.1-2.7,0.1l-43.2,5.4c-5.2,0.7-10,6.4-10,12.3c0,6.9,5.6,12.5,13.3,12.4c0.9,0,2.3,0,2.1-0.1
		c-0.1,0,27.3-3.5,27.3-3.5s0,43.9,0,44.1c0,5.6,6.3,11,12,11.1h57.3c6.7,0,12.5-5.7,12.5-12.5v-40.3c12,7.3,28.7,10.2,37.2,10.2
		c32.1,0,62.8-25.3,62.7-62.3c-0.1-33.7-25.8-50.4-25.8-50.4c15.1-40.2-9.3-79-40.9-89.8C372,88.5,336.6,72.5,309.2,72.5z"/>
	<path class="st0" d="M273.1,424.4c0,10.4,11.6,16.7,30.7,25.7c15.2,7.1,23.9,14.6,23.9,20.6c0,9.8-10.5,13.2-20.3,13.2
		c-15.2,0-24.2-6.1-29.2-19.7l-0.4-1.2h-1.2c-2.7,0-4.8,0.1-6,1.6c-1.1,1.4-0.8,3.2-0.3,4.9c0,0,3.3,14,3.3,14c0.9,3.4,2.1,4,7.5,5
		c2.4,0.4,14.7,2.6,25.1,2.6c29.1,0,42.1-11.8,42.1-23.5c0-8.5-8.4-16.7-26.7-25.8l-8.3-4c-12.5-5.9-20-9.5-20-15.7
		c0-6.1,7.8-10.3,19-10.3c14.5,0,18.4,8.1,20.2,15.2l0.3,1.4h1.4c3.2,0,5.3-0.3,6.5-1.6c0.7-0.7,1-1.7,0.8-3l-1.2-12.1
		c-0.3-3.8-3.3-4.4-7.4-5.2c-4.9-0.9-10.7-1.9-19.6-1.9C288.2,404.7,273.1,412,273.1,424.4z"/>
	<path class="st0" d="M356.9,448.9c0,21,18.3,42.4,53.2,42.4c17.6,0,27.5-4,34.9-7.9l2-1.1l-3.3-3.6l0.2,0.2
		c-0.8-1.1-1.4-1.3-2.6-1.3l-1.7,0.6c-2.7,1.2-10.7,5-25.4,5c-18.1,0-37.5-11.8-37.5-37.7c0-24.7,21.1-33.4,39.1-33.4
		c13,0,19.9,4.6,21.1,14.2l0.2,1.6h1.6c1.5,0,5.6,0,5.6-3.1v-14.4c0-3.5-4-4-5.8-4.3l-1.7-0.2c-4.1-0.6-8.1-1.1-18.7-1.1
		C382.7,404.7,356.9,423.2,356.9,448.9z"/>
	<path class="st0" d="M225.2,405.7l-31.5,0.3l-21-0.4l-3.2-0.1c-1.9,0-3.2,1.4-3.2,3.3c0,0.9,0,3.7,3.5,3.7
		c12.7,0,13.1,1.1,13.3,5.9l0.1,3.1l0.2,12.9v27.9c0,4.6-0.2,12-0.5,17.9c-0.1,1.7-0.2,3.3-11.4,3.3c-3.1,0-5,0.6-5,3.7
		c0,0.9,0,3.3,3,3.3l0.7,0c1.3-0.1,4.9-0.2,22.4-0.2c18.6,0,22.4,0.2,23.6,0.2l0.7,0c2.4,0,4.6-0.3,4.6-3.3c0-3.5-2.9-3.7-7.6-3.7
		c-11.3,0-11.3-1.6-11.4-3.3c-0.3-5.5-0.5-12.8-0.5-18c0,0,0-7.5,0-10c2.5,0,9.4,0,9.4,0c14.4,0,16.1,0.4,18.1,11.5
		c0.6,2.4,2.5,2.7,4.1,2.7c3.4,0,3.8-1.9,3.8-2.7l-0.3-4.1c-0.2-2.4-0.5-5.4-0.5-9.4v-17.1c0-2.6-3.1-2.6-4.7-2.6
		c-2.7,0-3.4,1.7-5.1,9.8c-0.8,3.1-6.7,4.9-16.3,4.9c0,0-6,0-8.5,0c0-3.1,0-25.1,0-25.1c0-6.8,1.2-6.9,2.7-6.9
		c5.5-0.2,18.9-0.7,22.9-0.7c3.8,0,7.3,0.9,9.6,2.4c7.1,4.4,10.8,7.4,13,9.3c2.2,1.8,3.4,2.8,5.2,2.8c1,0,4.1,0,4.1-2.6
		c0-0.6-0.3-1.2-1.3-3.4c-1.2-2.6-3.1-6.8-5.6-13.3c-0.7-2-3.1-2-7.5-2L225.2,405.7z"/>
	<path class="st0" d="M415.4,96.7V75.7h-7.9v-3.3h19.7v3.3h-7.8v20.9H415.4z M433.4,96.7h-3.5V72.4h3.8l6.8,16l6.3-16h3.9v24.2h-3.8
		V81.3l-4.7,12h-3.6l-5-11.8V96.7z"/>
</g>
</svg>
