<?xml version="1.0" encoding="utf-8"?>
<!-- Generator: Adobe Illustrator 19.2.1, SVG Export Plug-In . SVG Version: 6.00 Build 0)  -->
<svg version="1.1" id="Layer_1" xmlns="http://www.w3.org/2000/svg" xmlns:xlink="http://www.w3.org/1999/xlink" x="0px" y="0px"
	 viewBox="0 0 553.1 560.6" style="enable-background:new 0 0 553.1 560.6;" xml:space="preserve">
<style type="text/css">
	.st0{fill:#005CB9;}
	.st1{fill:#FFFFFF;}
</style>
<g>
	<g>
		<path class="st0" d="M93.8,177.4h7.8l12.6,53.7h-11l-3.2-13.9H80.8l-8.3,13.9h-11L93.8,177.4z M85.8,207.9h12.3l-3-16.5H95
			L85.8,207.9z"/>
		<path class="st0" d="M135.4,204.9c-0.1-2.9-2-3.1-2.9-3.1c-2.2,0-3.6,1.6-3.9,3.1c-0.4,2.1,1,2.5,5.4,4c4.2,1.4,9.4,3.5,8.1,10.8
			c-1.5,8.1-8.8,12.6-15,12.6c-3.6,0-7.8-1.2-9.9-4.7c-1.7-2.7-1.5-5.6-1.3-7.8h8.8c0.1,1.6,0.3,4.6,3.9,4.6c2.8,0,4.3-2.1,4.6-3.6
			c0.5-2.7-1.3-3.3-7.1-5.4c-3.8-1.4-7.3-4.4-6.2-10.3c1.3-7,8.4-11.2,14.2-11.2c5.4,0,10.7,3.9,9.7,11.1H135.4z"/>
		<path class="st0" d="M150.1,202.7h-4.2l1.4-7.7h4.2l2.2-12h8.7l-2.2,12h5.2l-1.4,7.7h-5.2l-5.3,28.4h-8.7L150.1,202.7z"/>
		<path class="st0" d="M168.3,195h7.9l-0.6,3.1h0.1c0.9-1.2,4-4.3,10.2-4.3c2,0,6.9,0.5,9.4,5.7c4.8-5.4,10.2-5.7,12.7-5.7
			c7.1,0,9.9,3.8,10.9,5.6c1.1,1.9,1.7,5.3,0.8,10.7l-3.9,21.1h-8.7l3.7-20c0.4-2.1,1.7-9.4-5.1-9.4c-2.4,0-5,1.3-6.6,3.4
			c-1.8,2.1-2.4,5.7-2.8,8l-3.3,18h-8.7l3.7-20c0.9-4.9-0.2-9.4-5.5-9.4c-6.9,0-8.3,7.5-9,11.4l-3.3,18h-8.7L168.3,195z"/>
		<path class="st0" d="M257.2,231.2h-7.9l0.8-4.5c-3.3,3.3-9.1,5.7-13.7,5.7c-9.3,0-16.2-7.4-14-19.5c2.1-11.1,11.6-19.1,21.6-19.1
			c7.4,0,10.7,5.3,10.9,5.8h0.1l0.8-4.6h7.9L257.2,231.2z M243.9,201.7c-7.1,0-11.9,6.1-12.9,11.5c-1.1,6.1,2.5,11.1,8.7,11.1
			c6,0,11.4-4.7,12.7-11.4C253.8,205.5,249,201.7,243.9,201.7z"/>
		<path class="st0" d="M18.4,285.7c2-10.9,12.5-19.3,22.9-19.3c10.2,0,17.6,8.1,15.6,19.2c-2.2,11.8-12.7,19.3-22.7,19.3
			C23.4,304.9,16.5,296.1,18.4,285.7z M48.2,285.8c1.2-6.6-3-11.5-8.4-11.5c-4.5,0-11.3,3.8-12.7,11.4c-1.3,6.8,3.1,11.3,8.5,11.3
			C41.9,297,47.1,291.5,48.2,285.8z"/>
		<path class="st0" d="M95.1,292c-4.4,8.1-12,13-20.5,13c-9.2,0-17.8-7.4-15.6-19.4c2-11.1,12.7-19.1,22.7-19.1
			c4.6,0,14.1,2.1,15.7,13.2h-9.8c-0.7-1.8-2.1-5.3-7.4-5.3c-5.3,0-11.2,3.9-12.6,11.3c-1.1,6.2,2.3,11.3,8.8,11.3
			c2.9,0,6-1.4,8.9-5H95.1z"/>
		<path class="st0" d="M105.3,255.6h8.7l-2.7,14.6c1.3-1,4.7-3.8,10.1-3.8c4,0,8.1,2.2,10.1,5.5c2.2,3.6,1.2,8.8,0.7,11.5l-3.8,20.4
			h-8.7l3.4-18.5c0.7-3.9,1.8-10.9-5.4-10.9c-7.3,0-8.8,8-9.3,11.1l-3.4,18.4h-8.7L105.3,255.6z"/>
		<path class="st0" d="M180.4,250h7.8l12.5,53.7h-11l-3.2-13.9h-19.2l-8.3,13.9h-11L180.4,250z M172.4,280.5h12.3l-3-16.5h-0.1
			L172.4,280.5z"/>
		<path class="st0" d="M211.5,255.6h8.7l-8.9,48.2h-8.6L211.5,255.6z"/>
		<path class="st0" d="M225.2,255.6h8.7l-8.9,48.2h-8.7L225.2,255.6z"/>
		<path class="st0" d="M240.2,289.6c0,2.3,2.4,7.4,8.6,7.4c3.8,0,7-1.6,9.2-4.6h9.1c-3.3,6.5-11.3,12.6-19.8,12.6
			c-10.7,0-17.5-8.6-15.5-19.1c1.9-10.2,11.5-19.6,22.6-19.6c11.4,0,16.8,9.9,15.2,19c-0.3,1.7-0.9,3.2-1.3,4.4H240.2z M261.2,282.6
			c0.1-5.8-3.9-8.5-8.2-8.5c-3.2,0-8.9,1.8-11.8,8.5H261.2z"/>
		<path class="st0" d="M276.9,267.6h7.9l-0.6,3.2h0.1c2.1-2.3,4.1-4.4,8.6-4.4h0.7l-1.6,8.4c-7.9,0.3-9.1,6.5-9.5,8.7l-3.8,20.3
			h-8.7L276.9,267.6z"/>
		<path class="st0" d="M332.3,267.6l-5.5,29.5c-3.2,17.4-16.8,21.3-23.7,21.3c-7.4,0-14.3-3.9-15.9-12h9.9c2.6,4,6.8,4,8.2,4
			c4.9,0,11.2-3.4,13.2-11.3l-0.1-0.1c-1.5,1.6-5.6,5.8-12.9,5.8c-8.8,0-17.1-7.5-14.9-19.6c2.1-11.3,12.7-18.9,21.9-18.9
			c7.4,0,9.8,4.2,10.5,5.7h0.1l0.8-4.4H332.3z M311.8,274.3c-5.2,0-11.3,4.2-12.6,11.1c-1.4,7.4,3.4,11.6,8.7,11.6
			c5.2,0,11.2-4.4,12.5-11.7C321.3,280.2,318.2,274.3,311.8,274.3z"/>
		<path class="st0" d="M337.8,267.6h8.7l-6.7,36.1h-8.7L337.8,267.6z M340,255.6h8.7l-1.5,7.9h-8.7L340,255.6z"/>
		<path class="st0" d="M66.9,322.6h27.4l-1.7,9.3H75.1l-2.4,13.1h16.6l-1.7,9.3H71l-4.1,22h-9.9L66.9,322.6z"/>
		<path class="st0" d="M91.6,358.3c2-10.9,12.5-19.3,22.8-19.3c10.2,0,17.6,8.1,15.6,19.2c-2.2,11.8-12.7,19.3-22.7,19.3
			C96.6,377.5,89.7,368.7,91.6,358.3z M121.3,358.4c1.2-6.6-3-11.5-8.4-11.5c-4.5,0-11.3,3.8-12.7,11.4c-1.3,6.8,3.1,11.3,8.5,11.3
			C115.1,369.6,120.3,364.1,121.3,358.4z M105.5,326.3h8.7l-1.6,8.7h-8.7L105.5,326.3z M119.3,326.3h8.7l-1.6,8.7h-8.7L119.3,326.3z
			"/>
		<path class="st0" d="M137.1,340.2h7.9l-0.6,3.2h0.1c2.1-2.3,4.1-4.4,8.6-4.4h0.7l-1.6,8.4c-7.9,0.3-9.1,6.5-9.5,8.7l-3.8,20.3
			h-8.7L137.1,340.2z"/>
		<path class="st0" d="M158.5,328.2h8.7l-2.8,15.3c3.5-3,8.1-4.5,12.1-4.5c11,0,16.4,9.6,14.6,19.1c-1.3,7.2-8.3,19.4-21.6,19.4
			c-7,0-9.4-3.1-11.1-5.5l-0.8,4.4h-7.9L158.5,328.2z M169.8,369.6c5.7,0,11.2-4.4,12.5-11.4c1.3-7-3-11.3-8.5-11.3
			c-6.6,0-11.8,5.6-12.8,10.9C159.7,365.8,164.8,369.6,169.8,369.6z"/>
		<path class="st0" d="M229.6,340.2l-6.7,36.1H215l0.7-3.6h-0.1c-1.8,2-4.7,4.8-10.2,4.8c-6.6,0-9.7-3.3-11-5.7
			c-2-3.8-0.9-9.7-0.3-12.7l3.5-18.9h8.7l-3.4,18.4c-0.5,2.9-2,10.9,5.5,10.9c5.5,0,8.2-5.1,9.3-10.9l3.4-18.5H229.6z"/>
		<path class="st0" d="M234.8,340.2h8l-0.6,3.1c1.7-1.4,5.2-4.4,10.7-4.4c3.1,0,7.6,1.4,9.9,5c2.6,4,1.5,10,0.9,12.8l-3.6,19.5h-8.7
			l3.3-17.8c0.6-3,2.2-11.6-5.1-11.6c-1.6,0-4.5,0.8-6.5,3.2c-2,2.2-2.7,6-3.2,9l-3.2,17.2h-8.7L234.8,340.2z"/>
		<path class="st0" d="M301.9,376.3H294l0.8-4.4h-0.1c-2.1,2.6-6.4,5.6-12.6,5.6c-9.2,0-17-7.6-14.9-19.2
			c2.2-12.2,13.3-19.3,22-19.3c5.3,0,8.1,1.8,10.1,4.4l2.8-15.2h8.7L301.9,376.3z M284.5,369.6c6.5,0,11.8-5.9,12.8-11.3
			c1.1-5.9-2.5-11.3-8.6-11.3c-6.4,0-11.8,6-12.7,11.1C274.7,364.7,278.8,369.6,284.5,369.6z"/>
		<path class="st0" d="M316.5,362.2c0,2.3,2.4,7.4,8.6,7.4c3.8,0,7-1.6,9.2-4.6h9.1c-3.3,6.5-11.3,12.6-19.8,12.6
			c-10.7,0-17.5-8.6-15.5-19.1c1.9-10.2,11.5-19.6,22.6-19.6c11.5,0,16.8,9.9,15.2,19c-0.3,1.7-0.9,3.2-1.3,4.4H316.5z M337.5,355.2
			c0.1-5.8-3.9-8.5-8.2-8.5c-3.2,0-8.9,1.8-11.8,8.5H337.5z"/>
		<path class="st0" d="M353.3,347.9H349l1.4-7.7h4.2l2.2-12h8.7l-2.2,12h5.2l-1.4,7.7h-5.2l-5.3,28.4H348L353.3,347.9z"/>
	</g>
</g>
<g>
	<path class="st0" d="M291.9,441.8c-5.5,0-11-0.3-16.5-0.8c-46.1-4.3-84.4-22-107.8-49.9c-0.9-1.1-0.7-2.6,0.3-3.5
		c1.1-0.9,2.6-0.7,3.5,0.3c22.5,26.9,59.6,43.9,104.4,48.1c94.9,8.8,179.2-61.2,187.9-156.1c8.6-93-61.3-176.4-155.9-185.9
		c-60.4-6.1-125.7,25.4-162.5,78.3c-0.8,1.1-2.4,1.4-3.5,0.6c-1.1-0.8-1.4-2.4-0.6-3.5c37.8-54.3,105-86.7,167.1-80.4
		c46.3,4.6,88.6,26.8,119.1,62.5c31,36.3,45.6,82,41.3,128.8C460.3,372.5,382.6,441.8,291.9,441.8z"/>
</g>
<g>
	<path class="st0" d="M310.2,49.9c13.6,2.5,22.7,12.1,33.8,19.7c5.5,1.5,9.6,6.6,10.6,11.6c11.6,8.6,17.1,22.7,31.2,29.7
		c7.1,5,11.1,11.1,16.1,17.6c32.8,4,53.9-21.7,76.6-39.8l-6,28.2c9.6,3.5,18.6,7.1,27.2,12.6c-22.7,5-53.9,1.5-63.5,27.2
		c3,6.5,7.1,13.6,12.1,19.1c15.1,3,24.2,14.6,36.8,22.7c8.1,3,18.1,4.5,21.7,13.6c8.1,3,5.5,12.6,12.6,16.1
		c5,8.6,11.1,16.6,11.1,26.7c-17.6-8.6-35.8-19.1-54.4-26.2l-4.2-0.6c-18.9-11-43.7-7.9-61.8-20.5L390.3,189
		c-14.1-2-26.2,2.5-38.8,5.5c-8.1-0.5-15.6,1-23.2,2.5c5-8.6-0.5-22.2,9.1-28.2c6-5,14.1-6.5,18.1-13.1l-16.1-21.7
		c-3-12.6-4-25.7-8.6-37.3l-2.5-5c-2.5-10.6-7.6-21.2-13.1-31.2C313.7,57,307.7,53.5,310.2,49.9z"/>
	<path class="st1" d="M436.4,146.7c-2.5-3-4-8.1-9.6-7c-3.5-3-4-11.1-11.6-8.6c-3.5,1.5-12.1-1-9.6,5.5c4,12.6,19.6,7.1,27.2,14.1
		C434.4,149.8,436.4,148.7,436.4,146.7z"/>
	<path class="st1" d="M385.1,184.1c0-1.5-0.5-2.5-1-3.5c-3.5-4.5-9.1-1.5-12.6,0.5c-5.5,3.5-15.6,0-17.1,8.6
		C364.4,186.6,374,184.1,385.1,184.1z"/>
</g>
<g>
	<path class="st0" d="M254.3,510l-8.5-1.8l-5.7-16.3l-0.1,0l-3.1,14.5l-7-1.5l7.6-36l9.5,2c7.1,1.5,11.4,5.7,9.7,13.4
		c-1,4.6-4.5,8.6-9.4,8.4L254.3,510z M241.1,487l0.9,0.2c3.9,0.8,6.8,0.2,7.7-4.2c0.9-4.4-1.7-5.9-5.4-6.7l-1-0.2L241.1,487z"/>
	<path class="st0" d="M265.1,500.1c-0.3,3,0.6,6.5,4.1,6.9c2.2,0.2,3.8-1,4.9-2.8l6.2,1.6c-2.1,4.6-6.5,6.9-11.5,6.4
		c-7.4-0.7-11.4-6.4-10.7-13.6c0.7-7.2,5.1-12.6,12.8-11.8c7.8,0.7,10.8,6.8,10.1,14l-0.1,0.8L265.1,500.1z M274.8,496.8
		c-0.1-2.5-1.4-5-4.1-5.2c-2.7-0.3-4.4,1.9-5,4.4L274.8,496.8z"/>
	<path class="st0" d="M291.6,497.3L291.6,497.3l7.1-8.9l8.9-0.2l-9.9,10.7l11.1,13.2l-9,0.2l-8-10.1l-0.1,0l0.2,10.2l-6.8,0.1
		l-0.7-41.3l6.8-0.1L291.6,497.3z"/>
	<path class="st0" d="M334.5,496.7c1,7.3-3.3,13.3-10.8,14.3c-7.4,1-13.2-3.6-14.2-10.9c-1-7.4,3.4-13.3,10.8-14.3
		C327.8,484.8,333.5,489.3,334.5,496.7z M316.5,499.2c0.4,3.2,3,6.3,6.5,5.9c3.5-0.5,5.1-4.2,4.7-7.4c-0.4-3.3-3-6.4-6.5-5.9
		C317.7,492.2,316,495.9,316.5,499.2z"/>
	<path class="st0" d="M342,485L342,485c0.8-2.2,2.8-3.8,4.9-4.4c2.9-0.8,5.4-0.3,7.6,1.7c0.8-2.6,3-4.8,5.7-5.5
		c5.9-1.7,8.6,2.3,10,7.4l4.1,14.4l-6.6,1.9l-3.4-12.1c-0.6-2.3-1.7-6.5-4.9-5.5c-3.6,1-2.1,5.8-1.5,8.2l3.2,11.3l-6.6,1.9
		l-3.3-11.7c-0.6-2.3-1.7-6.9-5.1-6c-3.7,1-2.1,5.8-1.4,8.2l3.2,11.3l-6.6,1.9l-6.5-23l6.6-1.9L342,485z"/>
	<path class="st0" d="M377.6,473.4L377.6,473.4c0.5-2.3,2.1-4.3,4.1-5.2c2.7-1.3,5.3-1.2,7.8,0.4c0.3-2.7,2.2-5.2,4.7-6.4
		c5.5-2.6,8.8,0.9,11.1,5.6l6.4,13.5l-6.2,2.9l-5.4-11.4c-1-2.1-2.7-6.1-5.8-4.7c-3.3,1.6-1.2,6.1-0.1,8.4l5,10.6l-6.2,2.9l-5.2-11
		c-1-2.1-2.8-6.6-6-5c-3.4,1.6-1.1,6,0,8.3l5,10.6l-6.2,2.9l-10.3-21.6l6.2-2.9L377.6,473.4z"/>
	<path class="st0" d="M416.2,465.4c1.7,2.5,4.5,4.7,7.5,2.8c1.9-1.2,2.3-3.1,2-5.2l5.8-2.6c1.2,4.9-0.8,9.4-5,12.2
		c-6.2,4.1-12.9,2.1-16.9-3.9c-4-6.1-3.9-13,2.6-17.2c6.6-4.3,12.7-1.4,16.6,4.7l0.5,0.7L416.2,465.4z M421.6,456.8
		c-1.6-1.9-4.2-3-6.4-1.6c-2.3,1.5-2.3,4.3-1.2,6.5L421.6,456.8z"/>
	<path class="st0" d="M430.9,441.6L430.9,441.6c-0.2-2.6,1.1-4.8,3-6.3c5-4.1,9.3-1.8,12.8,2.5l9.3,11.3l-5.3,4.3l-8.1-9.8
		c-1.8-2.2-4.1-5.2-7-2.7c-3.1,2.6-0.3,6.1,1.6,8.3l7.6,9.1l-5.3,4.4l-15.3-18.5l5.3-4.3L430.9,441.6z"/>
	<path class="st0" d="M470.5,431.3L470.5,431.3c0.4,2.4-0.6,5-2.3,6.8c-4.8,5.1-12.2,3.6-16.9-0.9c-4.6-4.4-6.3-11.6-1.6-16.6
		c1.7-1.8,4.2-2.9,6.7-2.7l0.1-0.1l-14.2-13.5l4.7-4.9l29.9,28.5l-4.7,4.9L470.5,431.3z M463.9,424.1c-2.3-2.2-6.3-3.1-8.7-0.5
		c-2.4,2.5-1.4,6.5,0.9,8.7c2.3,2.2,6.4,3.1,8.8,0.6C467.3,430.3,466.2,426.3,463.9,424.1z"/>
	<path class="st0" d="M475.9,411.6c2.4,1.8,5.8,2.9,8,0.1c1.3-1.8,1.1-3.7,0.2-5.6l4.6-4.4c2.8,4.2,2.4,9.2-0.6,13.2
		c-4.5,5.9-11.4,6.4-17.2,2c-5.8-4.4-8-10.9-3.4-17.1c4.7-6.3,11.5-5.6,17.2-1.2l0.7,0.5L475.9,411.6z M478.2,401.6
		c-2.2-1.2-5-1.4-6.6,0.7c-1.6,2.2-0.7,4.8,1.1,6.6L478.2,401.6z"/>
	<path class="st0" d="M482.2,384L482.2,384c-1-2.3-0.9-4.7,0.4-6.9c0.5-0.8,1.2-1.5,2-2.1l5,4c-0.9,0.4-1.7,1.1-2.2,1.9
		c-2.5,4,0.8,6.6,4,8.6l9.2,5.6l-3.6,5.8l-20.4-12.5l3.6-5.8L482.2,384z"/>
	<path class="st0" d="M517.2,363.5l-2.9,6.1l-2-1l0,0.1c1.1,2.1,0.9,4.9-0.1,7.1c-3,6.3-10.5,7.1-16.4,4.3
		c-5.7-2.8-9.6-9.1-6.6-15.3c1.1-2.2,3.1-4.1,5.6-4.7l-2-1l2.9-6.1L517.2,363.5z M503.7,363.7c-2.9-1.4-7-0.9-8.5,2.2
		c-1.5,3.2,0.7,6.6,3.6,8c2.9,1.4,7,1,8.5-2.2C508.9,368.6,506.6,365.1,503.7,363.7z"/>
	<path class="st0" d="M522.8,341.3L522.8,341.3c1.4,2.1,1.6,4.8,0.7,7.2c-2.3,6.6-9.6,8.4-15.7,6.3c-6-2-10.6-7.9-8.4-14.4
		c0.8-2.4,2.6-4.4,4.9-5.2l0-0.1l-18.5-6.3l2.2-6.5l39.1,13.4L525,342L522.8,341.3z M513.8,337.5c-3-1-7-0.1-8.1,3.2
		c-1.1,3.3,1.4,6.5,4.5,7.5c3,1,7.1,0.1,8.2-3.2C519.5,341.7,516.9,338.5,513.8,337.5z"/>
	<path class="st0" d="M535.9,290.5l-1,6.7l-2.2-0.3l0,0.1c1.7,1.7,2.4,4.4,2,6.8c-1,6.9-7.9,10-14.3,9.1
		c-6.3-0.9-11.9-5.8-10.9-12.6c0.4-2.5,1.8-4.8,3.9-6.2l-2.2-0.3l1-6.7L535.9,290.5z M523.2,294.7c-3.2-0.5-6.9,1.2-7.4,4.7
		c-0.5,3.5,2.6,6.1,5.8,6.6c3.2,0.5,7-1.2,7.5-4.6C529.5,297.9,526.4,295.2,523.2,294.7z"/>
	<path class="st0" d="M526.3,273.3l-13.4-5.3l0.2-7.5l24.1,11.8l-0.1,3.5L512.4,286l0.2-7.5L526.3,273.3z"/>
</g>
</svg>
