<?xml version="1.0" encoding="utf-8"?>
<!-- Generator: Adobe Illustrator 19.2.1, SVG Export Plug-In . SVG Version: 6.00 Build 0)  -->
<svg version="1.1" id="Layer_1" xmlns="http://www.w3.org/2000/svg" xmlns:xlink="http://www.w3.org/1999/xlink" x="0px" y="0px"
	 viewBox="0 0 553.1 560.6" style="enable-background:new 0 0 553.1 560.6;" xml:space="preserve">
<style type="text/css">
	.st0{fill:#2DA249;}
	.st1{fill:#FFFFFF;}
	.st2{fill:#231F20;}
</style>
<g id="XMLID_2_">
	<g id="XMLID_3_">
		<g id="rOGkCL.tif_1_">
			<g id="Layer_0_1_">
				<polygon class="st0" points="19.5,156.9 19.5,415.1 277.7,415.1 277.7,156.9 19.5,156.9 				"/>
				<path class="st1" d="M173.6,179.6c13.7-0.9,27.6,1.7,40.1,7.5c29.4,13.7,47.7,43.6,47.7,75.2c0,5.7-0.6,11.5-1.9,17.3
					c0,0.1,0,0.3,0,0.4c-0.2,0.9-1.1,1.5-2,1.4c-0.9-0.1-1.6-0.9-1.5-1.9c2-37.7-23.1-71.1-59.9-79.6c0,0-9.6-1.6-9.7-1.6
					c-3.7-0.4-7.5-0.5-11.2-0.3l1.4,15.6l-26.8-22.5l22.5-26.8L173.6,179.6L173.6,179.6z"/>
				<path class="st1" d="M180.1,278.9l22-26l-22.7,22.6c-1.7-7.3-5-14.2-9.7-20.2c2.8-5.1,6.3-9.9,10.6-14.2
					c14.1-14.1,33.2-20,51.5-17.9c2.1,18.3-3.8,37.4-17.9,51.5c-9.4,9.4-21.1,15.2-33.4,17.3c0.1-1.6,0.3-3.2,0.3-4.8
					C180.8,284.4,180.6,281.6,180.1,278.9L180.1,278.9z"/>
				<path class="st1" d="M171.3,293c-12.3,0.3-24.8-4.2-34.2-13.6c-10.5-10.5-15-24.8-13.4-38.5c13.7-1.6,28,2.9,38.5,13.4
					c10.5,10.5,15,24.8,13.4,38.5l-29.7-29.7L171.3,293L171.3,293z"/>
				<polygon class="st1" points="63.2,200 52.3,197.5 49,208.2 45.7,197.5 34.8,200 42.5,191.8 34.8,183.6 45.7,186.1 49,175.5 
					52.3,186.1 63.2,183.6 55.5,191.8 63.2,200 				"/>
				<polygon class="st1" points="63.2,237.1 52.3,234.6 49,245.3 45.7,234.6 34.8,237.1 42.5,229 34.8,220.8 45.7,223.3 49,212.6 
					52.3,223.3 63.2,220.8 55.5,229 63.2,237.1 				"/>
				<path class="st1" d="M94.6,262.4c-0.2-2.4-0.3-4.7-0.3-7.1c0-35.5,23.3-67.9,57.6-78.9c0.1,0,0.2-0.1,0.3-0.1
					c0.9-0.3,1.8,0.2,2.2,1c0.4,0.9,0,1.9-0.8,2.3c-33.6,17.1-50,55.6-39,91.7c0,0,3.4,9.1,3.4,9.1c1.5,3.4,3.3,6.7,5.3,9.7
					l12.1-8.5l-6.1,34.4L94.9,310l13.2-9.2C100.5,289.3,95.8,276.1,94.6,262.4L94.6,262.4z"/>
				<path class="st1" d="M218.9,328.6c-31.4,22-74.7,19.2-103-6.6c0,0,0,0,0,0c0,0,0,0,0,0c-0.1-0.1-0.2-0.1-0.2-0.2
					c-0.4-0.4-0.6-0.8-0.6-1.3c0-0.4,0.1-0.8,0.4-1.1c0.6-0.7,1.6-0.9,2.4-0.4c31.6,20.6,73.2,15.5,98.9-12.1c0,0,6.2-7.5,6.2-7.6
					c2.2-3,4.1-6.2,5.8-9.5l-14.5-6.8l32.8-12l11.9,32.8l-13.5-6.3C239.4,310,230.2,320.7,218.9,328.6L218.9,328.6z"/>
				<path class="st1" d="M233.3,378.6c-1.9,0-2.2,3-2.2,4.6v0.8h4.4v-0.6C235.5,381.7,235.2,378.6,233.3,378.6L233.3,378.6z
					 M262.7,399.5h-6v-2.9h-0.1c-0.8,2-2.1,3.4-4,3.4c-4.9,0-5.9-9.4-5.9-13.5c0-4.5,0.7-13.5,5.8-13.5c2,0,3.4,1.6,4.1,3.7h0.1
					v-18.7h6V399.5L262.7,399.5z M240.6,388.5H231c0,1.9,0,6,2.3,6c1.5,0,1.9-1.4,1.9-3h5.1c-0.5,4.8-2.4,8.5-6.9,8.5
					c-6.1,0-8.3-6.5-8.3-12.9c0-6.2,1.9-14,8.2-14c4,0,7.7,4.3,7.3,12.4L240.6,388.5L240.6,388.5z M218.9,391c0,5.1-2.5,9.1-6.9,9.1
					c-2.3,0-4.7-1.2-6.5-3l2.7-5.1c0.9,0.9,1.8,1.7,3,1.7c0.9,0,1.8-0.8,1.8-2.2c0.1-3.4-6.9-2.6-6.9-10.8c0-4.9,3.4-7.6,7.2-7.6
					c2.2,0,4,0.7,5.8,2.2l-2.4,5.3c-0.9-0.9-1.7-1.7-2.9-1.7c-1.1,0-1.6,0.8-1.6,1.9C212.1,383.8,218.9,383.2,218.9,391L218.9,391z
					 M199,399.5h-6v-2.9h-0.1c-0.8,2-2.1,3.4-4,3.4c-4.9,0-5.9-9.4-5.9-13.5c0-4.5,0.7-13.5,5.8-13.5c2,0,3.4,1.6,4.1,3.7h0.1v-3.2
					h6V399.5L199,399.5z M171.2,400.1c-2,0-3.2-1.5-4-3.4h-0.1v2.9h-6v-41.5h6v18.7h0.1c0.7-2.1,2.1-3.7,4-3.7c5.1,0,5.8,9,5.8,13.5
					C177,390.7,176.1,400.1,171.2,400.1L171.2,400.1z M146.5,400.1c-6.5,0-8.2-6.8-8.2-13.5s1.8-13.5,8.2-13.5
					c6.5,0,8.2,6.9,8.2,13.5S152.9,400.1,146.5,400.1L146.5,400.1z M128.9,370.5c-2.1,0-3.8-2.1-3.8-4.7c0-2.6,1.8-4.6,3.9-4.6
					c2.1,0,3.7,2.2,3.7,4.7C132.7,368.4,131,370.5,128.9,370.5L128.9,370.5z M131.9,399.5h-6v-26h6V399.5L131.9,399.5z M113.7,400.1
					c-2,0-3.2-1.5-4-3.4h-0.1v2.9h-6v-41.5h6v18.7h0.1c0.7-2.1,2.1-3.7,4-3.7c5.1,0,5.8,9,5.8,13.5
					C119.5,390.7,118.6,400.1,113.7,400.1L113.7,400.1z M76.7,399.5l-5.9-19.7h-0.1v19.7h-6.4v-38.8h6.4v17.3h0.1l5.3-17.3h6.5
					l-6,17.9l6.7,20.9H76.7L76.7,399.5z M45.9,400.2c-5.7,0-11.3-5.4-11.3-20c0-14.5,5.7-20,11.3-20c5.7,0,11.3,5.4,11.3,20
					C57.2,394.7,51.6,400.2,45.9,400.2L45.9,400.2z M191.2,379.5c-2,0-2.1,5.4-2.1,6.9c0,1.6,0.1,7,2.2,7c1.9,0,2.1-5.6,2.1-7
					C193.4,385,193.2,379.5,191.2,379.5L191.2,379.5z M254.9,379.5c-2,0-2.1,5.4-2.1,6.9c0,1.6,0.1,7,2.2,7c1.9,0,2.1-5.6,2.1-7
					C257.1,385,256.9,379.5,254.9,379.5L254.9,379.5z M111.4,379.5c-2.1,0-2.1,5.5-2.1,6.9c0,1.4,0.1,7,2.1,7c2,0,2.2-5.3,2.2-7
					C113.5,385,113.3,379.5,111.4,379.5L111.4,379.5z M168.8,379.5c-2.1,0-2.1,5.5-2.1,6.9c0,1.4,0.1,7,2.1,7c2.1,0,2.2-5.3,2.2-7
					C171,385,170.8,379.5,168.8,379.5L168.8,379.5z M146.5,379.6c-2.1,0-2.2,5.5-2.2,7c0,1.5,0.1,7,2.2,7c2.1,0,2.2-5.5,2.2-7
					C148.7,385.1,148.6,379.6,146.5,379.6L146.5,379.6z M45.9,367.3c-4.2,0-4.5,9.5-4.5,12.9c0,3.1,0.3,12.9,4.5,12.9
					c4.2,0,4.5-9.8,4.5-12.9C50.4,376.7,50.1,367.3,45.9,367.3L45.9,367.3z"/>
				<polygon points="277.7,156.9 277.7,415.1 534,415.1 534,156.9 277.7,156.9 				"/>
				<polygon class="st1" points="525.5,406.6 286.2,406.6 286.2,337.5 525.5,337.5 525.5,406.6 				"/>
				<polygon class="st1" points="525.5,329.4 286.2,329.4 286.2,165.5 525.5,165.5 525.5,329.4 				"/>
				<polygon points="342.1,352.8 334.4,352.8 334.4,386.6 342.1,386.6 342.1,352.8 				"/>
				<path d="M391.8,309.8c9.4,0,16-4,19.1-9.1l69.9-113.9H436l-10.6,17.5l-42.1,69.8l-4.4-7.7l8.8-14.6l-18.1-30h-44.8l48.2,78.9
					C376.1,305.8,382.4,309.8,391.8,309.8L391.8,309.8z"/>
				<polygon points="318.8,387 330.9,352.8 322.6,352.8 316.2,373.9 309.8,352.8 301.5,352.8 313.5,387 318.8,387 				"/>
				<path d="M418.4,359.4c4.8,0,5.6,3.5,5.6,10.3c0,6.9-0.7,10.3-5.6,10.3c-4.8,0-5.5-3.5-5.5-10.3
					C412.9,362.9,413.6,359.4,418.4,359.4L418.4,359.4z M418.4,387.4c11.8,0,13.4-8.9,13.4-17.7c0-8.8-1.6-17.7-13.4-17.7
					c-11.8,0-13.4,8.9-13.4,17.7C405.1,378.6,406.7,387.4,418.4,387.4L418.4,387.4z"/>
				<path d="M391.3,387.4c3.9,0,7.5-0.4,10-1.5v-8c-4.7,1.9-7.5,2.1-10,2.1c-4.6,0-6.2-4.1-6.2-10.3c0-6.2,1.6-10.3,6.2-10.3
					c2.5,0,5.2,0.1,10,2.1v-8c-2.5-1.1-6.1-1.5-10-1.5c-10.6,0-14,7.2-14,17.7C377.3,380.2,380.7,387.4,391.3,387.4L391.3,387.4z"/>
				<polygon points="441.4,386.6 449.1,386.6 449.1,360.2 457.2,360.2 457.2,352.8 433.3,352.8 433.3,360.2 441.4,360.2 
					441.4,386.6 				"/>
				<polygon points="355.1,368.4 366.8,386.6 372.8,386.6 372.8,352.8 365.3,352.8 365.4,371 353.7,352.8 347.7,352.8 347.7,386.6 
					355.2,386.6 355.1,368.4 				"/>
				<polygon points="387.1,398.3 400.9,398.3 400.9,391.2 387.1,391.2 387.1,398.3 				"/>
				<polygon points="509.2,379.2 495.1,379.2 495.1,372.9 507.9,372.9 507.9,365.5 495.1,365.5 495.1,360.2 509.2,360.2 
					509.2,352.8 487.5,352.8 487.5,386.6 509.2,386.6 509.2,379.2 				"/>
				<polygon points="467.8,386.6 475.5,386.6 475.5,360.2 483.6,360.2 483.6,352.8 459.7,352.8 459.7,360.2 467.8,360.2 
					467.8,386.6 				"/>
				<path class="st2" d="M450.8,318.8l2.8-0.2c0.1,1.1,0.4,2.1,0.9,2.8c0.5,0.7,1.2,1.3,2.3,1.8c1,0.4,2.2,0.7,3.4,0.7
					c1.1,0,2.1-0.2,3-0.5c0.9-0.3,1.5-0.8,1.9-1.4c0.4-0.6,0.6-1.2,0.6-1.9c0-0.7-0.2-1.3-0.6-1.8c-0.4-0.5-1.1-1-2-1.3
					c-0.6-0.2-1.9-0.6-4-1.1c-2.1-0.5-3.5-1-4.3-1.4c-1.1-0.6-1.9-1.3-2.4-2.1c-0.5-0.8-0.8-1.8-0.8-2.8c0-1.1,0.3-2.2,1-3.2
					c0.6-1,1.6-1.7,2.8-2.3c1.2-0.5,2.6-0.8,4.1-0.8c1.7,0,3.1,0.3,4.4,0.8c1.3,0.5,2.3,1.3,2.9,2.4c0.7,1,1.1,2.2,1.1,3.6l-2.9,0.2
					c-0.2-1.4-0.7-2.5-1.6-3.2c-0.9-0.7-2.2-1.1-3.9-1.1c-1.8,0-3.1,0.3-3.9,1c-0.8,0.7-1.2,1.5-1.2,2.4c0,0.8,0.3,1.5,0.9,2
					c0.6,0.5,2.1,1.1,4.5,1.6c2.4,0.5,4.1,1,5,1.4c1.3,0.6,2.3,1.4,2.9,2.3c0.6,0.9,0.9,2,0.9,3.2c0,1.2-0.3,2.3-1,3.4
					c-0.7,1.1-1.7,1.9-3,2.5c-1.3,0.6-2.7,0.9-4.3,0.9c-2,0-3.7-0.3-5.1-0.9c-1.4-0.6-2.5-1.5-3.2-2.7
					C451.3,321.6,450.9,320.3,450.8,318.8L450.8,318.8z"/>
				<path class="st2" d="M480.6,318.1v-10.2l-7.1,10.2H480.6L480.6,318.1z M480.6,326.1v-5.4h-9.8v-2.6l10.3-14.6h2.3v14.6h3v2.6h-3
					v5.4H480.6L480.6,326.1z"/>
				<path class="st2" d="M501.1,310.8c0-1.6-0.4-2.8-1.3-3.8c-0.8-0.9-1.9-1.4-3.1-1.4c-1.2,0-2.3,0.5-3.2,1.5
					c-0.9,1-1.4,2.3-1.4,3.9c0,1.4,0.4,2.6,1.3,3.5c0.9,0.9,1.9,1.3,3.2,1.3s2.3-0.4,3.2-1.3C500.7,313.7,501.1,312.4,501.1,310.8
					L501.1,310.8z M489.7,320.8l2.7-0.2c0.2,1.2,0.7,2.1,1.3,2.7c0.6,0.6,1.4,0.8,2.4,0.8c0.8,0,1.6-0.2,2.2-0.6
					c0.6-0.4,1.2-0.9,1.6-1.6c0.4-0.7,0.7-1.5,1-2.6c0.3-1.1,0.4-2.2,0.4-3.4c0-0.1,0-0.3,0-0.6c-0.6,0.9-1.3,1.6-2.3,2.2
					c-1,0.5-2,0.8-3.1,0.8c-1.9,0-3.5-0.7-4.7-2c-1.3-1.4-1.9-3.1-1.9-5.4c0-2.3,0.7-4.1,2-5.5c1.4-1.4,3-2.1,5.1-2.1
					c1.5,0,2.8,0.4,4,1.2c1.2,0.8,2.1,1.9,2.8,3.4c0.6,1.5,0.9,3.6,0.9,6.4c0,2.9-0.3,5.2-0.9,6.9c-0.6,1.7-1.6,3-2.8,3.9
					c-1.2,0.9-2.7,1.3-4.3,1.3c-1.8,0-3.2-0.5-4.3-1.5C490.6,324,490,322.6,489.7,320.8L489.7,320.8z"/>
				<path class="st2" d="M509.7,314.9c0,3.7,0.4,6.2,1.3,7.4c0.9,1.2,1.9,1.8,3.2,1.8c1.3,0,2.3-0.6,3.2-1.8
					c0.9-1.2,1.3-3.7,1.3-7.4c0-3.7-0.4-6.2-1.3-7.4c-0.9-1.2-1.9-1.8-3.2-1.8c-1.3,0-2.3,0.5-3,1.6
					C510.2,308.7,509.7,311.2,509.7,314.9L509.7,314.9z M506.9,314.9c0-2.7,0.3-4.8,0.8-6.5c0.6-1.6,1.4-2.9,2.5-3.8
					c1.1-0.9,2.4-1.3,4.1-1.3c1.2,0,2.3,0.2,3.2,0.7c0.9,0.5,1.7,1.2,2.3,2.1c0.6,0.9,1.1,2,1.4,3.4c0.3,1.3,0.5,3.1,0.5,5.3
					c0,2.6-0.3,4.8-0.8,6.4c-0.5,1.6-1.4,2.9-2.4,3.8c-1.1,0.9-2.5,1.3-4.1,1.3c-2.2,0-3.9-0.8-5.1-2.3
					C507.6,322.2,506.9,319.1,506.9,314.9L506.9,314.9z"/>
			</g>
		</g>
	</g>
</g>
</svg>
