<?xml version="1.0" encoding="utf-8"?>
<!-- Generator: Adobe Illustrator 19.2.1, SVG Export Plug-In . SVG Version: 6.00 Build 0)  -->
<svg version="1.1" id="Layer_1" xmlns="http://www.w3.org/2000/svg" xmlns:xlink="http://www.w3.org/1999/xlink" x="0px" y="0px"
	 viewBox="0 0 1106.2 560.6" style="enable-background:new 0 0 1106.2 560.6;" xml:space="preserve">
<style type="text/css">
	.st0{fill:#231F20;}
	.st1{fill:#FFCB31;}
	.st2{fill:#1A76B2;}
	.st3{fill:none;}
	.st4{font-family:'FuturaStd-Book';}
	.st5{font-size:46.9387px;}
	.st6{font-size:49.1738px;}
	.st7{letter-spacing:-3;}
	.st8{font-size:45.5976px;}
	.st9{letter-spacing:-1;}
</style>
<g>
	<path class="st0" d="M32.6,169.7h-7.4v-59.3H9.3v-6.8h39.5v6.8H32.6C32.6,110.4,32.6,169.7,32.6,169.7z"/>
	<path class="st0" d="M121.9,136.8c0,19-15.5,34.1-34.5,34.1c-18.8,0-34.5-15.1-34.5-34.1s15.7-34.3,34.5-34.3
		C106.2,102.5,121.9,117.8,121.9,136.8z M60.3,136.6c0,14.9,12.2,27.3,27.1,27.3c15.1,0,27.1-12.4,27.1-27.3s-12-27.3-27.1-27.3
		S60.3,121.8,60.3,136.6z"/>
	<path class="st0" d="M139.2,169.7H132v-66.1h11c5.8,0,11.6,0.2,16.3,3.5c5,3.5,7.4,9.3,7.4,15.1c0,5.4-2.3,10.7-6.2,14.3
		c-4.5,3.7-10.1,4.3-15.7,4.3h-5.6V169.7z M139.2,133.9h5c8.1,0,15.1-2.5,15.1-12c0-10.7-8.7-11.6-17.4-11.6h-2.7V133.9z"/>
	<path class="st0" d="M210.3,169.7h-7.4v-66.1h9.5c12.6,0,24.2,3.3,24.2,18.2c0,10.1-6.4,17.4-16.5,18.2l21.1,29.5h-8.9l-20-28.9
		h-1.9V169.7z M210.3,134.1h2.3c8.3,0,16.7-1.7,16.7-11.8c0-11-8.1-12-16.7-12h-2.3V134.1z"/>
	<path class="st0" d="M260.5,151.1l-8.1,18.8h-8.1l30.6-69.2l29.8,69.2h-8.1l-7.9-18.8H260.5z M274.8,117.6l-11.4,26.4h22.5
		L274.8,117.6z"/>
	<path class="st0" d="M322.5,169.7h-7.4v-59.3h-15.9v-6.8h39.5v6.8h-16.1V169.7z"/>
	<path class="st0" d="M346.1,103.6h34.3v6.8h-26.9V130h26v6.8h-26v26h26.9v6.8h-34.3V103.6z"/>
	<path class="st0" d="M393,103.6h12.4c9.9,0,18,1.2,25.8,8.1c7.4,6.6,11,15.3,11,25.2c0,9.7-3.5,18.2-10.7,24.6
		c-7.9,7-15.7,8.3-26,8.3h-12.2v-66.1H393z M405.8,162.9c8.1,0,14.9-1.2,20.9-6.8c5.4-5.2,8.3-12,8.3-19.4c0-7.4-2.9-14.9-8.7-19.8
		c-6-5.4-12.8-6.4-20.5-6.4h-5.4v52.5L405.8,162.9L405.8,162.9z"/>
	<path class="st0" d="M487,169.7h-7.4v-66.1h11c5.8,0,11.6,0.2,16.3,3.5c5,3.5,7.4,9.3,7.4,15.1c0,5.4-2.3,10.7-6.4,14.3
		c-4.5,3.7-10.1,4.3-15.7,4.3h-5.4v28.9H487z M487,133.9h5c8.1,0,15.1-2.5,15.1-12c0-10.7-8.7-11.6-17.1-11.6h-2.7v23.6H487z"/>
	<path class="st0" d="M523.8,103.6H558v6.8h-26.9V130h26.2v6.8h-26.2v26H558v6.8h-34.3V103.6z"/>
	<path class="st0" d="M577.9,169.7h-7.2v-66.1h9.5c12.6,0,24.2,3.3,24.2,18.2c0,10.1-6.4,17.4-16.5,18.2l21.1,29.5h-9.1l-20-28.9
		h-1.9L577.9,169.7L577.9,169.7z M577.9,134.1h2.3c8.3,0,16.7-1.7,16.7-11.8c0-11-8.1-12-16.9-12h-2.3v23.8H577.9z"/>
	<path class="st0" d="M625.6,110.4V130h21.9v6.8h-22.1v32.9H618v-66.1h30.2v6.8H625.6z"/>
	<path class="st0" d="M725.8,136.8c0,19-15.7,34.1-34.5,34.1c-18.8,0-34.5-15.1-34.5-34.1s15.5-34.3,34.5-34.3
		C710.1,102.5,725.8,117.8,725.8,136.8z M664.2,136.6c0,14.9,12.2,27.3,27.1,27.3c15.1,0,27.1-12.4,27.1-27.3s-12-27.3-27.1-27.3
		C676,109.4,664.2,121.8,664.2,136.6z"/>
	<path class="st0" d="M743.2,169.7h-7.4v-66.1h9.5c12.6,0,24.2,3.3,24.2,18.2c0,10.1-6.4,17.4-16.5,18.2l21.1,29.5h-9.1l-20-28.9
		H743v29.1H743.2z M743.2,134.1h2.3c8.3,0,16.7-1.7,16.7-11.8c0-11-8.1-12-16.9-12H743v23.8H743.2z"/>
	<path class="st0" d="M791.9,99.9l24,55.6l24.2-55.6l13.4,69.8h-7.4l-8.5-44.6h-0.2l-21.3,47.5l-21.3-47.5h-0.2l-8.5,44.6h-7.6
		L791.9,99.9z"/>
	<path class="st0" d="M871.9,151.1l-8.1,18.8h-8.1l30.6-69.2l29.8,69.2h-8.3l-7.6-18.8H871.9z M886.2,117.6l-11.4,26.4h22.3
		L886.2,117.6z"/>
	<path class="st0" d="M923.8,100.9l51.7,54.1v-51.2h7.4V173l-51.7-53.9v50.8h-7.4V100.9z"/>
	<path class="st0" d="M1046.9,118c-5.4-5.4-12.6-8.7-20.2-8.7c-14.7,0-26.7,12.8-26.7,27.3c0,14.7,12,27.3,26.9,27.3
		c7.4,0,14.7-3.5,20-8.9v9.1c-5.8,4.1-12.8,6.4-19.6,6.4c-18.6,0-34.5-15.1-34.5-33.9c0-19,15.5-34.5,34.5-34.5
		c7.4,0,13.8,2.1,19.6,6.6V118z"/>
	<path class="st0" d="M1059.5,103.6h34.3v6.8h-26.9V130h26.2v6.8h-26.2v26h26.9v6.8h-34.3V103.6z"/>
</g>
<g>
	<polygon class="st1" points="386.5,211 402.8,248.7 443.8,252.5 412.8,279.7 421.9,319.9 386.5,298.9 350.9,319.9 360,279.7 
		329.1,252.5 370,248.7 	"/>
	<polygon class="st1" points="548.5,211 565,248.7 606,252.5 575,279.7 584.1,319.9 548.5,298.9 513.1,319.9 522.2,279.7 
		491.3,252.5 532.2,248.7 	"/>
	<polygon class="st1" points="710.7,211 727.2,248.7 768.1,252.5 737.2,279.7 746.3,319.9 710.7,298.9 675.3,319.9 684.2,279.7 
		653.4,252.5 694.4,248.7 	"/>
	<polygon class="st1" points="872.9,211 889.4,248.7 930.3,252.5 899.4,279.7 908.5,319.9 872.9,298.9 837.5,319.9 846.4,279.7 
		815.6,252.5 856.6,248.7 	"/>
	<polygon class="st1" points="1035.1,211 1051.6,248.7 1092.5,252.5 1061.6,279.7 1070.7,319.9 1035.1,298.9 999.7,319.9 
		1008.6,279.7 977.8,252.5 1018.8,248.7 	"/>
</g>
<g>
	<path class="st0" d="M343.7,395.6h-3.5v-28.7h-7.4v-3.3h18.5v3.3h-7.6V395.6z"/>
	<path class="st0" d="M349.6,385.7c0-5.8,4.5-10.6,10.2-10.6s10.2,4.7,10.2,10.6s-4.5,10.5-10.2,10.5S349.6,391.5,349.6,385.7z
		 M352.8,385.6c0,4.1,2.8,7.4,6.8,7.4c4.1,0,6.8-3.3,6.8-7.4c0-4.1-2.8-7.4-6.8-7.4C355.6,378.3,352.8,381.6,352.8,385.6z"/>
	<path class="st0" d="M410.2,380.3c-0.4-1-1.5-2-2.6-2s-2.3,0.9-2.3,2.2c0,1.9,2.2,2.5,4.5,3.5c2.3,1,4.5,2.3,4.5,5.7
		c0,3.8-2.9,6.6-6.6,6.6c-3.2,0-5.8-1.9-6.8-5.1l2.9-1.3c0.9,1.9,1.7,3.2,3.9,3.2c1.7,0,3.1-1.2,3.1-3.1c0-4.5-8.7-2.9-8.7-9.2
		c0-3.3,2.6-5.7,5.8-5.7c2.2,0,4.2,1.6,5.1,3.6L410.2,380.3z"/>
	<path class="st0" d="M421.3,386.3c0,3.6,2.6,6.7,6.4,6.7c2.8,0,4.7-1.7,5.8-4.1l2.8,1.6c-1.9,3.5-5,5.5-8.9,5.5
		c-5.8,0-9.5-4.5-9.5-10.3s3.3-10.8,9.3-10.8c6.3,0,9.5,5.2,9.2,11.2h-15.1V386.3z M432.9,383.5c-0.4-2.9-2.8-5.2-5.7-5.2
		c-2.8,0-5.5,2.3-5.8,5.2H432.9z"/>
	<path class="st0" d="M443.3,386.3c0,3.6,2.6,6.7,6.4,6.7c2.8,0,4.7-1.7,5.8-4.1l2.8,1.6c-1.9,3.5-5,5.5-8.9,5.5
		c-5.8,0-9.5-4.5-9.5-10.3s3.3-10.8,9.3-10.8c6.3,0,9.5,5.2,9.2,11.2h-15.1V386.3z M455.1,383.5c-0.4-2.9-2.8-5.2-5.7-5.2
		s-5.5,2.3-5.8,5.2H455.1z"/>
	<path class="st0" d="M497.4,389.2l6-15l6.1,15l5.8-13.5h3.8l-9.6,21.4l-6-14.9l-6,14.9l-9.5-21.4h3.8L497.4,389.2z"/>
	<path class="st0" d="M526.3,360.7V378l0.1,0.1c1.3-1.9,3.1-2.9,5.5-2.9c5.4,0,6.6,3.9,6.6,8.6v11.8h-3.3v-11.2
		c0-3.2-0.3-6.1-4.1-6.1c-4.5,0-4.8,4.4-4.8,7.9v9.5H523v-34.9L526.3,360.7L526.3,360.7z"/>
	<path class="st0" d="M563.1,395.6h-3.3v-2.8h-0.1c-1.7,2.2-3.9,3.3-6.7,3.3c-5.7,0-9.3-5-9.3-10.5c0-5.7,3.5-10.6,9.3-10.6
		c2.6,0,5,1.3,6.7,3.3h0.1v-2.9h3.3V395.6z M547.2,385.4c0,3.9,2.2,7.6,6.4,7.6s6.4-3.5,6.4-7.6c0-3.9-2.5-7.3-6.6-7.3
		C549.7,378.3,547.2,381.6,547.2,385.4z"/>
	<path class="st0" d="M573.3,395.6h-3.3v-16.7h-2v-3.2h2v-7.1h3.3v7.1h3.5v3.2h-3.5V395.6z"/>
	<path class="st0" d="M606,385.7c0-5.8,4.5-10.6,10.2-10.6c5.7,0,10.2,4.7,10.2,10.6s-4.5,10.5-10.2,10.5
		C610.6,396.2,606,391.5,606,385.7z M609.4,385.6c0,4.1,2.8,7.4,6.8,7.4c4.1,0,6.8-3.3,6.8-7.4c0-4.1-2.8-7.4-6.8-7.4
		C612.2,378.3,609.4,381.6,609.4,385.6z"/>
	<path class="st0" d="M635,395.6h-3.3v-16.7h-2v-3.2h2v-7.1h3.3v7.1h3.5v3.2H635V395.6z"/>
	<path class="st0" d="M645.5,360.7V378l0.1,0.1c1.3-1.9,3.1-2.9,5.5-2.9c5.4,0,6.6,3.9,6.6,8.6v11.8h-3.3v-11.2
		c0-3.2-0.3-6.1-4.1-6.1c-4.5,0-4.8,4.4-4.8,7.9v9.5h-3.3v-34.9L645.5,360.7L645.5,360.7z"/>
	<path class="st0" d="M666.3,386.3c0,3.6,2.6,6.7,6.4,6.7c2.8,0,4.7-1.7,5.8-4.1l2.8,1.6c-1.9,3.5-5,5.5-8.9,5.5
		c-5.8,0-9.5-4.5-9.5-10.3s3.3-10.8,9.3-10.8c6.3,0,9.5,5.2,9.2,11.2h-15.1V386.3z M678,383.5c-0.4-2.9-2.8-5.2-5.7-5.2
		c-2.9,0-5.5,2.3-5.8,5.2H678z"/>
	<path class="st0" d="M689.8,377.9L689.8,377.9c1.2-1.6,2.2-2.8,4.4-2.8c1.2,0,2,0.4,2.9,0.9l-1.6,3.1c-0.7-0.4-1.2-0.9-2-0.9
		c-3.6,0-3.8,4.8-3.8,7.4v9.9h-3.3v-19.9h3.3v2.3H689.8z"/>
	<path class="st0" d="M731.5,378.6L731.5,378.6c1.7-2.2,4.1-3.3,6.7-3.3c5.7,0,9.3,5.1,9.3,10.6c0,5.7-3.5,10.5-9.3,10.5
		c-2.6,0-5.1-1.2-6.7-3.3h-0.1v14h-3.1v-31.2h3.3v2.8H731.5z M731.4,385.4c0,3.9,2.2,7.6,6.4,7.6s6.4-3.5,6.4-7.6
		c0-3.9-2.5-7.3-6.6-7.3C733.9,378.3,731.4,381.6,731.4,385.4z"/>
	<path class="st0" d="M770.6,395.6h-3.3v-2.8h-0.1c-1.7,2.2-3.9,3.3-6.7,3.3c-5.7,0-9.3-5-9.3-10.5c0-5.7,3.5-10.6,9.3-10.6
		c2.6,0,5,1.3,6.6,3.3h0.1v-2.9h3.3v20.1H770.6z M754.7,385.4c0,3.9,2.2,7.6,6.4,7.6s6.4-3.5,6.4-7.6c0-3.9-2.5-7.3-6.6-7.3
		C757.2,378.3,754.7,381.6,754.7,385.4z"/>
	<path class="st0" d="M780.5,377.9L780.5,377.9c1.2-1.6,2.2-2.8,4.4-2.8c1.2,0,2,0.4,2.9,0.9l-1.6,3.1c-0.7-0.4-1.2-0.9-2-0.9
		c-3.6,0-3.8,4.8-3.8,7.4v9.9H777v-19.9h3.3v2.3H780.5z"/>
	<path class="st0" d="M793.4,386.3c0,3.6,2.6,6.7,6.4,6.7c2.8,0,4.7-1.7,5.8-4.1l2.8,1.6c-1.9,3.5-5,5.5-8.9,5.5
		c-5.8,0-9.5-4.5-9.5-10.3s3.3-10.8,9.3-10.8c6.3,0,9.5,5.2,9.2,11.2h-15.1V386.3z M805.2,383.5c-0.4-2.9-2.8-5.2-5.7-5.2
		c-2.9,0-5.5,2.3-5.8,5.2H805.2z"/>
	<path class="st0" d="M817.2,378.1L817.2,378.1c1.5-1.9,3.2-2.9,5.5-2.9c5.4,0,6.6,3.9,6.6,8.6v11.8h-3.3v-11.2
		c0-3.2-0.3-6.1-4.1-6.1c-4.5,0-4.8,4.4-4.8,7.9v9.5h-3.3v-19.9h3.3v2.5H817.2z"/>
	<path class="st0" d="M839.7,395.6h-3.3v-16.7h-2v-3.2h2v-7.1h3.3v7.1h3.5v3.2h-3.5V395.6z"/>
	<path class="st0" d="M854.7,380.3c-0.4-1-1.5-2-2.6-2s-2.3,0.9-2.3,2.2c0,1.9,2.2,2.5,4.5,3.5c2.3,1,4.5,2.3,4.5,5.7
		c0,3.8-2.9,6.6-6.6,6.6c-3.2,0-5.8-1.9-6.8-5.1l2.9-1.3c0.9,1.9,1.7,3.2,3.9,3.2c1.7,0,3.1-1.2,3.1-3.1c0-4.5-8.7-2.9-8.7-9.2
		c0-3.3,2.6-5.7,5.8-5.7c2.2,0,4.2,1.6,5.1,3.6L854.7,380.3z"/>
	<path class="st0" d="M909,395.6h-3.3v-2.8h-0.1c-1.7,2.2-3.9,3.3-6.7,3.3c-5.7,0-9.3-5-9.3-10.5c0-5.7,3.5-10.6,9.3-10.6
		c2.6,0,5,1.3,6.6,3.3h0.1v-2.9h3.3v20.1H909z M893,385.4c0,3.9,2.2,7.6,6.4,7.6s6.4-3.5,6.4-7.6c0-3.9-2.5-7.3-6.6-7.3
		C895.5,378.3,893,381.6,893,385.4z"/>
	<path class="st0" d="M918.9,377.9L918.9,377.9c1.2-1.6,2.2-2.8,4.4-2.8c1.2,0,2,0.4,2.9,0.9l-1.6,3.1c-0.7-0.4-1.2-0.9-2-0.9
		c-3.6,0-3.8,4.8-3.8,7.4v9.9h-3.3v-19.9h3.3v2.3H918.9z"/>
	<path class="st0" d="M931.9,386.3c0,3.6,2.6,6.7,6.4,6.7c2.8,0,4.7-1.7,5.8-4.1l2.8,1.6c-1.9,3.5-5,5.5-8.9,5.5
		c-5.8,0-9.5-4.5-9.5-10.3s3.3-10.8,9.3-10.8c6.3,0,9.5,5.2,9.2,11.2h-15.1V386.3z M943.7,383.5c-0.4-2.9-2.8-5.2-5.7-5.2
		c-2.9,0-5.5,2.3-5.8,5.2H943.7z"/>
	<path class="st0" d="M987.5,380.3c-0.4-1-1.5-2-2.6-2s-2.3,0.9-2.3,2.2c0,1.9,2.2,2.5,4.5,3.5c2.3,1,4.5,2.3,4.5,5.7
		c0,3.8-2.9,6.6-6.6,6.6c-3.2,0-5.8-1.9-6.8-5.1l2.9-1.3c0.9,1.9,1.7,3.2,3.9,3.2c1.7,0,3.1-1.2,3.1-3.1c0-4.5-8.7-2.9-8.7-9.2
		c0-3.3,2.6-5.7,5.8-5.7c2.2,0,4.2,1.6,5.1,3.6L987.5,380.3z"/>
	<path class="st0" d="M1014.5,395.6h-3.3v-2.8h-0.1c-1.7,2.2-3.9,3.3-6.7,3.3c-5.7,0-9.3-5-9.3-10.5c0-5.7,3.5-10.6,9.3-10.6
		c2.6,0,5,1.3,6.6,3.3h0.1v-2.9h3.3v20.1H1014.5z M998.4,385.4c0,3.9,2.2,7.6,6.4,7.6s6.4-3.5,6.4-7.6c0-3.9-2.5-7.3-6.6-7.3
		C1000.9,378.3,998.4,381.6,998.4,385.4z"/>
	<path class="st0" d="M1017.9,375.7h3.8l6.8,14.3l6.3-14.3h3.8l-14.3,31.2h-3.8l6.3-13.1L1017.9,375.7z"/>
	<path class="st0" d="M1047.1,368.1c0,1.3-1,2.5-2.3,2.5s-2.3-1-2.3-2.5c0-1.3,1-2.5,2.3-2.5
		C1045.9,365.8,1047.1,366.8,1047.1,368.1z M1046.3,395.6h-3.3v-19.9h3.3V395.6z"/>
	<path class="st0" d="M1057.3,378.1L1057.3,378.1c1.5-1.9,3.2-2.9,5.5-2.9c5.4,0,6.6,3.9,6.6,8.6v11.8h-3.2v-11.2
		c0-3.2-0.3-6.1-4.1-6.1c-4.5,0-4.8,4.4-4.8,7.9v9.5h-3.3v-19.9h3.3V378.1z"/>
	<path class="st0" d="M1093.8,394.6c0,3.2,0,6-2,8.6c-1.7,2.3-4.7,3.5-7.4,3.5c-5.4,0-9.3-3.5-9.5-9.2h3.3c0,3.6,2.6,6,6.1,6
		c5.1,0,6.3-3.9,6.3-8.3v-2.3h-0.1c-1.6,2-4.1,3.3-6.7,3.3c-5.7,0-9.2-5-9.2-10.5c0-5.5,3.6-10.6,9.3-10.6c2.6,0,5,1.2,6.6,3.3h0.1
		v-2.9h3.3v19.1H1093.8z M1077.8,385.4c0,3.9,2.2,7.6,6.4,7.6c4.2,0,6.4-3.5,6.4-7.6c0-3.9-2.5-7.3-6.6-7.3
		C1080.3,378.3,1077.8,381.6,1077.8,385.4z"/>
	<path class="st0" d="M353,439.6h-3.2v-2.8h-0.1c-1.7,2.2-3.9,3.3-6.7,3.3c-5.7,0-9.3-5-9.3-10.5c0-5.7,3.5-10.6,9.3-10.6
		c2.6,0,5,1.3,6.6,3.3h0.3v-2.9h3.3v20.1H353z M337.1,429.4c0,3.9,2.2,7.6,6.4,7.6c4.2,0,6.4-3.5,6.4-7.6c0-3.9-2.5-7.3-6.6-7.3
		C339.6,422.3,337.1,425.6,337.1,429.4z"/>
	<path class="st0" d="M357.9,404.6h3.3v17.9h0.1c1.6-2.2,3.9-3.3,6.6-3.3c5.8,0,9.3,4.8,9.3,10.5c0,5.5-3.6,10.5-9.3,10.5
		c-2.6,0-5.1-1.2-6.7-3.3h-0.1v2.8h-3.3v-34.9H357.9z M361,429.4c0,3.9,2.2,7.6,6.4,7.6c4.2,0,6.4-3.5,6.4-7.6
		c0-3.9-2.5-7.3-6.6-7.3C363.5,422.3,361,425.6,361,429.4z"/>
	<path class="st0" d="M379,429.7c0-5.8,4.5-10.6,10.2-10.6s10.2,4.7,10.2,10.6c0,6-4.5,10.5-10.2,10.5
		C383.6,440.2,379,435.5,379,429.7z M382.4,429.7c0,4.1,2.8,7.4,6.8,7.4c4.1,0,6.8-3.3,6.8-7.4c0-4.1-2.8-7.4-6.8-7.4
		C385.2,422.3,382.4,425.6,382.4,429.7z"/>
	<path class="st0" d="M405.8,430.7c0,3.3,0.4,6.3,4.4,6.3s4.4-2.9,4.4-6.3v-11.1h3.3v11.5c0,5.2-1.9,9-7.7,9c-5.7,0-7.7-3.6-7.7-9
		v-11.5h3.3V430.7z"/>
	<path class="st0" d="M426.4,439.6H423v-16.7h-2v-3.2h2v-7.1h3.3v7.1h3.5v3.2h-3.5V439.6z"/>
	<path class="st0" d="M446.3,430.7c0,3.3,0.4,6.3,4.4,6.3s4.4-2.9,4.4-6.3v-11.1h3.3v11.5c0,5.2-1.9,9-7.7,9c-5.7,0-7.7-3.6-7.7-9
		v-11.5h3.3V430.7z"/>
	<path class="st0" d="M471.1,424.3c-0.4-1-1.5-2-2.6-2c-1.2,0-2.3,0.9-2.3,2.2c0,1.9,2.2,2.5,4.5,3.5c2.3,1,4.5,2.3,4.5,5.7
		c0,3.8-2.9,6.6-6.6,6.6c-3.2,0-5.8-1.9-6.8-5.1l2.9-1.3c0.9,1.9,1.7,3.2,3.9,3.2c1.7,0,3.1-1.2,3.1-3.1c0-4.5-8.7-2.9-8.7-9.2
		c0-3.3,2.6-5.7,5.8-5.7c2.2,0,4.2,1.6,5.1,3.6L471.1,424.3z"/>
	<path class="st0" d="M493.3,421.8L493.3,421.8c1.2-1.6,2.2-2.8,4.4-2.8c1.2,0,2,0.4,2.9,0.9L499,423c-0.7-0.4-1.2-0.9-2-0.9
		c-3.6,0-3.8,4.8-3.8,7.4v9.9h-3.3v-19.9h3.3v2.3H493.3z"/>
	<path class="st0" d="M504.7,430.3c0,3.6,2.6,6.7,6.4,6.7c2.8,0,4.7-1.7,5.8-4.1l2.8,1.6c-1.9,3.5-5,5.5-8.9,5.5
		c-5.8,0-9.5-4.5-9.5-10.3c0-6,3.3-10.8,9.3-10.8c6.3,0,9.5,5.2,9.2,11.2h-15.1V430.3z M516.4,427.5c-0.4-2.9-2.8-5.2-5.7-5.2
		c-2.9,0-5.5,2.3-5.8,5.2H516.4z"/>
	<path class="st0" d="M541,439.6h-3.3v-2.8l0,0c-1.7,2.2-3.9,3.3-6.7,3.3c-5.7,0-9.3-5-9.3-10.5c0-5.7,3.5-10.6,9.3-10.6
		c2.6,0,5,1.3,6.7,3.3h0.1v-2.9h3.3v20.1H541z M525.1,429.4c0,3.9,2.2,7.6,6.4,7.6s6.4-3.5,6.4-7.6c0-3.9-2.5-7.3-6.6-7.3
		C527.6,422.3,525.1,425.6,525.1,429.4z"/>
	<path class="st0" d="M560.3,436.8L560.3,436.8c-1.7,2.2-4.1,3.3-6.7,3.3c-5.7,0-9.3-5-9.3-10.5c0-5.7,3.5-10.6,9.3-10.6
		c2.6,0,5.1,1.3,6.7,3.3h0.1v-17.9h3.3v34.9h-3.3v-2.6H560.3z M547.7,429.4c0,3.9,2.2,7.6,6.4,7.6s6.4-3.5,6.4-7.6
		c0-3.9-2.5-7.3-6.6-7.3C550.1,422.3,547.7,425.6,547.7,429.4z"/>
	<path class="st0" d="M578.5,429.7c0-5.8,4.5-10.6,10.2-10.6c5.7,0,10.2,4.7,10.2,10.6c0,6-4.5,10.5-10.2,10.5
		C583,440.2,578.5,435.5,578.5,429.7z M581.9,429.7c0,4.1,2.8,7.4,6.8,7.4c4.1,0,6.8-3.3,6.8-7.4c0-4.1-2.8-7.4-6.8-7.4
		C584.6,422.3,581.9,425.6,581.9,429.7z"/>
	<path class="st0" d="M605.5,430.7c0,3.3,0.4,6.3,4.4,6.3s4.4-2.9,4.4-6.3v-11.1h3.3v11.5c0,5.2-1.9,9-7.7,9c-5.7,0-7.7-3.6-7.7-9
		v-11.5h3.3V430.7z"/>
	<path class="st0" d="M625.6,421.8L625.6,421.8c1.2-1.6,2.2-2.8,4.4-2.8c1.2,0,2,0.4,2.9,0.9l-1.6,3.1c-0.7-0.4-1.2-0.9-2-0.9
		c-3.6,0-3.8,4.8-3.8,7.4v9.9h-3.3v-19.9h3.3v2.3H625.6z"/>
	<path class="st0" d="M649.9,421.8L649.9,421.8c1.2-1.6,2.2-2.8,4.4-2.8c1.2,0,2,0.4,2.9,0.9l-1.6,3.1c-0.7-0.4-1.2-0.9-2-0.9
		c-3.6,0-3.8,4.8-3.8,7.4v9.9h-3.3v-19.9h3.3v2.3H649.9z"/>
	<path class="st0" d="M661.1,430.3c0,3.6,2.6,6.7,6.4,6.7c2.8,0,4.7-1.7,5.8-4.1l2.8,1.6c-1.9,3.5-5,5.5-8.9,5.5
		c-5.8,0-9.5-4.5-9.5-10.3c0-6,3.3-10.8,9.3-10.8c6.3,0,9.5,5.2,9.2,11.2h-15.1V430.3z M672.9,427.5c-0.4-2.9-2.8-5.2-5.7-5.2
		c-2.9,0-5.5,2.3-5.8,5.2H672.9z"/>
	<path class="st0" d="M686.1,433l5.8-13.4h3.6l-9.5,21.3l-9.5-21.3h3.8L686.1,433z"/>
	<path class="st0" d="M702.4,412.1c0,1.3-1,2.5-2.3,2.5c-1.3,0-2.3-1-2.3-2.5c0-1.3,1-2.5,2.3-2.5
		C701.3,409.7,702.4,410.8,702.4,412.1z M701.7,439.6h-3.3v-19.9h3.3V439.6z"/>
	<path class="st0" d="M709.1,430.3c0,3.6,2.6,6.7,6.4,6.7c2.8,0,4.7-1.7,5.8-4.1l2.8,1.6c-1.9,3.5-5,5.5-8.9,5.5
		c-5.8,0-9.5-4.5-9.5-10.3c0-6,3.3-10.8,9.3-10.8c6.3,0,9.5,5.2,9.2,11.2h-15.1V430.3z M720.8,427.5c-0.4-2.9-2.8-5.2-5.7-5.2
		c-2.9,0-5.5,2.3-5.8,5.2H720.8z"/>
	<path class="st0" d="M734.2,433.2l6-15l6.1,15l5.8-13.5h3.8l-9.6,21.4l-6-14.9l-6,14.9l-9.5-21.4h3.8L734.2,433.2z"/>
	<path class="st0" d="M765.8,424.3c-0.4-1-1.5-2-2.6-2c-1.2,0-2.3,0.9-2.3,2.2c0,1.9,2.2,2.5,4.5,3.5c2.3,1,4.5,2.3,4.5,5.7
		c0,3.8-2.9,6.6-6.6,6.6c-3.2,0-5.8-1.9-6.8-5.1l2.9-1.3c0.9,1.9,1.7,3.2,3.9,3.2c1.7,0,3.1-1.2,3.1-3.1c0-4.5-8.7-2.9-8.7-9.2
		c0-3.3,2.6-5.7,5.8-5.7c2.2,0,4.2,1.6,5.1,3.6L765.8,424.3z"/>
	<path class="st0" d="M802.6,439.6h-3.3v-2.8h-0.1c-1.7,2.2-3.9,3.3-6.7,3.3c-5.7,0-9.3-5-9.3-10.5c0-5.7,3.5-10.6,9.3-10.6
		c2.6,0,5,1.3,6.7,3.3h0.1v-2.9h3.3V439.6z M786.7,429.4c0,3.9,2.2,7.6,6.4,7.6s6.4-3.5,6.4-7.6c0-3.9-2.5-7.3-6.6-7.3
		C789.2,422.3,786.7,425.6,786.7,429.4z"/>
	<path class="st0" d="M811.2,439.6h-3.3v-16.7h-2v-3.2h2v-7.1h3.3v7.1h3.5v3.2h-3.5V439.6z"/>
	<path class="st0" d="M846.4,433.2l6.3-15l6.3,15l6-13.5h3.9l-9.9,21.4l-6.1-14.9l-6.1,14.9l-9.8-21.4h3.9L846.4,433.2z"/>
	<path class="st0" d="M877.6,433.2l6.3-15l6.3,15l6-13.5h3.9l-9.9,21.4l-6.1-14.9l-6.1,14.9l-9.8-21.4h3.9L877.6,433.2z"/>
	<path class="st0" d="M908.7,433.2l6.3-15l6.3,15l6-13.5h3.9l-9.9,21.4l-6.1-14.9L909,441l-9.8-21.4h3.9L908.7,433.2z"/>
	<path class="st0" d="M936.4,437.7c0,1.3-1,2.5-2.3,2.5c-1.3,0-2.3-1.2-2.3-2.5c0-1.3,1-2.3,2.3-2.3
		C935.4,435.4,936.4,436.4,936.4,437.7z"/>
	<path class="st0" d="M946.2,422.1L946.2,422.1c1.5-1.9,3.3-2.9,5.8-2.9c5.5,0,6.8,3.9,6.8,8.6v11.8h-3.3v-11.2
		c0-3.2-0.3-6.1-4.2-6.1c-4.7,0-5,4.4-5,7.9v9.5H943v-19.9h3.3v2.5H946.2z"/>
	<path class="st0" d="M982.3,439.6h-3.5v-2.8l0,0c-1.7,2.2-4.1,3.3-6.8,3.3c-5.8,0-9.6-5-9.6-10.5c0-5.7,3.6-10.6,9.6-10.6
		c2.8,0,5.2,1.3,6.8,3.3h0.1v-2.9h3.3V439.6z M965.8,429.4c0,3.9,2.3,7.6,6.6,7.6c4.4,0,6.7-3.5,6.7-7.6c0-3.9-2.5-7.3-6.7-7.3
		C968.3,422.3,965.8,425.6,965.8,429.4z"/>
	<path class="st0" d="M991,439.6h-3.3v-16.7h-2v-3.2h2v-7.1h3.3v7.1h3.5v3.2H991V439.6z"/>
	<path class="st0" d="M993.2,419.6h3.9l7,14.3l6.4-14.3h3.9l-14.7,31.2h-3.9l6.4-13.1L993.2,419.6z"/>
	<path class="st0" d="M1018.8,437.7c0,1.3-1,2.5-2.3,2.5s-2.3-1.2-2.3-2.5c0-1.3,1-2.3,2.3-2.3S1018.8,436.4,1018.8,437.7z"/>
	<path class="st0" d="M1039.9,425.6L1039.9,425.6c-1.6-2-3.6-3.3-6.3-3.3c-4.1,0-7,3.3-7,7.4c0,3.9,2.8,7.4,6.8,7.4
		c2.9,0,4.8-1.3,6.6-3.5h0.1v4.5c-1.9,1.3-3.9,2-6.3,2c-6,0-10.6-4.5-10.6-10.5c0-6,4.8-10.5,10.6-10.5c2.2,0,4.4,0.7,6.1,2v4.4
		H1039.9z"/>
	<path class="st0" d="M1042.4,429.7c0-5.8,4.7-10.6,10.5-10.6c5.8,0,10.5,4.7,10.5,10.6c0,6-4.7,10.5-10.5,10.5
		C1047.1,440.2,1042.4,435.5,1042.4,429.7z M1045.9,429.7c0,4.1,2.9,7.4,7.1,7.4s7.1-3.3,7.1-7.4c0-4.1-2.9-7.4-7.1-7.4
		C1048.7,422.3,1045.9,425.6,1045.9,429.7z"/>
	<path class="st0" d="M1070.4,421.8L1070.4,421.8c1.2-1.6,2.9-2.8,4.8-2.8c2.3,0,4.5,1.2,5.5,3.3c1.2-2.2,3.5-3.3,6-3.3
		c5.1,0,6.4,4.2,6.4,8.3v12.1h-3.3v-11.6c0-2.6-0.1-5.8-3.6-5.8c-3.9,0-4.4,3.8-4.4,6.8v10.6h-3.3v-11.4c0-2.5-0.3-6-3.5-6
		c-3.9,0-4.4,4.1-4.4,7v10.3h-3.3v-19.9h3.3v2.3H1070.4z"/>
</g>
<g>
	<g>
		<rect x="9.3" y="228.5" class="st2" width="262.8" height="164.7"/>
		<polygon class="st1" points="272.1,290.5 129.9,290.5 129.9,228.5 92,228.5 92,290.5 9.3,290.5 9.3,328.3 92,328.3 92,393.1 
			129.9,393.1 129.7,328.3 272.1,328.3 		"/>
	</g>
	<rect x="5.7" y="413.8" class="st3" width="293.1" height="93.6"/>
	<text transform="matrix(1 0 0 1 5.7562 454.3581)" class="st0 st4 st5">Born in</text>
	<text transform="matrix(1 0 0 1 150.8441 454.3581)" class="st0 st4 st6 st7"> </text>
	<text transform="matrix(1 0 0 1 162.3246 454.3581)" class="st0 st4 st8 st9">1</text>
	<text transform="matrix(1 0 0 1 188.3148 454.3581)" class="st0 st4 st8">9</text>
	<text transform="matrix(1 0 0 1 217.5599 454.3581)" class="st0 st4 st8">94</text>
</g>
</svg>
