<?xml version="1.0" encoding="utf-8"?>
<!-- Generator: Adobe Illustrator 19.2.1, SVG Export Plug-In . SVG Version: 6.00 Build 0)  -->
<svg version="1.1" id="Layer_1" xmlns="http://www.w3.org/2000/svg" xmlns:xlink="http://www.w3.org/1999/xlink" x="0px" y="0px"
	 viewBox="0 0 740 490.7" style="enable-background:new 0 0 740 490.7;" xml:space="preserve">
<style type="text/css">
	.st0{opacity:0.23;}
	.st1{clip-path:url(#SVGID_2_);}
	.st2{fill:#5FB6B4;}
	.st3{fill:none;}
	.st4{fill:#E65E67;}
	.st5{clip-path:url(#SVGID_6_);}
	.st6{fill:#74A241;}
	.st7{fill:#FAD11E;}
	.st8{fill:#FAE19E;}
	.st9{clip-path:url(#SVGID_10_);}
	.st10{fill-rule:evenodd;clip-rule:evenodd;fill:#67873A;}
	.st11{fill:#67873A;}
	.st12{fill:#705F26;}
	.st13{font-family:'FuturaStd-Light';}
	.st14{font-size:35.8374px;}
</style>
<g>
	<g class="st0">
		<g>
			<defs>
				
					<rect id="SVGID_1_" x="62.7" y="77.3" transform="matrix(0.9997 -2.310035e-02 2.310035e-02 0.9997 -2.4713 2.1886)" width="61.5" height="61.5"/>
			</defs>
			<clipPath id="SVGID_2_">
				<use xlink:href="#SVGID_1_"  style="overflow:visible;"/>
			</clipPath>
			<g class="st1">
				<defs>
					
						<rect id="SVGID_3_" x="62.7" y="77.3" transform="matrix(0.9997 -2.310035e-02 2.310035e-02 0.9997 -2.4713 2.1886)" width="61.5" height="61.5"/>
				</defs>
				<clipPath id="SVGID_4_">
					<use xlink:href="#SVGID_3_"  style="overflow:visible;"/>
				</clipPath>
			</g>
		</g>
	</g>
	
		<rect x="66.3" y="114.8" transform="matrix(0.8969 -0.4423 0.4423 0.8969 -41.4344 55.0963)" class="st2" width="62.2" height="3.1"/>
	<path class="st2" d="M72.1,82C71.9,81.7,66.7,93,65.9,95c-0.8,2-0.5,5.4,0.7,7.1c1.3,1.7,4.1,3.2,6.1,3.2c2,0,5-1.4,6.2-4.4
		c1.3-3,0.2-5.8-0.5-7.4C77.7,91.9,72.9,82.6,72.1,82"/>
	<path class="st2" d="M85.1,64.2c-0.3-0.2-5.4,11.1-6.2,13.1c-0.8,2-0.5,5.4,0.7,7.1c1.3,1.7,4.1,3.2,6.1,3.2c2,0,5-1.4,6.2-4.4
		c1.2-3,0.2-5.8-0.6-7.4C90.6,74.2,85.9,64.8,85.1,64.2"/>
	<path class="st2" d="M101.9,73.3c-0.3-0.2-5.4,11.1-6.2,13.1c-0.8,2-0.5,5.4,0.7,7.1c1.3,1.7,4.1,3.2,6.1,3.2c2,0,5-1.4,6.2-4.4
		c1.3-3,0.2-5.8-0.5-7.3C107.5,83.3,102.7,73.9,101.9,73.3"/>
	<path class="st2" d="M121.6,93.7c0,0-3.9,5.4-12.8,9.8c-8.8,4.4-14,4.2-15.9,4.4c-1.6,0.3-7.1,0-15.9,4.4
		c-8.8,4.4-12.8,9.8-12.8,9.8l1.7,3.5c0,0,3.9-5.4,12.8-9.8c8.8-4.4,14.3-4,15.9-4.4c1.9-0.2,7.1,0,15.9-4.4
		c8.8-4.4,12.8-9.8,12.8-9.8L121.6,93.7z"/>
	<line class="st2" x1="90.2" y1="126.3" x2="98.4" y2="141.8"/>
	<polygon class="st2" points="89.3,126.8 91.2,125.8 99.3,141.3 97.4,142.3 	"/>
	<polygon class="st2" points="88,131.4 89,131.7 90.4,126.6 95.4,128.4 95.7,127.4 89.7,125.2 	"/>
	<line class="st2" x1="112" y1="141.7" x2="103.8" y2="126.2"/>
	<polygon class="st2" points="113,141.2 111.1,142.2 102.9,126.6 104.8,125.7 	"/>
	<polygon class="st2" points="114.2,136.5 113.2,136.2 111.8,141.3 106.9,139.6 106.5,140.6 112.6,142.7 	"/>
	<line class="st2" x1="111.8" y1="115" x2="119.9" y2="130.5"/>
	<polygon class="st2" points="110.8,115.5 112.7,114.5 120.9,130 119,131 	"/>
	<polygon class="st2" points="109.6,120.1 110.6,120.4 112,115.3 116.9,117.1 117.3,116.1 111.2,114 	"/>
</g>
<g>
	<rect x="63.6" y="320.4" class="st3" width="62.7" height="62.7"/>
	<rect x="63.6" y="320.4" class="st3" width="62.7" height="62.7"/>
	<path class="st4" d="M100.8,346.1c-0.8-0.4-2.6,2.6-2.4,5.6c0.2,3.1,1.8,4.3,3.6,4.2C103.8,355.7,104.3,347.9,100.8,346.1"/>
	<path class="st4" d="M114.3,322.9c-14.2-8-20.1,15.3-20.1,15.3c-2.5-14.9-14.3-17.1-19.3-14.3c-5,2.7-11.2,13-2.8,27.9
		c8.5,14.9,18.9,30.2,22.4,30.6c0,0,17.9-19.6,21.3-27.7C119.3,346.4,128.5,330.9,114.3,322.9 M93.8,353.4c-0.2,1.9,0,3.1-0.7,3.3
		c-0.7,0.1-1.4,0-2-0.5c-0.6-0.5-1.6-1.9-2.3-2.8c-0.7-0.9-1.7-1.7-2-2c-0.4-0.2-0.5,0.8-0.6,1.5c-0.1,0.8,0,2,0.1,3.1
		c0,1.1-0.4,1.6-1.1,1.5c-0.7-0.1-0.6-2.7-0.7-3.8c-0.1-1.1-0.2-3.3-0.3-5.2c-0.2-1.9,0.2-2.1,0.7-2.2c1-0.2,2.7,2.5,3.6,3.9
		c0.9,1.4,2.8,4,3.1,3.2c0.3-0.8,0.1-3.1,0.3-5c0.2-1.9,0.4-3.4,0.9-3.4c0.5-0.1,1.5,1.3,1.6,2C94.3,347.6,94,351.5,93.8,353.4
		 M99.1,357.6c-3-1.9-3.2-6.5-2.4-9.3c0.9-2.8,2.5-3.4,3.5-3.7c2.5-0.5,5.3,2.8,5.5,6.9C106.1,355.6,102.1,359.5,99.1,357.6"/>
</g>
<g>
	<g class="st0">
		<g>
			<defs>
				<rect id="SVGID_5_" x="54.4" y="157.8" width="62.3" height="62.3"/>
			</defs>
			<clipPath id="SVGID_6_">
				<use xlink:href="#SVGID_5_"  style="overflow:visible;"/>
			</clipPath>
			<g class="st5">
				<defs>
					<rect id="SVGID_7_" x="54.4" y="157.8" width="62.3" height="62.3"/>
				</defs>
				<clipPath id="SVGID_8_">
					<use xlink:href="#SVGID_7_"  style="overflow:visible;"/>
				</clipPath>
			</g>
		</g>
	</g>
	<path class="st6" d="M75.9,221.9c0.6,0.4,1.5,0.1,1.5-0.8c0-0.9,0.4-2.1,1.3-2.3c0.9-0.2,0.4-0.9,2.2-0.8c1.8,0.1,3.4-0.1,6.9-4.8
		c3.5-4.7,6.5-7.3,7.7-9.2c1.2-1.8,5.6-9.1,6.4-9.2c0.7,0,3,1.3,3.9,3.7c0.8,2.4,3.7,6.6,5.3,10.1c1.7,3.4,3.6,5.8,4.3,6.1
		c0.7,0.4,0.8-0.1,1.4,0.1c0.6,0.2-0.6-1.4-1.8-3.6c-1.1-2.2-3.5-7.7-4.6-10.7c-1-3-2.7-3.7-4.2-4.8c-1.5-1.2-1.9-2.7-2.7-3.1
		c-0.8-0.5-3.8,2-4.9,2.3c-1.1,0.3,1.6-3,3.2-6.1c1.6-3.1,5.3-9.7,7.2-13.4c1.9-3.7,4.8-8.6,6.1-11.9c1.3-3.3,2.7-5.7,2.6-6.3
		c-0.2-0.5,0-0.9-1.8,0.5c-1.8,1.4-3.6,3.7-5.1,4.8c-1.5,1.1-4.8,5.9-4.8,5.9l-11.1,7.3l-2.6-1.6c0,0,0.5-2.8,0.7-5.5
		c0.2-2.8,2.9-6.4,3.9-9.9c0.9-3.4,1.7-4.9,2.1-6.1c0.4-1.2,1-2,0.1-1.5c-0.9,0.5-1.1,2-1.8,3.2c-0.7,1.2-2.3,2.7-3.1,4.2
		c-0.8,1.4-5,10.1-6.2,12.9c-1.2,2.8-3.3,9.7-4.6,12.1c-1.3,2.4-5.5,10-6,11.3c-0.5,1.2,3-7.7,3.5-10.8c0.4-3.1-0.5-2.2-1.7-3.8
		c-1.2-1.6-2.3-2.2-2.3-2.2s-1.2-1.1-6.1-1.5c-4.9-0.4-7.3-1.9-8.7-3.1c-1.4-1.2-2.5-1.2-2.5-1.2s1,2.1,1.2,3.8
		c0.2,1.6,1.6,2.2,3.1,2.2c1.5-0.1,1.8,0.2,4.6,1.8c2.8,1.7,3.9,3.4,5.5,3.6c0,0,0.1,1.3,0.1,5.7c0,4.4-0.7,11.4-1.3,12.5
		c-0.6,1.1-1.6,3.9-2.2,5.8c-0.6,1.9-1.7,3.4,0,4.6c1.7,1.2,1.3,1.6,1.1,1.9"/>
	<path class="st6" d="M71.8,214c-0.3,0.6-1,1.7-1.3,2.3c0,0,0,0.9-0.5,0.9c-0.5,0-1.5,0.4-0.7,1.9c0.8,1.5,1.3,0.8,2,0.9
		c0.7,0,1.3,0.8,2.2,1.1c0.9,0.3,1.8,0.4,2.4,0.8"/>
	<path class="st7" d="M105.9,163c0,0-1.5-2-3,0c0,0-0.7-0.3-1.6,0.2c-0.8,0.5-1.1,0.8-0.8,1.2c0,0-0.6,0.2-0.7,0.8c0,0-1,0.3-1,1
		c0,0-0.9,0.6-1,1c0,0-1,0.3-1.1,1.2c0,0-0.5,0.5-1,1.2c0,0-0.9,0.8-1.8,2.2c-0.9,1.4-3.2,3.2-3.7,4.8c-0.5,1.6-3,5.9-5.1,10.3
		c-2.1,4.4-3.9,8.9-6.4,13.4c-2.5,4.4-6.2,10-6.5,11.7c-0.3,1.7-0.6,4.1,1.1,4.5c1.6,0.5,2.8,0.7,4,1.4c1.1,0.7,2.7,1.9,4.2,0.5
		c1.5-1.5,5.2-9.1,7.4-11.8c2.2-2.7,4.5-4.5,4.5-4.5s4.3-8.9,5.5-11c1.2-2.1,2.7-3.4,3.1-5.1c0.4-1.7,1.3-3.6,1.5-5
		c0.2-1.4,0.9-1,1.1-2.2c0,0,0.5-1.1,0.5-1.9c0,0,0.8-0.7,0.3-1.6c0,0,0.5-0.4,0.1-1c0,0,0.7-0.7,0.4-1.8c0,0,0.4-0.3,0.3-1
		c0,0,1.1-0.7,0.5-1.8c0,0,0.5-0.3,0.2-0.8c0,0,1-1.2,0.2-1.8c0,0,0.9-1.1-0.3-2.2c0,0,0.8-0.7,0.7-1.2
		C107.4,163.5,106.4,162.6,105.9,163"/>
	<path class="st8" d="M103.7,163.1c0.2,0.5,0.7,1.1,1.3,1c0.3,0,0.8-0.5,0.6-0.8"/>
	<path class="st8" d="M104.1,165.6c0.2-0.6,1-0.1,0.7,0.4c-0.3,0.5-0.8,0.4-0.7-0.3C104.1,165.7,104.1,165.7,104.1,165.6"/>
	<path class="st8" d="M106.8,165.4c-0.3,0-0.6,0-0.9-0.2c-0.5,0.4-0.7,0.8-0.3,1.3c0.3,0.5,1,1,1.6,0.8"/>
	<path class="st8" d="M101.8,163.8c0.3,0.2,0.6,1,0.3,1.2c-0.3,0.3-1.1-0.1-1.3-0.4"/>
	<path class="st8" d="M105.9,169.7c-0.3-0.3-0.9-0.8-1.4-0.6c-0.6,0.2-0.4,0.9,0,1.2c0.4,0.4,0.9,1,1.4,0.6
		C106.3,170.6,106.4,170,105.9,169.7"/>
	<path class="st8" d="M104,172.3c-0.1-0.5-1.7-1.3-1.9-0.6c-0.2,1.1,2.1,1.5,1.7,0.6"/>
	<path class="st8" d="M101.2,170.4c-0.4,0-1.2-0.2-1.5,0.1c-0.3,0.4,0.3,1.4,0.8,1.5c0.2,0,1.1-0.4,1.2-0.5c0.4-0.4,0.1-0.8-0.4-1"
		/>
	<path class="st8" d="M99.7,166.1c-0.4-0.4-1.4,1.1-0.2,1.2C100.2,167.4,100.2,166.5,99.7,166.1"/>
	<path class="st8" d="M100,168c-0.4-0.2-1.6-0.5-1.9-0.2c-0.4,0.3-0.1,1.1,0.2,1.3c0.4,0.3,0.9,0.3,1.3-0.1c0.4-0.4,0.3-0.7,0.1-1.1
		"/>
	<path class="st8" d="M102.6,173.8c-0.4-0.2-0.8-0.4-1.2-0.3c-0.4,0.1-0.9,0.4-0.7,0.8c0.3,0.6,2.3,0.5,1.8-0.4"/>
	<path class="st8" d="M102.8,175c-0.3-0.2-1.4-0.1-1.6,0.2c-0.5,0.6,0.7,1.3,1.2,1.3c0.4,0.1,1.2-0.5,1.2-1c0-0.5-0.6-0.8-1-0.8"/>
	<path class="st8" d="M105.4,173.1c-0.3-0.2-0.9-0.3-1.2-0.2c-0.6,0.2-0.3,0.6,0,1c0.4,0.5,0.6,0.7,1.1,0.2
		C105.8,173.7,105.7,173.5,105.4,173.1"/>
	<path class="st8" d="M97.6,173.1c-0.3-0.2-0.9-0.9-1.3-0.9c-0.6,0-0.4,1.1-0.2,1.5C96.5,174.2,97.9,174,97.6,173.1"/>
	<path class="st8" d="M98.8,173.7c-0.4-0.3-1.3,0.1-0.9,0.7c0.2,0.2,0.3,0.1,0.5,0.2c0.4,0,0.5,0.2,0.9,0.4c0.4,0.2,0.8,0,0.6-0.6
		C99.6,173.7,99.1,173.8,98.8,173.7"/>
	<path class="st8" d="M103.5,166.8c-0.3-0.4-1.7-0.8-2.1-0.6c-1.4,0.7,1.2,1.1,1.4,1.3c0.5,0.2,0.8,0.6,0.8,1.1
		c0,0.3-0.2,0.7-0.4,0.9c-0.4,0.3-0.5-0.1-0.8-0.4c-0.3-0.2-0.6-0.2-0.9-0.4c-1.2-0.5,0.1-1.4,0.9-1.2c0.4,0.1,0.9,0.2,1.2,0
		c0.4-0.3,0.3-0.6-0.1-0.9"/>
	<path class="st8" d="M105.4,167.8c-0.4-0.5-1.1-0.7-1.4-0.2c-0.4,0.7,0.2,0.8,0.7,0.9c0.5,0.1,0.9,0.6,1.3,0.1
		c0.3-0.4-0.1-0.7-0.4-0.9"/>
	<path class="st8" d="M102.2,169.6c-0.3-0.4-1.1-0.8-1.6-0.5c-0.9,0.6,0.6,1.1,1,1.3c0.3,0.1,1,0.9,1.1,0.4c0.1-0.5-0.6-1.1-0.9-1.4
		"/>
	<path class="st8" d="M105.5,171.7c-0.2-0.2-0.9-0.4-1,0c-0.1,0.3,0.6,0.6,0.9,0.7c0.8,0.2,0.5-0.6,0-0.8"/>
	<path class="st8" d="M97.9,169.7c-0.3-0.1-0.8,0-1,0.3c-0.4,0.5,0.3,1.3,0.9,1.3c1,0.1,0.7-1.4,0-1.8"/>
	<path class="st8" d="M99.9,172.2c-0.6-0.3-1-0.7-1.4-0.1c-0.7,0.9,0.6,1,1.2,1.2c0.4,0.1,1,0.6,1-0.2
		C100.7,172.7,100.1,172.4,99.9,172.2"/>
	<path class="st8" d="M95.4,173.4c0-0.4-0.3-1-0.8-1.2c-0.3-0.1-0.9,0.1-0.8,0.6c0,0.3,0.4,0.4,0.5,0.6c0.1,0.2,0.3,0.7,0.5,0.7
		c0.3,0.1,0.6-0.4,0.5-0.7"/>
	<path class="st8" d="M97.2,174.5c-0.2-0.1-1.1-0.4-1.3-0.3c-0.7,0.3-0.1,0.9,0.3,1.1c0.3,0.2,0.8,0.4,1.1,0.1
		C97.4,175.1,97.4,174.6,97.2,174.5"/>
	<path class="st8" d="M98.8,175c-0.4-0.2-1.4-0.3-0.9,0.4c0.2,0.2,0.5,0.4,0.8,0.5c0.3,0.2,0.5,0.8,0.8,0.8c0.4,0.1,0.9-0.8,0.8-1.1
		C100.1,175,99.1,175.2,98.8,175"/>
	<path class="st8" d="M101.2,176.4c-0.8-0.1-0.6,0.4-0.3,0.8c0.4,0.5,0.7,1.2,1.4,0.9c0.9-0.4,0.4-0.8-0.2-1.2
		c-0.3-0.2-0.8-0.5-1.1-0.7"/>
	<path class="st8" d="M104.1,177.7c-0.5-0.2-1.8,1.1-0.7,1.3C104.1,179.2,104.6,178.2,104.1,177.7"/>
	<path class="st8" d="M104.3,176c-0.3,0.3-0.7,0.3-1,0.6c-0.3,0.4,0.4,0.6,0.8,0.6c0.3,0,0.9,0,0.9-0.5
		C105.1,176.4,104.5,176,104.3,176"/>
	<path class="st8" d="M105.1,175.1c-0.1-0.1-0.8-0.4-1-0.3c-0.2,0.2,0.1,0.4,0.2,0.5c0.1,0.1,0.4,0.3,0.6,0.2
		c0.3-0.1,0.2-0.4,0.1-0.6"/>
	<path class="st8" d="M98,176.8c-0.4-0.2-1-0.8-1.5-0.3c-0.6,0.6,0.6,1,1,1.3c0.2,0.2,0.3,0.6,0.6,0.7c0.3,0.1,0.6,0,0.7-0.4
		c0.2-0.6-0.6-1.3-1-1.5"/>
	<path class="st8" d="M99.5,178.6c-0.4,0-0.6-0.1-0.8,0.2c-0.3,0.4,0.2,0.7,0.6,0.8c0.3,0.1,0.6,0.1,0.6-0.3c0-0.4-0.6-0.6-0.6-0.7"
		/>
	<path class="st8" d="M100.9,179c-0.4-0.1-0.6,0.4-0.4,0.7c0.1,0.3,0.5,0.4,0.6,0.7c0.1,0.2,0.1,0.5,0.4,0.5c0.2,0,0.5-0.1,0.6-0.3
		c0.3-0.3,0.2-0.5,0-0.8c-0.2-0.4-1-1-1.4-0.9"/>
	<path class="st8" d="M95.8,175.6c-0.4-0.3-1.4-0.6-1.3,0.3c0,0.4,0.5,0.7,0.8,1c0.2,0.2,0.5,0.6,0.1,0.8c-0.4,0.1-1.5-0.6-1.7-0.9
		c-0.3-0.6,0.6-0.5,0.9-0.3c0.4,0.2,0.8,0.6,1.3,0.4C96.7,176.5,96.2,175.8,95.8,175.6"/>
	<path class="st8" d="M93.9,175c-0.2,0-0.8-0.3-1-0.1c-0.4,0.3,0.4,0.8,0.7,0.9c0.9,0.1,0.7-1,0-1"/>
	<path class="st8" d="M97.1,178.1c-0.3-0.2-1-0.6-1.3-0.2c-0.3,0.4,0.7,1,1.1,1.2c0.7,0.4,0.5-1.2-0.2-1.2"/>
	<path class="st8" d="M98.2,179.9c-0.5-0.3-0.9-0.6-1.2,0c-0.3,0.7,0.4,0.8,0.9,1c0.3,0.1,0.9,0.5,1.1,0c0.2-0.4-0.6-1-0.9-1.2"/>
	<path class="st8" d="M100.2,180.4c-0.3-0.4-0.8-0.6-0.9,0c-0.1,0.5,0.6,1.1,1.1,1.2c0.8,0,0.3-1.2-0.3-1.3"/>
	<path class="st8" d="M102.3,181.5c-0.2-0.1-1-0.1-1.2,0c-0.6,0.5,0.3,1,0.7,0.9c0.3,0,1,0,1.2-0.3
		C103.2,181.8,102.5,181.6,102.3,181.5"/>
	<path class="st8" d="M92.7,176.3c-1.1-0.8-1.6,1.2-0.4,1.3c0.3,0,0.7-0.4,0.8-0.7c0-0.3-0.4-0.8-0.6-1"/>
	<path class="st8" d="M94.4,177.6c-0.3-0.2-0.8-0.6-1.2-0.4c-0.6,0.4,0.3,1,0.7,1.1c0.3,0.1,0.8,0.4,0.9-0.1
		c0.1-0.4-0.4-0.7-0.8-0.9"/>
	<path class="st8" d="M95.5,178.7c-0.3-0.3-1,0.2-0.8,0.6c0.1,0.2,0.9,0.5,1.2,0.6c0.3,0.1,0.7,0.1,0.6-0.4
		c-0.1-0.4-0.9-0.7-1.2-0.9"/>
	<path class="st8" d="M99.3,181.9c-0.4-0.3-0.9-0.2-0.9,0.4c0,0.6,0.8,1.2,1.3,1.3c1.1,0.2,0-2.1-0.8-2"/>
	<path class="st8" d="M102.1,183.1c-0.2-0.2-1.1-0.2-1.2,0c-0.3,0.4,0.3,0.6,0.6,0.7c0.4,0.1,0.8,0.4,1-0.1c0.2-0.4-0.1-0.8-0.5-0.8
		"/>
	<path class="st8" d="M97.4,181.1c-0.5-0.2-0.7-0.1-1,0.4c-0.3,0.6,0.3,0.7,0.8,0.7c0.3,0.1,0.6,0.2,0.7-0.4c0-0.4-0.4-0.6-0.6-0.8"
		/>
	<path class="st8" d="M95.8,180.2c-0.2-0.1-0.5-0.1-0.7-0.1c-0.2,0-0.6-0.3-0.8-0.2c-0.2,0-0.5,0.3-0.5,0.5c0,0.3,0.5,0.5,0.8,0.6
		c0.3,0.1,1.1,0.4,1.4,0.1C96.4,180.8,96,180.4,95.8,180.2"/>
	<path class="st8" d="M93.5,178.6c-0.2-0.1-0.7-0.5-1-0.4c-0.4,0.1-0.4,0.6-0.3,0.9c0.5,0.8,1.8,0,1.2-0.7"/>
	<path class="st8" d="M91.5,177.4c-0.6,0.1-0.7,1.4,0,1.3c0.6-0.1,0.4-1,0-1.1"/>
	<path class="st8" d="M92.3,179.8c-0.5-0.2-1.2,0.4-0.9,0.9c0.1,0.3,0.5,0.3,0.7,0.5c0.2,0.2,0.4,0.5,0.7,0.6
		c0.8,0.3,0.7-0.9,0.5-1.3c-0.1-0.3-0.4-0.7-0.7-0.8c-0.1,0-0.3,0-0.4,0"/>
	<path class="st8" d="M95.3,181.6c-0.4-0.2-0.8-0.3-1.3-0.2c-0.8,0.2,0,0.6,0.3,1c0.4,0.5,1.3,1.2,1.6,0.1c0.1-0.5-0.5-1.1-1-1.2"/>
	<path class="st8" d="M96.7,183.1c-0.4-0.3-1.3-0.1-1.1,0.5c0.1,0.3,0.9,0.7,1.2,0.8c1.2,0.1-0.3-1.1-0.2-1.4"/>
	<path class="st8" d="M98.9,183.6c-0.3-0.3-1.3-0.7-1.3,0.1c0,0.4,1,1,1.3,1.1c0.6-0.6,0.3-0.9-0.3-1.3"/>
	<path class="st8" d="M100.3,184.3c-0.4-0.3-0.9-0.1-1,0.4c-0.1,0.4,0.3,0.7,0.7,0.8c0.9,0.3,0.8-0.9,0.2-1.3"/>
	<path class="st8" d="M91.2,179c-0.4-0.2-1.2-0.5-1.5,0c-0.3,0.4,0.1,1.1,0.5,1.2c0.7,0.2,1.4-0.7,0.7-1.1"/>
	<path class="st8" d="M91.6,181.3c-0.5-0.3-1-0.3-1.4,0.1c-0.5,0.8,0.8,1.1,1.3,1.5c0.2,0.1,0.4,0.4,0.7,0.3
		c0.3-0.1,0.4-0.5,0.4-0.8c-0.2-0.6-0.8-1-1.3-1.3"/>
	<path class="st8" d="M93.7,182.6c-0.4-0.3-0.7,0.2-0.7,0.6c0,0.5,0.8,0.9,1.2,0.9c1.6,0-0.5-2.1-0.8-1.6"/>
	<path class="st8" d="M95.5,184.3c-0.4-0.2-1.3-0.4-1.4,0.3c-0.1,0.6,1,1,1.4,1.1c1.4,0.2,0.4-1.4-0.4-1.5"/>
	<path class="st8" d="M98,185c-0.2-0.4-0.7-0.7-1-0.4c-0.5,0.4-0.1,0.8,0.3,1.1c0.3,0.2,0.6,0.5,0.9,0.1
		C98.3,185.5,98.2,185.2,98,185"/>
	<path class="st8" d="M99.3,185.8c-0.7-0.5-1.1,0.7-0.3,1.1C99.8,187.3,99.8,186.3,99.3,185.8"/>
	<path class="st8" d="M99.2,187.8c-0.3-0.2-0.6-0.7-1-0.7c-0.5,0.1-0.9,0.9-0.6,1.2c0.5,0.7,2.1,0,1.3-0.7"/>
	<path class="st8" d="M100.2,187c-0.5,0-0.9,0.5-0.7,0.9c0.1,0.2,0.5,0.4,0.7,0.4c0.7-0.2,0.2-1.1-0.2-1.3"/>
	<path class="st8" d="M96.9,186.2c-0.3-0.2-1.2-0.4-1.2,0.1c-0.1,0.7,0.6,0.7,1,0.7c0.3,0,0.8,0.2,0.8-0.3
		C97.5,186.4,97.1,186.3,96.9,186.2"/>
	<path class="st8" d="M94.9,185.9c-0.3-0.2-0.6-0.3-1-0.4c-0.2-0.1-0.5-0.3-0.7-0.3c-0.7,0.1-0.5,1.2-0.1,1.6
		c0.5,0.5,1.4,0.6,1.9,0.1c0.3-0.3,0.3-0.6,0.1-0.9"/>
	<path class="st8" d="M92.9,184c-0.2-0.1-0.5-0.2-0.7-0.3c-0.2,0.2-0.4,0.7-0.3,1c0.2,0.5,0.6,0.2,1,0.2c0.3,0,0.7,0.2,0.7-0.2
		C93.5,184.3,93,184.2,92.9,184"/>
	<path class="st8" d="M91.6,183.3c-0.3-0.4-1-0.9-1.5-0.9c-0.8,0-0.6,0.7-0.3,1.1c0.4,0.5,0.8,0.9,1.4,0.5c0.2-0.1,0.4-0.3,0.4-0.5"
		/>
	<path class="st8" d="M90,180.6c-0.3-0.6-1-0.4-1.2,0.2c-0.2,0.7,0.5,0.7,1,0.7C90,181.3,90.2,180.9,90,180.6"/>
	<path class="st8" d="M89.1,182.1c-0.2-0.1-0.7-0.4-1-0.3c-0.5,0.2-0.2,0.9,0.2,1c0.3,0.1,0.7,0.2,0.9-0.1
		C89.3,182.4,89.1,182.3,89.1,182.1"/>
	<path class="st8" d="M90.4,184.4c-0.4-0.2-1.5-1.3-1.5-0.1c0,0.5,0.5,0.8,0.8,1c0.3,0.2,0.5,0.6,0.8,0.8c0.4,0.3,1,0.3,1.1-0.3
		c0.2-0.7-0.9-1.3-1.4-1.7"/>
	<path class="st8" d="M92.8,186.6c-0.4-0.2-1-0.2-1.2,0.2c-0.3,0.6,0.9,1.6,1.6,1.4c1-0.3-0.5-1.5-0.9-1.8"/>
	<path class="st8" d="M95.8,187.7c-0.3-0.2-1-0.3-1.1,0.1c-0.2,0.5,0.6,1,0.9,1.1c1.3,0.3,0.6-0.8,0-1.3"/>
	<path class="st8" d="M97.4,189.1c-0.7-0.5-2,1.4-0.3,1.5c0.5,0.1,0.9-0.2,0.8-0.7c0-0.4-0.6-1.1-1-1.1"/>
	<path class="st8" d="M99.3,189.2c-0.6-0.4-1.3,0.6-0.6,1c0.7,0.3,1-0.9,0.4-1.1"/>
	<path class="st8" d="M88.2,183.4c-0.9-0.7-1.1,0.8-0.5,1.3c0.4,0.2,0.8,0.1,0.9-0.4c0.1-0.5-0.4-0.9-0.8-1.1"/>
	<path class="st8" d="M89.3,185.8c-0.4-0.2-1.2-0.6-1.6-0.4c-0.7,0.3-0.2,1.2,0.4,1.4c0.2,0.1,0.8,0.1,1,0.1
		c0.4-0.1,0.3-0.5,0.2-0.8"/>
	<path class="st8" d="M99.9,169.6c-0.3-0.2-1.2,0.1-0.8,0.5c0.3,0.2,0.7,0,0.8-0.3c0,0-0.1-0.1-0.1-0.1"/>
	<path class="st8" d="M96.3,171.1c-0.4-0.2-0.8-0.6-1.2-0.1c-0.4,0.7,0.8,0.9,1.3,1c0.4,0.1,0.9,0.1,0.6-0.5
		c-0.2-0.4-0.7-0.6-1.1-0.8"/>
	<path class="st8" d="M100.7,177.6c-0.3-0.2-0.7-0.6-1-0.6c-0.1,0-0.4,0.4-0.4,0.5c-0.1,0.3,0.1,0.4,0.4,0.6
		c0.3,0.2,0.6,0.5,0.9,0.2c0.2-0.3,0.1-0.6-0.2-0.7"/>
	<path class="st8" d="M95.5,189.2c-0.3-0.3-0.8-0.7-1.2-0.7c-0.3,0-0.8,0.4-0.9,0.7c-0.1,0.3,0,0.5,0.2,0.7c0.3,0.4,1.1,0.8,1.5,0.6
		c0.3-0.2,0.7-0.7,0.4-1"/>
	<path class="st8" d="M96.6,191.1c-0.5-0.8-1.4,0-0.8,0.5C96.4,192.2,96.8,191.7,96.6,191.1"/>
	<path class="st8" d="M98,191c-0.3-0.2-1-0.5-0.9,0.2c0.1,0.6,1,0.6,1.4,0.6C98.8,191.5,98.2,191.3,98,191"/>
	<path class="st8" d="M92.8,188.7c-0.4-0.1-0.8-0.4-1.3-0.6c-1,0.4,0.4,1.6,1.1,1.5c0.7-0.1,0.5-0.9,0-1.1"/>
	<path class="st8" d="M91.2,187.3c-0.3-0.4-0.8-0.6-1.2-0.4c-0.3,0.2-1,0.6-0.3,0.9c0.2,0.1,0.5,0,0.8,0c0.2,0,0.5,0.1,0.7,0
		c0.4-0.2,0.2-0.5-0.1-0.7"/>
	<path class="st8" d="M87.8,187c-0.5-0.1-1-0.5-1.5-0.3c-0.7,0.3,0.3,0.8,0.7,1c0.3,0.2,0.8,0.6,1.1,0.2c0.2-0.3-0.2-1.3-0.5-1.1"/>
	<path class="st8" d="M89.7,188.6c-0.4-0.2-1.1-0.5-1.4,0c-0.4,0.7,0.5,1.1,1,1.4c2.3,1.3,0.5-2-0.1-1.7"/>
	<path class="st8" d="M91.2,189.7c-0.5-0.1-0.9,0.5-0.7,0.9c0.2,0.5,1.1,1.2,1.6,1c1.7-0.4-0.6-2.9-1.2-1.9"/>
	<path class="st8" d="M94.5,191c-0.3-0.2-0.7-0.5-1-0.3c-0.4,0.2-0.4,0.6-0.1,0.9c0.6,0.7,1.6-0.1,1.1-0.6"/>
	<path class="st8" d="M96,192.2c-0.5-0.3-0.9-0.6-1.2-0.1c-0.3,0.4-0.4,0.9,0.1,1.2c0.3,0.2,1.1,0.3,1.3,0c0.4-0.4-0.1-0.8-0.3-1.1"
		/>
	<path class="st8" d="M97.6,192.3c-0.6-0.9-1.4,0.2-0.6,0.8c0.3,0.2,0.8,0.3,0.9-0.2c0-0.2-0.2-0.7-0.3-0.9"/>
	<path class="st8" d="M96.6,194c-0.3,0-0.7-0.3-0.9,0c-0.2,0.3,0.1,0.7,0.3,0.8c0.3,0.1,0.9-0.1,1-0.3c0.2-0.3-0.1-0.4-0.4-0.6"/>
	<path class="st8" d="M94.9,193.8c-1.1-0.7-1.5,1-0.5,1.2C95.3,195.2,95.6,193.8,94.9,193.8"/>
	<path class="st8" d="M93.6,192.2c-1.1-0.7-2.2,0.2-0.9,0.9C93.5,193.5,94.5,193,93.6,192.2"/>
	<path class="st8" d="M91.4,191.8c-0.3-0.2-1.2-0.7-1.6-0.6c-0.6,0.2-0.3,0.9,0,1.1c0.2,0.2,1.4,0.9,1.7,0.8c0.5-0.2,0.1-1,0-1.2
		c-0.1,0-0.2-0.1-0.3-0.2"/>
	<path class="st8" d="M89,190.3c-0.5-0.3-1.2-1-1.7-0.6c-0.7,0.6,0,1,0.6,1.3c0.3,0.2,0.8,0.4,1.2,0.1
		C89.6,190.9,89.3,190.7,89,190.3"/>
	<path class="st8" d="M87.4,188.7c-0.2-0.3-1-0.9-1.4-0.9c-0.4,0-0.5,0.5-0.3,0.8c0.2,0.3,0.9,0.8,1.3,0.7
		C87.2,189.2,87.5,189,87.4,188.7"/>
	<path class="st8" d="M86.2,189.7c-0.6,0.1-1.1-0.8-1.6-0.6c-1.2,0.3,0.3,1.3,0.7,1.6c0.4,0.3,0.8,0.4,1.1-0.1
		c0.3-0.5-0.2-0.8-0.6-1.1"/>
	<path class="st8" d="M87.9,191.5c-0.7-0.4-1-0.7-1.4,0.1c-0.3,0.6,0.2,1.2,0.8,1.5c0.3,0.2,1.2,0.1,1.3-0.4
		C88.7,192.3,88.1,191.7,87.9,191.5"/>
	<path class="st8" d="M90.5,193c-0.6-0.3-1.2-0.7-1.6,0c-0.5,0.7-0.2,1.3,0.6,1.6c0.6,0.2,1.5,0.4,1.5-0.5c0-0.4-0.5-1-0.8-1.2"/>
	<path class="st8" d="M92.6,193.4c-0.3-0.4-0.7-0.2-1,0.1c-0.4,0.4-0.1,0.8,0.3,1.1c0.4,0.4,0.9,0.5,1.3,0c0.2-0.2,0.2-0.3,0-0.6
		c-0.2-0.3-0.5-0.6-0.8-0.8"/>
	<path class="st8" d="M94.2,195.2c-0.5-0.1-1.1-0.6-1.3-0.1c-0.3,0.7,0.7,1.1,1.2,1.3c0.4,0.1,0.7,0.2,0.7-0.4
		C94.9,195.7,94.5,195.3,94.2,195.2"/>
	<path class="st8" d="M96.5,195.4c-0.3-0.2-1-0.6-1.3-0.4c-0.4,0.2-0.2,0.8,0,1c0.3,0.4,0.7,0.7,1.1,0.3c0.2-0.2,0.2-0.5,0.2-0.8"/>
	<path class="st8" d="M85.2,190.9c-0.3-0.2-0.9-0.6-1.3-0.5c-0.2,0.1-0.4,0.3-0.5,0.5c-0.2,0.3-0.2,0.4,0,0.7c0.5,0.5,1.3,1,1.7,0.3
		C85.6,191.6,85.6,191.2,85.2,190.9"/>
	<path class="st8" d="M86.5,192.8c-0.4,0.2-1.1-0.3-1.3,0.3c-0.2,0.6,0.9,1.4,1.5,1.5c0.4,0,0.8-0.4,0.6-0.9c-0.1-0.5-0.8-0.8-1.2-1
		"/>
	<path class="st8" d="M88.3,194.5c-0.4,0.1-0.9,0.4-0.6,0.9c0.2,0.3,1.3,1,1.7,0.8c0.6-0.3,0.3-1-0.1-1.3c-0.5-0.5-0.8-0.4-1.4-0.3"
		/>
	<path class="st8" d="M91.6,195.4c-0.8-0.9-1.8,0.3-0.8,0.9c0.3,0.2,0.6,0.4,0.9,0.2C92,196.1,91.9,195.7,91.6,195.4"/>
	<path class="st8" d="M93.2,196.7c-0.4-0.1-0.8-0.4-1.1-0.1c-0.4,0.4,0.2,0.8,0.5,1c0.3,0.2,0.9,0.7,1.2,0.1
		c0.3-0.5-0.3-0.9-0.7-1.1"/>
	<path class="st8" d="M94.5,197.1c-0.6-0.2,0,1.5,0.6,0.7c0.2-0.4-0.3-0.7-0.6-0.8"/>
	<path class="st8" d="M94.3,198.6c-0.3-0.2-0.5-0.3-0.8-0.4c-0.3,0.5-0.8,1.3,0.1,1.4C94,199.6,94.7,199.1,94.3,198.6"/>
	<path class="st8" d="M92.5,198.1c-0.5-0.3-0.9-0.7-1.3-0.1c-0.4,0.6,0.1,0.9,0.7,1.2c0.3,0.1,0.5,0.2,0.8-0.1
		C92.7,198.8,92.8,198.4,92.5,198.1"/>
	<path class="st8" d="M90.6,196.6c-0.4-0.1-1.2-0.3-1.4,0.2c-0.2,0.6,0.6,1.2,1.1,1.1c0.8-0.2,1-1.3,0-1.3"/>
	<path class="st8" d="M88,196.1c-0.5-0.1-0.9-0.7-1.4-0.3c-0.9,0.9,0.7,1.6,1.3,1.8c0.6,0.2,1.1-0.1,0.8-0.8
		c-0.2-0.5-0.7-0.6-1.1-0.8"/>
	<path class="st8" d="M86.1,195c-0.4-0.2-1.2-0.9-1.6-0.7c-0.6,0.2-0.2,0.9,0,1.2c0.4,0.4,0.9,0.8,1.4,0.4
		C86.1,195.7,86.3,195.2,86.1,195"/>
	<path class="st8" d="M84.3,192.7c-0.3-0.2-0.7-0.6-1.1-0.7c-1-0.1-0.4,1.3-0.2,1.7c0.3,0.4,1,1.7-0.1,1.7c-1.3-0.1-1.2-2,0.1-1.8
		c0.3,0,0.7,0.3,1.1,0.2C84.6,193.7,84.5,193.1,84.3,192.7"/>
	<path class="st8" d="M84.7,196c-0.4-0.2-1.1-0.7-1.4-0.2c-0.5,0.9,0.5,1.9,1.4,1.8c0.6,0,0.6-0.6,0.3-1c-0.2-0.2-0.4-0.2-0.5-0.4
		c-0.1-0.2-0.1-0.3-0.2-0.4"/>
	<path class="st8" d="M87.1,197.7c-0.3-0.3-1-0.9-1.3-0.3c-0.3,0.6,0.8,1.5,1.4,1.5c1,0,0.2-1.3-0.2-1.5"/>
	<path class="st8" d="M89.8,198.3c-0.4-0.6-1.1-0.5-1.4,0c-0.4,0.6-0.2,1,0.6,1.3C89.7,199.8,90.6,198.9,89.8,198.3"/>
	<path class="st8" d="M91.8,199.6c-0.4-0.3-1-0.5-1.5-0.2c-0.7,0.4-0.1,0.9,0.3,1.2c0.4,0.2,1,0.6,1.3,0c0.1-0.3-0.1-0.9-0.4-1"/>
	<path class="st8" d="M93.1,200c-0.3-0.4-0.5-0.2-0.7,0.1c-0.3,0.4-0.4,0.6,0,0.8c0.3,0.2,0.5,0.2,0.7-0.1
		C93.5,200.6,93.2,200.4,93.1,200"/>
	<path class="st8" d="M92,201.7c-1-0.3-1.3,1.4-0.3,1.5c0.3,0,0.8-0.6,0.8-0.9c0-0.3-0.3-0.7-0.6-0.9"/>
	<path class="st8" d="M91.2,201.2c-0.5-0.3-1.1-0.9-1.7-0.6c-0.6,0.3-0.5,0.8,0.1,1.1c0.6,0.3,1.8,0.4,1.4-0.6"/>
	<path class="st8" d="M88.6,200.1c-0.4-0.2-0.8-0.4-1.1-0.7c-0.7,0.7-0.3,1.6,0.7,1.6c0.2,0,0.5-0.1,0.6-0.4
		C88.8,200.4,88.7,200.3,88.6,200.1"/>
	<path class="st8" d="M86.8,199.4c-0.5-0.3-1.2-1.1-1.9-1c-0.2,0.1-0.5,0.4-0.6,0.6c-0.3,0.4-0.3,0.5,0,0.9c0.4,0.4,1.3,1,1.8,0.6
		c0.2-0.2,0.6-0.7,0.4-1"/>
	<path class="st8" d="M84.1,197.9c-0.4-0.2-1.1-0.8-1.5-0.7c-0.7,0.2-0.6,0.9-0.2,1.3c0.4,0.4,1,0.5,1.4,0.1c0.3-0.3,0.3-0.6,0-0.8"
		/>
	<path class="st8" d="M82.4,195.9c-0.5-1.1-1.9,0-1.3,0.7C81.7,197.4,82.9,196.8,82.4,195.9"/>
	<path class="st8" d="M81.5,197.5c-0.2-0.1-0.6-0.5-0.8-0.4c-0.3,0.1-0.5,0.6-0.3,0.8c0.3,0.4,0.9,0,0.9-0.5"/>
	<path class="st8" d="M82.3,199.3c-0.2-0.3-0.8-0.6-1-0.3c-0.8,0.7,0.6,1.5,1.1,1.7c0.5,0.2,1,0,0.9-0.7c-0.1-0.6-0.8-1-1.3-1.1"/>
	<path class="st8" d="M85,201c-0.2-0.1-0.7-0.5-1-0.4c-0.5,0.1-0.5,0.6-0.2,0.9c0.3,0.4,0.9,0.8,1.3,0.2
		C85.3,201.5,85.3,201.1,85,201"/>
	<path class="st8" d="M87.9,201.6c-0.5-0.3-1.4-0.9-1.9-0.4c-0.6,0.5-0.4,1.1,0.2,1.5c0.4,0.3,0.9,0.5,1.3,0.2
		c0.5-0.3,0.5-0.8,0.2-1.3"/>
	<path class="st8" d="M88.8,202c-1.2,0.7,0.6,2.1,1.3,1.6c0.6-0.5-0.7-1.9-1.3-1.8"/>
	<path class="st8" d="M80.2,199c-0.7-0.1-0.7,0.6-0.1,0.8c0.4-0.3,0.5-0.7,0-0.9"/>
	<path class="st8" d="M82.2,200.9c-0.4,0.2-1.3-0.5-1.7-0.3c-0.3,0.2-0.1,0.9,0.1,1.1c0.4,0.5,1.3,0.9,1.8,0.3
		C82.7,201.6,82.4,201.3,82.2,200.9"/>
	<path class="st8" d="M84.4,202.4c-0.4-0.2-1-0.7-1.4-0.3c-0.1,0.1-0.3,0.4-0.3,0.5c-0.1,0.4,0.3,0.5,0.7,0.7c0.6,0.3,1.6,1.2,1.8,0
		c0.1-0.6-0.5-0.8-1-1"/>
	<path class="st8" d="M86.5,203.3c-0.2-0.3-0.8-0.8-1.2-0.4c-0.4,0.4,0.2,1,0.5,1.3c0.4,0.3,1.5,0.5,1.3-0.3
		C87.1,203.6,86.7,203.2,86.5,203.3"/>
	<path class="st8" d="M89.5,204.3c-0.3-0.2-1.1-0.7-1.4-0.6c-0.1,0-0.4,0.5-0.4,0.6c-0.1,0.3,0.1,0.5,0.4,0.6
		c0.4,0.3,1.1,0.6,1.5,0.2C89.9,204.8,89.7,204.6,89.5,204.3"/>
	<path class="st8" d="M86.4,204.9c-0.7-0.4-1.5-0.5-2.2-0.9c-0.6,0.9,0.1,1.8,1.1,1.8c0.2,0,1.7-0.4,1-0.9"/>
	<path class="st8" d="M83.3,203.8c-0.4-0.2-0.9-0.8-1.3-0.8c-0.6-0.1-0.7,0.7-0.4,1.1c0.4,0.6,1.1,0.9,1.7,0.5
		C83.6,204.2,83.5,204,83.3,203.8"/>
	<path class="st8" d="M89,205.6c-0.7,0-1.2-0.5-1.8-0.5c-0.6,0-0.9,0.6-0.5,1c0.4,0.5,1.3,0.8,1.9,0.5C88.9,206.4,89.3,206,89,205.6
		"/>
	<path class="st8" d="M81.2,202.6c-0.4-0.2-0.6-0.8-1-1c-0.4-0.2-0.8,0.1-0.9,0.6C79.2,203.2,81.3,203.6,81.2,202.6"/>
	<path class="st8" d="M79.4,200.3c-0.3,0.2-0.5,0.2-0.7,0.6c0.3,0.2,1,0.6,1.1,0c0.1-0.3-0.4-0.9-0.7-0.6"/>
	<path class="st8" d="M79.9,203.7c-0.4-0.2-0.7-0.6-1-1c-0.1-0.1-0.4-0.6-0.5-0.6c-0.3-0.1-0.7,0.5-0.7,0.8
		c-0.1,0.5,0.3,0.8,0.6,1.1c0.4,0.3,1.3,1.1,1.8,0.6c0.4-0.4,0.2-0.7-0.2-0.9"/>
	<path class="st8" d="M82.4,205.2c-0.4-0.2-0.8-0.5-1.2-0.8c-0.3-0.2-0.3-0.2-0.5,0c-0.6,0.5,0.1,1.3,0.5,1.6c0.4,0.2,1.3,0.6,1.6,0
		c0.2-0.4-0.3-0.8-0.7-1"/>
	<path class="st8" d="M85.6,206.6c-0.4-0.2-1.3-1-1.8-0.9c-0.4,0.1-0.9,0.7-0.8,1.1c0.2,0.7,1.5,1,2,0.7c0.4-0.2,0.4-0.4,0.4-0.8"/>
	<path class="st8" d="M88.3,207.1c-0.4-0.2-0.9-0.2-1.4-0.3c-0.2-0.1-0.4-0.2-0.6-0.2c-0.5,0-0.7,0.7-0.4,1.1
		c0.3,0.5,1.2,0.7,1.7,0.4c0.3-0.1,0.8-0.6,0.6-0.8"/>
	<path class="st8" d="M87.2,208.8c-0.4-0.2-1.2-0.5-1.6-0.5c-0.2,0-0.2-0.1-0.3,0.1c-0.1,0.2,0,0.5,0.1,0.7c0.3,0.3,1.4,0.9,1.8,0.5
		c0.2-0.2,0.2-0.7,0-0.9"/>
	<path class="st8" d="M84.2,208c-0.4-0.2-1.1-0.9-1.5-0.7c-0.8,0.4,0.8,1.3,1.1,1.4c1.5,0.6,0.9-1.1,0.3-1"/>
	<path class="st8" d="M81.8,207c-0.5-0.2-0.8-0.8-1.4-0.9c-0.4-0.1-0.9,0.1-0.8,0.6c0.1,0.3,1.1,1,1.4,0.9c0.2-0.1,0.5-0.4,0.4-0.5"
		/>
	<path class="st8" d="M79.6,205.5c-0.2-0.4-1.2-1.1-1.7-1.4c-0.4-0.2-1.2-0.3-1,0.4c0.1,0.6,1.9,2,2.4,1.1"/>
	<path class="st8" d="M77,205.9c-0.2-0.9-1.1,0.3-0.3,0.8c0.6,0.4,0.5-0.5,0.1-0.8"/>
	<path class="st8" d="M78.1,206.4c-0.3,0-0.8,0.4-0.8,0.7c0,0.4,0.8,0.8,1.2,0.8c0.4-0.1,0.5-0.4,0.4-0.7c-0.1-0.5-0.7-0.7-1.1-0.9"
		/>
	<path class="st8" d="M80,207.6c-0.4-0.1-1.1,0-1.1,0.5c0.1,0.6,1.3,1.5,1.9,1.3c0.4-0.2,0.7-0.7,0.4-1.1
		C81,207.9,80.4,207.8,80,207.6"/>
	<path class="st8" d="M83.5,209.3c-0.5-0.3-1.1-0.7-1.6-0.9c-0.2,0.2-0.4,0.5-0.4,0.8c0,0.6,1.1,1.5,1.6,1.5
		c0.5,0.1,0.9-0.3,0.9-0.8c0-0.5-0.4-0.6-0.7-0.8"/>
	<path class="st8" d="M85.7,210.1c-0.5-0.3-1-0.4-1.4,0.1c-0.5,0.5,0.5,0.8,1,0.8c0.3,0,1-0.1,1.1-0.4c0.1-0.3-0.7-0.8-0.9-0.6"/>
	<path class="st8" d="M85.5,211.6c-0.3-0.2-0.6-0.1-0.9-0.2c-0.3-0.1-0.5-0.3-0.8-0.4c-0.5-0.1-0.6,0.4-0.3,0.7
		c0.4,0.4,1.2,0.7,1.6,0.5c0.3-0.1,0.6-0.5,0.2-0.6"/>
	<path class="st8" d="M80.8,209.8c-0.6-0.1-1.1-0.4-1.5-0.7c-0.3-0.2-0.6-0.2-0.8,0.2c-0.3,0.6,0.6,1.1,1.2,1.2
		c0.5,0,0.6-0.1,0.8-0.5"/>
	<path class="st8" d="M81.1,210.3c-0.1,0-0.3,0.2-0.3,0.4c0,0.4,0.7,0.7,1,0.8c0.3,0.1,1,0.2,1.1-0.3c0.1-0.4-1.8-1.4-2-1"/>
	<path class="st8" d="M78,208.2c-0.5-0.1-0.9-0.6-1.4-0.7c-0.6-0.1-0.9,0.6-0.6,1.1c0.3,0.6,1,0.8,1.5,0.5c0.4-0.2,0.8-0.7,0.3-1"/>
	<path class="st8" d="M77.4,209.6c-0.2-0.2-0.6-0.1-0.8-0.2c-0.4-0.1-0.8-0.5-1.1-0.6c-0.3-0.1-0.4-0.2-0.6,0.2
		c-0.1,0.3-0.1,0.8,0.1,1.1c0.4,0.5,2.7,0.7,2.2-0.4"/>
	<path class="st8" d="M78,210.4c-0.4-0.6-1,0.7-0.9,1.1c0.2,0.7,1.3,1.3,2,1.2c0.6-0.2,0.9-1,0.5-1.5c-0.5-0.5-1.3-0.4-1.8-1"/>
	<path class="st8" d="M80.5,212.4c-1.7,0.2-0.1,1.9,0.9,1.9c0.6,0,0.6-0.7,0.3-1.1C81.5,212.8,81,212.7,80.5,212.4"/>
	<path class="st8" d="M83.8,213.8c-0.3-0.2-0.8-0.7-1.2-0.4c-0.4,0.2-0.4,1-0.2,1.2c0.3,0.5,1.1,0.6,1.5,0.2
		C84.2,214.5,84.2,213.9,83.8,213.8"/>
	<path class="st8" d="M83,215.7c-0.4-0.3-0.9-0.7-1.4-0.7c-0.5,0-1.1,0.5-0.8,1c0.2,0.4,1.2,0.9,1.7,0.8c0.4-0.1,0.6-0.6,0.7-1"/>
	<path class="st8" d="M80.4,214.7c-0.2-0.3-1-1-1.4-0.9c-0.5,0.2-0.6,1-0.3,1.4c0.4,0.7,1.5,0.5,1.6-0.3"/>
	<path class="st8" d="M78.4,213.1c-0.3-0.2-1-0.6-1.3-0.7c-0.5-0.1-0.8,0.5-0.5,0.9c0.2,0.4,0.8,0.8,1.2,0.6
		C78.1,213.9,78.4,213.5,78.4,213.1"/>
	<path class="st8" d="M76.3,211.3c-0.5-0.3-1.2-1.1-1.8-0.8c-0.3,0.2-0.7,0.8-0.7,1.2c0.1,0.5,1,1.1,1.5,1.1c0.3-0.1,1.4-0.8,1-1.2"
		/>
	<path class="st8" d="M75.6,213.5c-0.6-0.4-1.3-0.6-2-1c-0.3-0.2-0.6-0.3-0.9-0.1c-0.4,0.3-0.2,0.8,0.1,1.1c0.4,0.5,1.6,1.3,2.3,1.1
		c0.4-0.1,0.6-0.7,0.4-1"/>
	<path class="st8" d="M78.1,217.1c-0.3-0.2-0.7-0.9-0.5-1.3c0.2-0.4,0.8-0.1,1.1,0c0.6,0.3,1.5,0.9,1.1,1.6
		C79.5,218.3,78.5,217.5,78.1,217.1"/>
	<path class="st8" d="M77.5,215.1c-0.2-0.2-0.6-0.9-0.9-0.9c-0.3,0-1,0.7-1,1c-0.1,1.1,2,0.7,1.7-0.2"/>
	<path class="st8" d="M80.5,217c-0.5,0.3-0.5,0.8-0.1,1c0.4,0.2,0.9,0.3,1.1,0C82.2,217.3,80.9,216.9,80.5,217"/>
	<path class="st8" d="M79.3,218.3c-0.6-0.2-0.6,0.5-0.3,0.8c0.3,0.3,1.1,0.4,1.4,0.1c0.5-0.6-1.2-1-1.6-1"/>
	<path class="st8" d="M78.1,217.9c-0.2-0.2-0.6-0.8-0.9-0.9c-0.5-0.2-0.8,0.4-0.6,0.8c0.2,0.5,0.9,1.1,1.4,0.7
		C78.2,218.3,78.3,218.1,78.1,217.9"/>
	<path class="st8" d="M76.3,216.3c-0.4-0.3-1-0.4-1.4-0.6c-0.3-0.2-0.9-0.2-0.6,0.4c0.2,0.4,1.1,0.9,1.5,0.8
		c0.3-0.1,0.5-0.4,0.3-0.6"/>
	<path class="st8" d="M74.2,215c-0.3-0.2-2-1.6-2.1-0.6c-0.1,0.8,1.4,1.6,1.9,0.8"/>
	<path class="st8" d="M102.6,163.7c-0.5,0.8-0.1,1.8,0.7,2.2c0.3-0.4,0.6-0.9,0.7-1.3c-0.5-0.4-1-0.6-1.6-0.7"/>
</g>
<g>
	<g class="st0">
		<g>
			<defs>
				<rect id="SVGID_9_" x="66.6" y="240.8" width="54" height="54"/>
			</defs>
			<clipPath id="SVGID_10_">
				<use xlink:href="#SVGID_9_"  style="overflow:visible;"/>
			</clipPath>
			<g class="st9">
				<defs>
					<rect id="SVGID_11_" x="66.6" y="240.8" width="54" height="54"/>
				</defs>
				<clipPath id="SVGID_12_">
					<use xlink:href="#SVGID_11_"  style="overflow:visible;"/>
				</clipPath>
			</g>
		</g>
	</g>
	<path class="st10" d="M73.4,250.1c0.8-0.2,1.5-0.6,2.2-0.9c0.5-0.2,1-0.6,1.6-0.9c0.1-0.1,0.2,0.2,0.3,0c0.6-0.6,3-0.8,4.1-1
		c1.4-0.2,3.9-0.4,5.7,0.2c0.4,0.1,0.2-0.2,0.3-0.2c0.2,0,0.4,0.3,0.6,0.4c2.3,0.6,5.9,1.5,8.8,3.4c-0.7,2.4-3.5,5.4-3.6,7.7
		c0.4,0.2,0.8,0.5,1.2,0.7c0.2-0.3,0.6-0.1,0.9-0.2c0.4-0.1,0.9-0.3,1.4-0.4c0.1,0,0.3-0.1,0.4-0.1c0.3,0,0.7,0.2,0.9,0.2
		c0.3,0,0.6-0.3,0.8-0.4c0.3-0.1,0.6-0.1,0.9-0.2c0.8-0.1,2.4-0.5,2.8-0.4c0.4,0.1,0.6-0.1,1.1-0.2c0.5-0.1,1.4,0,1.9-0.4
		c2.1,0,4-0.4,5.9-1c1.3,0.3,2.8-0.4,4.2-0.5c0.7-0.8,0.6-1.2,0.3-2c-0.1-0.3-0.1-0.7-0.2-0.9c0-0.1-0.3-0.1-0.4-0.2
		c-0.4-0.9-0.8-2.1-1.2-3.1c-0.6-1.5-1.7-3.6-2-5c-0.2-0.1-0.3-0.2-0.5-0.3c-0.6-2.8-2.4-5.3-3.1-8.1c-0.7-0.3-0.5-1.8-1.6-2.1
		c-0.4-0.1-0.5,0.3-1,0.3c-1.3,2.3-2.5,4.6-3.8,6.9c-0.3-0.1-0.7-0.3-1.2-0.5c-0.6-0.3-1.1-0.6-1.5-0.8c-1.4-0.6-3.6-1-5.1-1.4
		c-0.2,0-0.2,0.1-0.5,0c-1.4-0.4-3.1-0.1-4.5-0.4c-0.8,0.4-1.7,0.5-2.7,0.7c-1.4,0.3-3,1-4.5,1.4c-1.1,1-2.5,1.6-3.4,2.4
		c-0.3,0.3-0.6,0.9-1.1,0.8C76.4,245.9,74.3,247.5,73.4,250.1"/>
	<path class="st10" d="M121.5,295.4c-1.6-2-3.3-4.1-4.9-6.1c0.2-0.3,0.5-0.5,0.9-0.9c1.7-1.5,2.7-2.7,3.7-4.3c0.4-0.6,1-1.2,1.3-1.8
		c0-0.1-0.2-0.2-0.1-0.3c0.5-0.7,1-1.7,1.3-2.5c0.3-0.8,0.6-1.7,0.8-2.7c0-0.3-0.1-0.6,0-0.9c0.1-0.3,0.4-0.6,0.4-0.9
		c0.1-1.3-0.3-2.7,0.1-4c-0.4-1-0.5-1.9-0.7-2.9c0-0.3-0.2-0.7,0-0.9c-0.5-0.6-0.6-1.2-0.6-1.7c-1-1.4-1.7-3.5-2.7-5
		c-0.3-0.5-0.8-1.4-1.6-1.3c0.2,0.3,0.2,0.8,0.3,1.2c0,0.2,0,0.5,0,0.7c0,0.5,0.1,1.3,0.1,1.9c0,0.4-0.3,1,0.2,1.1
		c-0.4,0.8-0.4,1.7-0.6,2.5c-0.2,0.8-0.5,1.6-0.6,2.5c-0.5,0.4-0.7,1.1-1,1.7c-0.3,0.7-0.7,1.3-1.1,2c-0.2,0.3-0.2,0.1,0.1,0.3
		c-2.2,2.5-3.8,5-7.1,7.4c-1.6-2-3.2-4-4.9-6c-0.3,0.1-0.6-0.2-0.9-0.2c-1.3,0.6-1.1,2.1-1.5,3.4c-0.4,1.5-0.7,3.3-1.1,5
		c-0.1,0.5-0.2,0.9-0.3,1.4c-0.1,0.3-0.2,0.8-0.2,1.3c-0.1,0.7-0.6,1.4-0.7,2.1c-0.1,0.3,0,0.7-0.1,1.2c-0.2,0.7-0.4,1.5-0.5,2.3
		c-0.1,0.6,0,0.8-0.4,1.4c-0.5,0.9-0.3,2.8-0.8,3.8c0.2,0.6,0.4,0.6,0.9,1.1c2.7-0.1,5.4-0.2,8.1-0.3c0.9,0,1.9,0,2.7,0.2
		c0.5-0.5,1.5-0.1,2.3-0.2c0.2,0,0.3,0,0.4,0c0.7,0,1.4-0.1,2.3-0.2c0.2,0,0.5,0.2,0.7,0.2c0.3,0,0.5-0.2,0.7-0.2
		c1,0,2.1,0.3,3.1-0.1C120.1,297.4,121.8,296.6,121.5,295.4"/>
	<path class="st11" d="M65.3,281.3c0.1,0,0.2,0.1,0.4,0.1c0.2,0,0.1,0.1,0.2,0.2c0.1,0.1,0.2,0.2,0.4,0.2c0.2,0,0.3,0.2,0.4,0.3
		c0.1,0.1,0.4,0.1,0.4,0.1c-0.3,0.1-0.2,0.2,0,0.2c0.2,0,0.5,0.1,0.5,0.1c-0.2,0,0,0.2,0.1,0.2c0.1,0.1,0.3,0.2,0.5,0.2
		c0.2,0,0.3,0.1,0.5,0.2c0.2,0,0.3,0.1,0.3,0.1c-0.2,0.1-0.5,0.1-0.7,0.1c-0.2,0-0.3,0-0.6,0.1c-0.2,0.1-0.5,0.2-0.7,0.3
		c-0.2,0.1-0.4,0.2-0.6,0.3c-0.1,0.1-0.2,0.2,0,0.2c0.2,0,0.3,0.2,0.4,0.3c0.1,0,0.4,0.3,0.5,0.4c0.1,0.1,0.1,0.2,0.3,0.3
		c0.1,0.2,0.2,0.2,0.4,0.2c0.1,0.1,0.3,0.2,0.3,0.2c-0.1,0-0.3,0.2-0.2,0.2c0.1,0,0.2,0.2,0.4,0.3c0.2,0.1,0.5,0.3,0.7,0.4
		c0.2,0,0.4,0.2,0.6,0.2c0.2,0,0.2,0.2,0.2,0.2c-0.2,0-0.2,0.1,0,0.2c0.2,0,0.5,0.3,0.7,0.4c0.2,0,0.2,0.2,0.4,0.2
		c0.2,0,0.3,0.1,0.6,0.1c0.2,0,0.3,0.1,0.5,0.2c0.2,0,0.3,0.2,0.4,0.2c0.1,0.1,0.3,0,0.4,0c0.2,0,0.7,0.2,0.9,0.2
		c0.2,0,0.2,0.1,0.4,0.1c0.2,0,0.5,0,1,0.1c0.4,0,0.8,0,0.8,0s0.8,0.3,1.4,0.4c0.5,0.1,1.4,0.1,1.9,0.1c0.5,0,0.9-0.1,1.1-0.2
		c0.2,0,0.4,0.1,0.5,0.1c0.3,0.5,0.8,0.8,1.1,1.1c0.5,0.4,1.3,0.8,1.6,1.1c0.4,0.2,0.9,0.4,1,0.5c0.1,0.1,0.2,0.1,0.3,0.1
		c0.1,0,1.4,0.6,2,0.8c0.7,0.2,1.3,0.5,1.9,0.7c0.6,0.2,0.8,0.3,1,0.4c0.1,0.1,0.2,0.3,0.4,0.2c0.1,0,0.1-0.3,0.1-0.3s0.2,0,0.2-0.2
		c0.1-0.3-0.1-0.4-0.2-0.5c-0.2-0.1-1-0.3-1.6-0.4c-0.6-0.1-2.3-0.6-3.6-1.2c-1.4-0.6-2.3-1.2-2.7-1.5c-0.4-0.4-0.8-0.6-1.3-1.4
		c0,0,0.1-0.5,0.4-1c0.3-0.6,0.5-1.1,0.8-1.3c0.3-0.3,0.4-0.4,0.6-0.9c0.2-0.4,0.4-1,0.9-1.8c0.5-0.8,0.6-1.1,0.9-1.4
		c0.3-0.3,0.5-0.6,0.5-0.8c0.1-0.1,0.1-0.4,0.3-0.5c0.2-0.1,0.2-0.4,0.3-0.5c0.1-0.1,0.3-0.5,0.4-0.7c0.2-0.2,0.2-0.6,0.3-0.9
		c0.1-0.3-0.1-0.3-0.2-0.2c0,0,0.2-0.1,0.2-0.3c0-0.2,0.2-0.3,0-0.5c0,0,0.2,0,0.3-0.2c0-0.2,0.1-0.6,0.2-0.7
		c0.1-0.1-0.2-0.2-0.3-0.1c0,0,0.1-0.2,0.2-0.3c0.2-0.2,0.2-0.6,0.2-0.8c0-0.2-0.2-0.2-0.2-0.2s0.2-0.2,0.2-0.3c0-0.2,0-0.4,0-0.6
		c0-0.2,0-0.3,0-0.5c0.1-0.1-0.1-0.3-0.2-0.3c-0.2,0-0.4,0-0.7,0c-0.2,0-0.7,0.2-0.8,0.3c-0.1,0.1-0.2,0.2-0.4,0.3c0,0,0-0.1,0-0.3
		c0.1-0.2,0.2-0.4,0.2-0.6c0.1-0.3,0.2-0.6,0.3-0.7c0.1-0.2,0-0.4-0.1-0.3c0,0,0.1-0.3,0.2-0.5c0-0.2,0.1-0.5,0.1-0.7
		c0-0.2,0-0.5-0.1-0.6c-0.1-0.1-0.1-0.2,0-0.3c0.1-0.1,0.1-0.3,0.2-0.6c0-0.2-0.1-0.2-0.3,0c0,0,0.1-0.2,0.1-0.3
		c0-0.1-0.1-0.5-0.2-0.6c-0.1-0.2-0.3,0-0.3,0c0,0,0-0.2,0-0.4c0-0.2-0.1-0.6-0.2-0.6c-0.1-0.1-0.3-0.1-0.3-0.1s0.1-0.1,0-0.3
		c-0.1-0.1-0.2-0.3-0.2-0.5c0-0.1-0.1-0.1-0.3-0.1c-0.2,0.1-0.4,0.1-0.5,0.2c-0.1,0.1-0.1,0.1-0.2,0.1c-0.1,0-0.4,0.1-0.6,0.3
		c-0.2,0.2-0.3,0.4-0.7,0.6l0.1-0.4c0-0.2,0.1-0.4,0-0.6c-0.1-0.2,0-0.3,0-0.5c-0.1-0.2-0.2-0.4-0.2-0.7c0-0.3-0.1-0.5,0-0.7
		c0.1-0.2-0.1-0.4-0.1-0.6c0-0.1,0-0.3-0.1-0.6c-0.1-0.2-0.2-0.5-0.3-0.6c-0.1-0.1-0.2,0-0.2,0.1c0,0-0.1-0.2-0.1-0.4
		c0-0.2-0.2-0.4-0.3-0.5c-0.1-0.1-0.2,0-0.3,0.1c0,0-0.2-0.5-0.2-0.7c-0.1-0.2-0.1-0.4-0.2-0.3c-0.2,0-0.4,0.1-0.4,0.2
		c-0.1,0.1-0.3,0.1-0.4,0.1c-0.2,0-0.2,0.1-0.4,0.2c-0.1,0.1-0.2,0.2-0.5,0.4c-0.1,0.1-0.1,0.3-0.3,0.4c0,0-0.2-0.6-0.3-0.7
		c-0.1-0.1-0.3-0.7-0.4-0.8c-0.1-0.1-0.2,0-0.2-0.1c0-0.1-0.3-0.9-0.5-1c-0.1-0.1-0.3-0.1-0.3,0.1c0,0-0.3-0.7-0.4-0.8
		c-0.1-0.1-0.2,0-0.2,0.1c0,0-0.3-0.5-0.5-0.7c-0.1-0.1-0.2,0.1-0.3,0.2c-0.1,0.1-0.2,0.3-0.4,0.4c-0.2,0.1-0.2,0.3-0.6,0.5
		c0,0-0.1-0.2-0.1-0.4c0-0.2-0.2-0.4-0.3-0.5c-0.1-0.2-0.2-0.2-0.3-0.3c-0.1-0.1-0.2,0-0.3-0.1c-0.1-0.2-0.3-0.4-0.3-0.5
		c0-0.1-0.1,0-0.1,0.2c0,0-0.3-0.3-0.4-0.4c-0.1-0.1-0.2-0.2-0.3-0.3c-0.1-0.1-0.2,0-0.2,0.1c0,0.1,0.1,0.3-0.1,0.4
		c-0.2,0.1-0.2,0.3-0.4,0.4c-0.2,0.1-0.3,0.2-0.3,0.2s0-0.2-0.1-0.4c-0.1-0.1-0.2-0.3-0.3-0.4c-0.1-0.1-0.2,0-0.3-0.1
		c-0.2-0.1-0.3-0.3-0.6-0.5c-0.1,0-0.1,0.1-0.2,0.2c0,0.1-0.4,0.2-0.5,0.3c0,0-0.1-0.2-0.2-0.3c-0.1-0.1-0.2-0.2-0.2-0.2
		c-0.1-0.1-0.2,0-0.3-0.1c-0.1-0.1-0.1-0.1-0.2-0.2c-0.1-0.1-0.2,0-0.3,0.1c-0.1,0.1-0.2,0.1-0.3,0.1c-0.1,0-0.4-0.5-0.5-0.5
		c-0.1,0-0.1,0.1-0.2,0.2c0,0-0.3,0.1-0.3,0.2c0,0.1,0,0.3,0,0.4c-0.1,0-0.2,0.1-0.2,0.1s0-0.2-0.1-0.1c-0.1,0.1-0.2,0.2-0.2,0.4
		c0,0.2-0.1,0.3-0.1,0.5c0,0.1,0.1,0.3,0.1,0.3s-0.2,0.1-0.3,0.1c-0.1,0-0.3-0.1-0.2,0c0,0.1,0,0.2,0,0.3c0,0.1,0.1,0.1,0.1,0.1
		s-0.1,0.1-0.2,0.2c0,0.1-0.2,0.2-0.1,0.3c0,0.1,0,0.1,0,0.3c0,0.2,0.1,0.3,0.1,0.3s-0.2,0.1-0.3,0c-0.1,0-0.2-0.1-0.3,0
		c-0.1,0.1,0,0.4-0.1,0.5c-0.1,0.1,0,0.2-0.1,0.4c-0.1,0.1-0.1,0.3-0.1,0.4c0,0.1,0,0.2,0.1,0.3c0,0.1,0.1,0.2,0.1,0.2
		s-0.1,0.2-0.2,0.2c-0.1,0-0.3-0.1-0.5-0.1c-0.2,0-0.3,0.1-0.4,0.1c-0.2,0-0.4,0-0.5,0c-0.1,0-0.2,0.1-0.1,0.2
		c0.1,0.1,0.2,0.4,0.2,0.5c0,0.1-0.1,0.2-0.1,0.3c0.1,0.1,0.2,0.3,0.1,0.5c-0.1,0.2,0,0.2-0.1,0.4c-0.1,0.1,0.1,0.3,0.1,0.5
		c0,0.2,0.1,0.4,0.2,0.5c0.1,0.2,0.2,0.2,0.3,0.5c0,0-0.1,0-0.3,0c-0.2,0-0.4-0.1-0.7,0c-0.3,0.1-0.6,0.1-0.8,0.1
		c-0.2,0-0.3,0.1-0.1,0.2c0.2,0.1,0.2,0.3,0.2,0.5c0,0.2,0.1,0.3,0.1,0.4c0.1,0.2,0.1,0.3,0.1,0.3s-0.1,0.1-0.3,0.1
		c-0.1,0,0,0.1,0,0.2c0.1,0.1,0.2,0.2,0.2,0.4c0,0.2,0.2,0.3,0.2,0.3s-0.1,0.1-0.2,0.1c-0.1,0,0,0.1,0.1,0.2
		c0.1,0.1,0.2,0.3,0.2,0.5c0,0.2,0.2,0.3,0.3,0.4c0,0.1,0.2,0.2,0.2,0.2s-0.2,0-0.1,0.1c0,0.1,0.1,0.3,0.2,0.4
		c0.1,0.1,0.2,0.2,0.3,0.4c0,0.1,0.3,0.2,0.5,0.4c0,0-0.1,0.1-0.3,0.1c-0.1,0-0.3-0.1-0.4-0.1c-0.1,0-0.4,0.1-0.6,0.2
		c-0.1,0.1-0.1,0.2-0.3,0.2c-0.2,0-0.4,0.2-0.6,0.2c-0.1,0-0.1,0.1,0,0.2c0.1,0.1,0.2,0.2,0.2,0.4c0,0.1,0.2,0.2,0.2,0.2
		s0,0.1-0.2,0.1c-0.1,0-0.1,0.1,0,0.2c0.1,0.1,0.2,0.2,0.2,0.4c0,0.2,0.3,0.3,0.3,0.3s-0.1,0.2-0.2,0.2c-0.1,0-0.1,0.1,0,0.3
		c0.1,0.1,0.2,0.3,0.2,0.4c0,0.1,0.2,0.1,0.2,0.2c0,0.1,0.5,0.4,0.5,0.4s-0.1,0.1-0.2,0.1c-0.1,0,0.1,0.1,0.1,0.2
		c0.1,0.1,0.3,0.2,0.3,0.4c0,0.2,0.4,0.3,0.4,0.3s-0.1,0.1,0,0.2c0.1,0.1,0.2,0.1,0.3,0.3c0.1,0.1,0.2,0.2,0.3,0.3
		c0.1,0,0.4,0.1,0.4,0.2c0,0-0.3,0.1-0.4,0.1c-0.2,0-0.3-0.1-0.5,0c-0.2,0-0.4,0.1-0.7,0c-0.3-0.1-0.5-0.2-0.7-0.1
		c-0.2,0.1-0.6,0.2-0.7,0.3c-0.1,0.1-0.1,0.1-0.2,0.1c-0.1,0-0.3,0.1-0.4,0.2c-0.1,0.1-0.2,0.2-0.1,0.2c0.1,0.1,0.1,0.3,0.2,0.4
		c0.1,0.1,0.2,0.1,0.2,0.1s-0.1,0.2-0.1,0.2c0,0.1,0.2,0.3,0.3,0.4c0.1,0.1,0.3,0.2,0.3,0.2c-0.1,0-0.3,0.1-0.2,0.2
		c0.1,0.1,0.2,0.4,0.3,0.4c0.1,0.1,0.3,0.1,0.3,0.1c-0.2,0-0.3,0.1-0.1,0.2c0.2,0.1,0.3,0.2,0.5,0.2c0.1,0,0.3,0.1,0.2,0.2
		c0,0.1,0.1,0.3,0.3,0.4c0.2,0.1,0.4,0.2,0.5,0.3c0.1,0.1,0.4,0.1,0.4,0.1c-0.1,0-0.1,0.2,0.1,0.2C64.8,281.2,65,281.2,65.3,281.3"
		/>
</g>
<rect x="162.3" y="93.2" class="st3" width="491.7" height="364.6"/>
<text transform="matrix(1 0 0 1 162.2949 122.7388)"><tspan x="0" y="0" class="st12 st13 st14">Naturally breathable</tspan><tspan x="0" y="81.6" class="st12 st13 st14">GM free corn based film</tspan><tspan x="0" y="163.1" class="st12 st13 st14">Natural and renewable material </tspan><tspan x="0" y="244.7" class="st12 st13 st14">Chlorine and fragrance free  </tspan><tspan x="0" y="326.2" class="st12 st13 st14"> </tspan><tspan x="11.1" y="326.2" class="st12 st13 st14"> </tspan></text>
</svg>
