<?xml version="1.0" encoding="utf-8"?>
<!-- Generator: Adobe Illustrator 19.2.1, SVG Export Plug-In . SVG Version: 6.00 Build 0)  -->
<svg version="1.1" id="Layer_1" xmlns="http://www.w3.org/2000/svg" xmlns:xlink="http://www.w3.org/1999/xlink" x="0px" y="0px"
	 viewBox="0 0 740 641.9" style="enable-background:new 0 0 740 641.9;" xml:space="preserve">
<style type="text/css">
	.st0{opacity:0.23;}
	.st1{fill:#5FB6B4;}
	.st2{fill:none;}
	.st3{fill:#E65E67;}
	.st4{fill:#74A241;}
	.st5{fill:#FAD11E;}
	.st6{fill:#FAE19E;}
	.st7{fill:#67873A;}
	.st8{fill:#705F26;}
	.st9{font-family:'FuturaStd-Light';}
	.st10{font-size:35.8374px;}
</style>
<g>
	<g class="st0">
		<g>
			<g>
				<defs>
					
						<rect id="SVGID_1_" x="62.7" y="152.9" transform="matrix(0.9997 -2.310112e-02 2.310112e-02 0.9997 -4.2178 2.2077)" width="61.5" height="61.5"/>
				</defs>
				<clipPath id="SVGID_2_">
					<use xlink:href="#SVGID_1_"  style="overflow:visible;"/>
				</clipPath>
			</g>
		</g>
	</g>
	
		<rect x="66.3" y="190.4" transform="matrix(0.8969 -0.4423 0.4423 0.8969 -74.8691 62.8709)" class="st1" width="62.2" height="3.1"/>
	<path class="st1" d="M72.1,157.6c-0.2-0.3-5.4,11-6.2,13c-0.8,2-0.5,5.4,0.7,7.1c1.3,1.7,4.1,3.2,6.1,3.2s5-1.4,6.2-4.4
		c1.3-3,0.2-5.8-0.5-7.4C77.7,167.5,72.9,158.2,72.1,157.6"/>
	<path class="st1" d="M85.1,139.8c-0.3-0.2-5.4,11.1-6.2,13.1c-0.8,2-0.5,5.4,0.7,7.1c1.3,1.7,4.1,3.2,6.1,3.2s5-1.4,6.2-4.4
		s0.2-5.8-0.6-7.4C90.6,149.8,85.9,140.4,85.1,139.8"/>
	<path class="st1" d="M101.9,148.9c-0.3-0.2-5.4,11.1-6.2,13.1c-0.8,2-0.5,5.4,0.7,7.1c1.3,1.7,4.1,3.2,6.1,3.2s5-1.4,6.2-4.4
		c1.3-3,0.2-5.8-0.5-7.3C107.5,158.9,102.7,149.5,101.9,148.9"/>
	<path class="st1" d="M121.6,169.3c0,0-3.9,5.4-12.8,9.8c-8.8,4.4-14,4.2-15.9,4.4c-1.6,0.3-7.1,0-15.9,4.4
		c-8.8,4.4-12.8,9.8-12.8,9.8l1.7,3.5c0,0,3.9-5.4,12.8-9.8c8.8-4.4,14.3-4,15.9-4.4c1.9-0.2,7.1,0,15.9-4.4
		c8.8-4.4,12.8-9.8,12.8-9.8L121.6,169.3z"/>
	<line class="st2" x1="90.2" y1="201.9" x2="98.4" y2="217.4"/>
	<polygon class="st1" points="89.3,202.4 91.2,201.4 99.3,216.9 97.4,217.9 	"/>
	<polygon class="st1" points="88,207 89,207.3 90.4,202.2 95.4,204 95.7,203 89.7,200.8 	"/>
	<line class="st2" x1="112" y1="217.3" x2="103.8" y2="201.8"/>
	<polygon class="st1" points="113,216.8 111.1,217.8 102.9,202.2 104.8,201.3 	"/>
	<polygon class="st1" points="114.2,212.1 113.2,211.8 111.8,216.9 106.9,215.2 106.5,216.2 112.6,218.3 	"/>
	<line class="st2" x1="111.8" y1="190.6" x2="119.9" y2="206.1"/>
	<polygon class="st1" points="110.8,191.1 112.7,190.1 120.9,205.6 119,206.6 	"/>
	<polygon class="st1" points="109.6,195.7 110.6,196 112,190.9 116.9,192.7 117.3,191.7 111.2,189.6 	"/>
</g>
<g>
	<rect x="63.6" y="396" class="st2" width="62.7" height="62.7"/>
	<rect x="63.6" y="396" class="st2" width="62.7" height="62.7"/>
	<path class="st3" d="M100.8,421.7c-0.8-0.4-2.6,2.6-2.4,5.6c0.2,3.1,1.8,4.3,3.6,4.2C103.8,431.3,104.3,423.5,100.8,421.7"/>
	<path class="st3" d="M114.3,398.5c-14.2-8-20.1,15.3-20.1,15.3c-2.5-14.9-14.3-17.1-19.3-14.3c-5,2.7-11.2,13-2.8,27.9
		c8.5,14.9,18.9,30.2,22.4,30.6c0,0,17.9-19.6,21.3-27.7C119.3,422,128.5,406.5,114.3,398.5 M93.8,429c-0.2,1.9,0,3.1-0.7,3.3
		c-0.7,0.1-1.4,0-2-0.5s-1.6-1.9-2.3-2.8c-0.7-0.9-1.7-1.7-2-2c-0.4-0.2-0.5,0.8-0.6,1.5c-0.1,0.8,0,2,0.1,3.1
		c0,1.1-0.4,1.6-1.1,1.5s-0.6-2.7-0.7-3.8c-0.1-1.1-0.2-3.3-0.3-5.2c-0.2-1.9,0.2-2.1,0.7-2.2c1-0.2,2.7,2.5,3.6,3.9s2.8,4,3.1,3.2
		c0.3-0.8,0.1-3.1,0.3-5c0.2-1.9,0.4-3.4,0.9-3.4c0.5-0.1,1.5,1.3,1.6,2C94.3,423.2,94,427.1,93.8,429 M99.1,433.2
		c-3-1.9-3.2-6.5-2.4-9.3c0.9-2.8,2.5-3.4,3.5-3.7c2.5-0.5,5.3,2.8,5.5,6.9C106.1,431.2,102.1,435.1,99.1,433.2"/>
</g>
<g>
	<g class="st0">
		<g>
			<g>
				<defs>
					<rect id="SVGID_3_" x="54.4" y="233.4" width="62.3" height="62.3"/>
				</defs>
				<clipPath id="SVGID_4_">
					<use xlink:href="#SVGID_3_"  style="overflow:visible;"/>
				</clipPath>
			</g>
		</g>
	</g>
	<path class="st4" d="M75.9,297.5c0.6,0.4,1.5,0.1,1.5-0.8s0.4-2.1,1.3-2.3c0.9-0.2,0.4-0.9,2.2-0.8c1.8,0.1,3.4-0.1,6.9-4.8
		c3.5-4.7,6.5-7.3,7.7-9.2c1.2-1.8,5.6-9.1,6.4-9.2c0.7,0,3,1.3,3.9,3.7c0.8,2.4,3.7,6.6,5.3,10.1c1.7,3.4,3.6,5.8,4.3,6.1
		c0.7,0.4,0.8-0.1,1.4,0.1c0.6,0.2-0.6-1.4-1.8-3.6c-1.1-2.2-3.5-7.7-4.6-10.7c-1-3-2.7-3.7-4.2-4.8c-1.5-1.2-1.9-2.7-2.7-3.1
		c-0.8-0.5-3.8,2-4.9,2.3c-1.1,0.3,1.6-3,3.2-6.1s5.3-9.7,7.2-13.4c1.9-3.7,4.8-8.6,6.1-11.9c1.3-3.3,2.7-5.7,2.6-6.3
		c-0.2-0.5,0-0.9-1.8,0.5s-3.6,3.7-5.1,4.8S106,244,106,244l-11.1,7.3l-2.6-1.6c0,0,0.5-2.8,0.7-5.5c0.2-2.8,2.9-6.4,3.9-9.9
		c0.9-3.4,1.7-4.9,2.1-6.1c0.4-1.2,1-2,0.1-1.5s-1.1,2-1.8,3.2c-0.7,1.2-2.3,2.7-3.1,4.2c-0.8,1.4-5,10.1-6.2,12.9
		c-1.2,2.8-3.3,9.7-4.6,12.1c-1.3,2.4-5.5,10-6,11.3c-0.5,1.2,3-7.7,3.5-10.8c0.4-3.1-0.5-2.2-1.7-3.8c-1.2-1.6-2.3-2.2-2.3-2.2
		s-1.2-1.1-6.1-1.5s-7.3-1.9-8.7-3.1c-1.4-1.2-2.5-1.2-2.5-1.2s1,2.1,1.2,3.8c0.2,1.6,1.6,2.2,3.1,2.2c1.5-0.1,1.8,0.2,4.6,1.8
		c2.8,1.7,3.9,3.4,5.5,3.6c0,0,0.1,1.3,0.1,5.7s-0.7,11.4-1.3,12.5c-0.6,1.1-1.6,3.9-2.2,5.8c-0.6,1.9-1.7,3.4,0,4.6
		c1.7,1.2,1.3,1.6,1.1,1.9"/>
	<path class="st4" d="M71.8,289.6c-0.3,0.6-1,1.7-1.3,2.3c0,0,0,0.9-0.5,0.9s-1.5,0.4-0.7,1.9s1.3,0.8,2,0.9c0.7,0,1.3,0.8,2.2,1.1
		c0.9,0.3,1.8,0.4,2.4,0.8"/>
	<path class="st5" d="M105.9,238.6c0,0-1.5-2-3,0c0,0-0.7-0.3-1.6,0.2c-0.8,0.5-1.1,0.8-0.8,1.2c0,0-0.6,0.2-0.7,0.8c0,0-1,0.3-1,1
		c0,0-0.9,0.6-1,1c0,0-1,0.3-1.1,1.2c0,0-0.5,0.5-1,1.2c0,0-0.9,0.8-1.8,2.2s-3.2,3.2-3.7,4.8s-3,5.9-5.1,10.3s-3.9,8.9-6.4,13.4
		c-2.5,4.4-6.2,10-6.5,11.7c-0.3,1.7-0.6,4.1,1.1,4.5c1.6,0.5,2.8,0.7,4,1.4c1.1,0.7,2.7,1.9,4.2,0.5c1.5-1.5,5.2-9.1,7.4-11.8
		c2.2-2.7,4.5-4.5,4.5-4.5s4.3-8.9,5.5-11s2.7-3.4,3.1-5.1c0.4-1.7,1.3-3.6,1.5-5c0.2-1.4,0.9-1,1.1-2.2c0,0,0.5-1.1,0.5-1.9
		c0,0,0.8-0.7,0.3-1.6c0,0,0.5-0.4,0.1-1c0,0,0.7-0.7,0.4-1.8c0,0,0.4-0.3,0.3-1c0,0,1.1-0.7,0.5-1.8c0,0,0.5-0.3,0.2-0.8
		c0,0,1-1.2,0.2-1.8c0,0,0.9-1.1-0.3-2.2c0,0,0.8-0.7,0.7-1.2C107.4,239.1,106.4,238.2,105.9,238.6"/>
	<path class="st6" d="M103.7,238.7c0.2,0.5,0.7,1.1,1.3,1c0.3,0,0.8-0.5,0.6-0.8"/>
	<path class="st6" d="M104.1,241.2c0.2-0.6,1-0.1,0.7,0.4S104,242,104.1,241.2C104.1,241.3,104.1,241.3,104.1,241.2"/>
	<path class="st6" d="M106.8,241c-0.3,0-0.6,0-0.9-0.2c-0.5,0.4-0.7,0.8-0.3,1.3c0.3,0.5,1,1,1.6,0.8"/>
	<path class="st6" d="M101.8,239.4c0.3,0.2,0.6,1,0.3,1.2c-0.3,0.3-1.1-0.1-1.3-0.4"/>
	<path class="st6" d="M105.9,245.3c-0.3-0.3-0.9-0.8-1.4-0.6c-0.6,0.2-0.4,0.9,0,1.2c0.4,0.4,0.9,1,1.4,0.6
		C106.3,246.2,106.4,245.6,105.9,245.3"/>
	<path class="st6" d="M104,247.9c-0.1-0.5-1.7-1.3-1.9-0.6c-0.2,1.1,2.1,1.5,1.7,0.6"/>
	<path class="st6" d="M101.2,246c-0.4,0-1.2-0.2-1.5,0.1c-0.3,0.4,0.3,1.4,0.8,1.5c0.2,0,1.1-0.4,1.2-0.5c0.4-0.4,0.1-0.8-0.4-1"/>
	<path class="st6" d="M99.7,241.7c-0.4-0.4-1.4,1.1-0.2,1.2C100.2,243,100.2,242.1,99.7,241.7"/>
	<path class="st6" d="M100,243.6c-0.4-0.2-1.6-0.5-1.9-0.2c-0.4,0.3-0.1,1.1,0.2,1.3c0.4,0.3,0.9,0.3,1.3-0.1
		c0.4-0.4,0.3-0.7,0.1-1.1"/>
	<path class="st6" d="M102.6,249.4c-0.4-0.2-0.8-0.4-1.2-0.3c-0.4,0.1-0.9,0.4-0.7,0.8c0.3,0.6,2.3,0.5,1.8-0.4"/>
	<path class="st6" d="M102.8,250.6c-0.3-0.2-1.4-0.1-1.6,0.2c-0.5,0.6,0.7,1.3,1.2,1.3c0.4,0.1,1.2-0.5,1.2-1s-0.6-0.8-1-0.8"/>
	<path class="st6" d="M105.4,248.7c-0.3-0.2-0.9-0.3-1.2-0.2c-0.6,0.2-0.3,0.6,0,1c0.4,0.5,0.6,0.7,1.1,0.2
		C105.8,249.3,105.7,249.1,105.4,248.7"/>
	<path class="st6" d="M97.6,248.7c-0.3-0.2-0.9-0.9-1.3-0.9c-0.6,0-0.4,1.1-0.2,1.5C96.5,249.8,97.9,249.6,97.6,248.7"/>
	<path class="st6" d="M98.8,249.3c-0.4-0.3-1.3,0.1-0.9,0.7c0.2,0.2,0.3,0.1,0.5,0.2c0.4,0,0.5,0.2,0.9,0.4s0.8,0,0.6-0.6
		C99.6,249.3,99.1,249.4,98.8,249.3"/>
	<path class="st6" d="M103.5,242.4c-0.3-0.4-1.7-0.8-2.1-0.6c-1.4,0.7,1.2,1.1,1.4,1.3c0.5,0.2,0.8,0.6,0.8,1.1
		c0,0.3-0.2,0.7-0.4,0.9c-0.4,0.3-0.5-0.1-0.8-0.4c-0.3-0.2-0.6-0.2-0.9-0.4c-1.2-0.5,0.1-1.4,0.9-1.2c0.4,0.1,0.9,0.2,1.2,0
		c0.4-0.3,0.3-0.6-0.1-0.9"/>
	<path class="st6" d="M105.4,243.4c-0.4-0.5-1.1-0.7-1.4-0.2c-0.4,0.7,0.2,0.8,0.7,0.9c0.5,0.1,0.9,0.6,1.3,0.1
		c0.3-0.4-0.1-0.7-0.4-0.9"/>
	<path class="st6" d="M102.2,245.2c-0.3-0.4-1.1-0.8-1.6-0.5c-0.9,0.6,0.6,1.1,1,1.3c0.3,0.1,1,0.9,1.1,0.4s-0.6-1.1-0.9-1.4"/>
	<path class="st6" d="M105.5,247.3c-0.2-0.2-0.9-0.4-1,0c-0.1,0.3,0.6,0.6,0.9,0.7c0.8,0.2,0.5-0.6,0-0.8"/>
	<path class="st6" d="M97.9,245.3c-0.3-0.1-0.8,0-1,0.3c-0.4,0.5,0.3,1.3,0.9,1.3c1,0.1,0.7-1.4,0-1.8"/>
	<path class="st6" d="M99.9,247.8c-0.6-0.3-1-0.7-1.4-0.1c-0.7,0.9,0.6,1,1.2,1.2c0.4,0.1,1,0.6,1-0.2
		C100.7,248.3,100.1,248,99.9,247.8"/>
	<path class="st6" d="M95.4,249c0-0.4-0.3-1-0.8-1.2c-0.3-0.1-0.9,0.1-0.8,0.6c0,0.3,0.4,0.4,0.5,0.6c0.1,0.2,0.3,0.7,0.5,0.7
		c0.3,0.1,0.6-0.4,0.5-0.7"/>
	<path class="st6" d="M97.2,250.1c-0.2-0.1-1.1-0.4-1.3-0.3c-0.7,0.3-0.1,0.9,0.3,1.1c0.3,0.2,0.8,0.4,1.1,0.1
		C97.4,250.7,97.4,250.2,97.2,250.1"/>
	<path class="st6" d="M98.8,250.6c-0.4-0.2-1.4-0.3-0.9,0.4c0.2,0.2,0.5,0.4,0.8,0.5c0.3,0.2,0.5,0.8,0.8,0.8
		c0.4,0.1,0.9-0.8,0.8-1.1C100.1,250.6,99.1,250.8,98.8,250.6"/>
	<path class="st6" d="M101.2,252c-0.8-0.1-0.6,0.4-0.3,0.8c0.4,0.5,0.7,1.2,1.4,0.9c0.9-0.4,0.4-0.8-0.2-1.2
		c-0.3-0.2-0.8-0.5-1.1-0.7"/>
	<path class="st6" d="M104.1,253.3c-0.5-0.2-1.8,1.1-0.7,1.3C104.1,254.8,104.6,253.8,104.1,253.3"/>
	<path class="st6" d="M104.3,251.6c-0.3,0.3-0.7,0.3-1,0.6c-0.3,0.4,0.4,0.6,0.8,0.6c0.3,0,0.9,0,0.9-0.5
		C105.1,252,104.5,251.6,104.3,251.6"/>
	<path class="st6" d="M105.1,250.7c-0.1-0.1-0.8-0.4-1-0.3c-0.2,0.2,0.1,0.4,0.2,0.5s0.4,0.3,0.6,0.2c0.3-0.1,0.2-0.4,0.1-0.6"/>
	<path class="st6" d="M98,252.4c-0.4-0.2-1-0.8-1.5-0.3c-0.6,0.6,0.6,1,1,1.3c0.2,0.2,0.3,0.6,0.6,0.7c0.3,0.1,0.6,0,0.7-0.4
		c0.2-0.6-0.6-1.3-1-1.5"/>
	<path class="st6" d="M99.5,254.2c-0.4,0-0.6-0.1-0.8,0.2c-0.3,0.4,0.2,0.7,0.6,0.8c0.3,0.1,0.6,0.1,0.6-0.3c0-0.4-0.6-0.6-0.6-0.7"
		/>
	<path class="st6" d="M100.9,254.6c-0.4-0.1-0.6,0.4-0.4,0.7c0.1,0.3,0.5,0.4,0.6,0.7c0.1,0.2,0.1,0.5,0.4,0.5
		c0.2,0,0.5-0.1,0.6-0.3c0.3-0.3,0.2-0.5,0-0.8c-0.2-0.4-1-1-1.4-0.9"/>
	<path class="st6" d="M95.8,251.2c-0.4-0.3-1.4-0.6-1.3,0.3c0,0.4,0.5,0.7,0.8,1c0.2,0.2,0.5,0.6,0.1,0.8c-0.4,0.1-1.5-0.6-1.7-0.9
		c-0.3-0.6,0.6-0.5,0.9-0.3c0.4,0.2,0.8,0.6,1.3,0.4C96.7,252.1,96.2,251.4,95.8,251.2"/>
	<path class="st6" d="M93.9,250.6c-0.2,0-0.8-0.3-1-0.1c-0.4,0.3,0.4,0.8,0.7,0.9c0.9,0.1,0.7-1,0-1"/>
	<path class="st6" d="M97.1,253.7c-0.3-0.2-1-0.6-1.3-0.2c-0.3,0.4,0.7,1,1.1,1.2c0.7,0.4,0.5-1.2-0.2-1.2"/>
	<path class="st6" d="M98.2,255.5c-0.5-0.3-0.9-0.6-1.2,0c-0.3,0.7,0.4,0.8,0.9,1c0.3,0.1,0.9,0.5,1.1,0c0.2-0.4-0.6-1-0.9-1.2"/>
	<path class="st6" d="M100.2,256c-0.3-0.4-0.8-0.6-0.9,0c-0.1,0.5,0.6,1.1,1.1,1.2c0.8,0,0.3-1.2-0.3-1.3"/>
	<path class="st6" d="M102.3,257.1c-0.2-0.1-1-0.1-1.2,0c-0.6,0.5,0.3,1,0.7,0.9c0.3,0,1,0,1.2-0.3S102.5,257.2,102.3,257.1"/>
	<path class="st6" d="M92.7,251.9c-1.1-0.8-1.6,1.2-0.4,1.3c0.3,0,0.7-0.4,0.8-0.7c0-0.3-0.4-0.8-0.6-1"/>
	<path class="st6" d="M94.4,253.2c-0.3-0.2-0.8-0.6-1.2-0.4c-0.6,0.4,0.3,1,0.7,1.1c0.3,0.1,0.8,0.4,0.9-0.1
		c0.1-0.4-0.4-0.7-0.8-0.9"/>
	<path class="st6" d="M95.5,254.3c-0.3-0.3-1,0.2-0.8,0.6c0.1,0.2,0.9,0.5,1.2,0.6c0.3,0.1,0.7,0.1,0.6-0.4
		c-0.1-0.4-0.9-0.7-1.2-0.9"/>
	<path class="st6" d="M99.3,257.5c-0.4-0.3-0.9-0.2-0.9,0.4c0,0.6,0.8,1.2,1.3,1.3c1.1,0.2,0-2.1-0.8-2"/>
	<path class="st6" d="M102.1,258.7c-0.2-0.2-1.1-0.2-1.2,0c-0.3,0.4,0.3,0.6,0.6,0.7c0.4,0.1,0.8,0.4,1-0.1c0.2-0.4-0.1-0.8-0.5-0.8
		"/>
	<path class="st6" d="M97.4,256.7c-0.5-0.2-0.7-0.1-1,0.4c-0.3,0.6,0.3,0.7,0.8,0.7c0.3,0.1,0.6,0.2,0.7-0.4c0-0.4-0.4-0.6-0.6-0.8"
		/>
	<path class="st6" d="M95.8,255.8c-0.2-0.1-0.5-0.1-0.7-0.1s-0.6-0.3-0.8-0.2c-0.2,0-0.5,0.3-0.5,0.5c0,0.3,0.5,0.5,0.8,0.6
		s1.1,0.4,1.4,0.1C96.4,256.4,96,256,95.8,255.8"/>
	<path class="st6" d="M93.5,254.2c-0.2-0.1-0.7-0.5-1-0.4c-0.4,0.1-0.4,0.6-0.3,0.9c0.5,0.8,1.8,0,1.2-0.7"/>
	<path class="st6" d="M91.5,253c-0.6,0.1-0.7,1.4,0,1.3c0.6-0.1,0.4-1,0-1.1"/>
	<path class="st6" d="M92.3,255.4c-0.5-0.2-1.2,0.4-0.9,0.9c0.1,0.3,0.5,0.3,0.7,0.5c0.2,0.2,0.4,0.5,0.7,0.6
		c0.8,0.3,0.7-0.9,0.5-1.3c-0.1-0.3-0.4-0.7-0.7-0.8c-0.1,0-0.3,0-0.4,0"/>
	<path class="st6" d="M95.3,257.2c-0.4-0.2-0.8-0.3-1.3-0.2c-0.8,0.2,0,0.6,0.3,1c0.4,0.5,1.3,1.2,1.6,0.1c0.1-0.5-0.5-1.1-1-1.2"/>
	<path class="st6" d="M96.7,258.7c-0.4-0.3-1.3-0.1-1.1,0.5c0.1,0.3,0.9,0.7,1.2,0.8C98,260.1,96.5,258.9,96.7,258.7"/>
	<path class="st6" d="M98.9,259.2c-0.3-0.3-1.3-0.7-1.3,0.1c0,0.4,1,1,1.3,1.1c0.6-0.6,0.3-0.9-0.3-1.3"/>
	<path class="st6" d="M100.3,259.9c-0.4-0.3-0.9-0.1-1,0.4c-0.1,0.4,0.3,0.7,0.7,0.8c0.9,0.3,0.8-0.9,0.2-1.3"/>
	<path class="st6" d="M91.2,254.6c-0.4-0.2-1.2-0.5-1.5,0c-0.3,0.4,0.1,1.1,0.5,1.2c0.7,0.2,1.4-0.7,0.7-1.1"/>
	<path class="st6" d="M91.6,256.9c-0.5-0.3-1-0.3-1.4,0.1c-0.5,0.8,0.8,1.1,1.3,1.5c0.2,0.1,0.4,0.4,0.7,0.3
		c0.3-0.1,0.4-0.5,0.4-0.8c-0.2-0.6-0.8-1-1.3-1.3"/>
	<path class="st6" d="M93.7,258.2c-0.4-0.3-0.7,0.2-0.7,0.6c0,0.5,0.8,0.9,1.2,0.9c1.6,0-0.5-2.1-0.8-1.6"/>
	<path class="st6" d="M95.5,259.9c-0.4-0.2-1.3-0.4-1.4,0.3c-0.1,0.6,1,1,1.4,1.1c1.4,0.2,0.4-1.4-0.4-1.5"/>
	<path class="st6" d="M98,260.6c-0.2-0.4-0.7-0.7-1-0.4c-0.5,0.4-0.1,0.8,0.3,1.1c0.3,0.2,0.6,0.5,0.9,0.1
		C98.3,261.1,98.2,260.8,98,260.6"/>
	<path class="st6" d="M99.3,261.4c-0.7-0.5-1.1,0.7-0.3,1.1C99.8,262.9,99.8,261.9,99.3,261.4"/>
	<path class="st6" d="M99.2,263.4c-0.3-0.2-0.6-0.7-1-0.7c-0.5,0.1-0.9,0.9-0.6,1.2c0.5,0.7,2.1,0,1.3-0.7"/>
	<path class="st6" d="M100.2,262.6c-0.5,0-0.9,0.5-0.7,0.9c0.1,0.2,0.5,0.4,0.7,0.4c0.7-0.2,0.2-1.1-0.2-1.3"/>
	<path class="st6" d="M96.9,261.8c-0.3-0.2-1.2-0.4-1.2,0.1c-0.1,0.7,0.6,0.7,1,0.7c0.3,0,0.8,0.2,0.8-0.3
		C97.5,262,97.1,261.9,96.9,261.8"/>
	<path class="st6" d="M94.9,261.5c-0.3-0.2-0.6-0.3-1-0.4c-0.2-0.1-0.5-0.3-0.7-0.3c-0.7,0.1-0.5,1.2-0.1,1.6
		c0.5,0.5,1.4,0.6,1.9,0.1c0.3-0.3,0.3-0.6,0.1-0.9"/>
	<path class="st6" d="M92.9,259.6c-0.2-0.1-0.5-0.2-0.7-0.3c-0.2,0.2-0.4,0.7-0.3,1c0.2,0.5,0.6,0.2,1,0.2c0.3,0,0.7,0.2,0.7-0.2
		C93.5,259.9,93,259.8,92.9,259.6"/>
	<path class="st6" d="M91.6,258.9c-0.3-0.4-1-0.9-1.5-0.9c-0.8,0-0.6,0.7-0.3,1.1c0.4,0.5,0.8,0.9,1.4,0.5c0.2-0.1,0.4-0.3,0.4-0.5"
		/>
	<path class="st6" d="M90,256.2c-0.3-0.6-1-0.4-1.2,0.2c-0.2,0.7,0.5,0.7,1,0.7C90,256.9,90.2,256.5,90,256.2"/>
	<path class="st6" d="M89.1,257.7c-0.2-0.1-0.7-0.4-1-0.3c-0.5,0.2-0.2,0.9,0.2,1c0.3,0.1,0.7,0.2,0.9-0.1
		C89.3,258,89.1,257.9,89.1,257.7"/>
	<path class="st6" d="M90.4,260c-0.4-0.2-1.5-1.3-1.5-0.1c0,0.5,0.5,0.8,0.8,1c0.3,0.2,0.5,0.6,0.8,0.8c0.4,0.3,1,0.3,1.1-0.3
		c0.2-0.7-0.9-1.3-1.4-1.7"/>
	<path class="st6" d="M92.8,262.2c-0.4-0.2-1-0.2-1.2,0.2c-0.3,0.6,0.9,1.6,1.6,1.4c1-0.3-0.5-1.5-0.9-1.8"/>
	<path class="st6" d="M95.8,263.3c-0.3-0.2-1-0.3-1.1,0.1c-0.2,0.5,0.6,1,0.9,1.1c1.3,0.3,0.6-0.8,0-1.3"/>
	<path class="st6" d="M97.4,264.7c-0.7-0.5-2,1.4-0.3,1.5c0.5,0.1,0.9-0.2,0.8-0.7c0-0.4-0.6-1.1-1-1.1"/>
	<path class="st6" d="M99.3,264.8c-0.6-0.4-1.3,0.6-0.6,1c0.7,0.3,1-0.9,0.4-1.1"/>
	<path class="st6" d="M88.2,259c-0.9-0.7-1.1,0.8-0.5,1.3c0.4,0.2,0.8,0.1,0.9-0.4s-0.4-0.9-0.8-1.1"/>
	<path class="st6" d="M89.3,261.4c-0.4-0.2-1.2-0.6-1.6-0.4c-0.7,0.3-0.2,1.2,0.4,1.4c0.2,0.1,0.8,0.1,1,0.1
		c0.4-0.1,0.3-0.5,0.2-0.8"/>
	<path class="st6" d="M99.9,245.2c-0.3-0.2-1.2,0.1-0.8,0.5c0.3,0.2,0.7,0,0.8-0.3V245.2"/>
	<path class="st6" d="M96.3,246.7c-0.4-0.2-0.8-0.6-1.2-0.1c-0.4,0.7,0.8,0.9,1.3,1c0.4,0.1,0.9,0.1,0.6-0.5
		c-0.2-0.4-0.7-0.6-1.1-0.8"/>
	<path class="st6" d="M100.7,253.2c-0.3-0.2-0.7-0.6-1-0.6c-0.1,0-0.4,0.4-0.4,0.5c-0.1,0.3,0.1,0.4,0.4,0.6
		c0.3,0.2,0.6,0.5,0.9,0.2c0.2-0.3,0.1-0.6-0.2-0.7"/>
	<path class="st6" d="M95.5,264.8c-0.3-0.3-0.8-0.7-1.2-0.7c-0.3,0-0.8,0.4-0.9,0.7c-0.1,0.3,0,0.5,0.2,0.7c0.3,0.4,1.1,0.8,1.5,0.6
		c0.3-0.2,0.7-0.7,0.4-1"/>
	<path class="st6" d="M96.6,266.7c-0.5-0.8-1.4,0-0.8,0.5C96.4,267.8,96.8,267.3,96.6,266.7"/>
	<path class="st6" d="M98,266.6c-0.3-0.2-1-0.5-0.9,0.2c0.1,0.6,1,0.6,1.4,0.6C98.8,267.1,98.2,266.9,98,266.6"/>
	<path class="st6" d="M92.8,264.3c-0.4-0.1-0.8-0.4-1.3-0.6c-1,0.4,0.4,1.6,1.1,1.5s0.5-0.9,0-1.1"/>
	<path class="st6" d="M91.2,262.9c-0.3-0.4-0.8-0.6-1.2-0.4c-0.3,0.2-1,0.6-0.3,0.9c0.2,0.1,0.5,0,0.8,0c0.2,0,0.5,0.1,0.7,0
		c0.4-0.2,0.2-0.5-0.1-0.7"/>
	<path class="st6" d="M87.8,262.6c-0.5-0.1-1-0.5-1.5-0.3c-0.7,0.3,0.3,0.8,0.7,1c0.3,0.2,0.8,0.6,1.1,0.2c0.2-0.3-0.2-1.3-0.5-1.1"
		/>
	<path class="st6" d="M89.7,264.2c-0.4-0.2-1.1-0.5-1.4,0c-0.4,0.7,0.5,1.1,1,1.4c2.3,1.3,0.5-2-0.1-1.7"/>
	<path class="st6" d="M91.2,265.3c-0.5-0.1-0.9,0.5-0.7,0.9c0.2,0.5,1.1,1.2,1.6,1c1.7-0.4-0.6-2.9-1.2-1.9"/>
	<path class="st6" d="M94.5,266.6c-0.3-0.2-0.7-0.5-1-0.3c-0.4,0.2-0.4,0.6-0.1,0.9C94,267.9,95,267.1,94.5,266.6"/>
	<path class="st6" d="M96,267.8c-0.5-0.3-0.9-0.6-1.2-0.1c-0.3,0.4-0.4,0.9,0.1,1.2c0.3,0.2,1.1,0.3,1.3,0
		C96.6,268.5,96.1,268.1,96,267.8"/>
	<path class="st6" d="M97.6,267.9c-0.6-0.9-1.4,0.2-0.6,0.8c0.3,0.2,0.8,0.3,0.9-0.2c0-0.2-0.2-0.7-0.3-0.9"/>
	<path class="st6" d="M96.6,269.6c-0.3,0-0.7-0.3-0.9,0c-0.2,0.3,0.1,0.7,0.3,0.8c0.3,0.1,0.9-0.1,1-0.3c0.2-0.3-0.1-0.4-0.4-0.6"/>
	<path class="st6" d="M94.9,269.4c-1.1-0.7-1.5,1-0.5,1.2C95.3,270.8,95.6,269.4,94.9,269.4"/>
	<path class="st6" d="M93.6,267.8c-1.1-0.7-2.2,0.2-0.9,0.9C93.5,269.1,94.5,268.6,93.6,267.8"/>
	<path class="st6" d="M91.4,267.4c-0.3-0.2-1.2-0.7-1.6-0.6c-0.6,0.2-0.3,0.9,0,1.1c0.2,0.2,1.4,0.9,1.7,0.8c0.5-0.2,0.1-1,0-1.2
		c-0.1,0-0.2-0.1-0.3-0.2"/>
	<path class="st6" d="M89,265.9c-0.5-0.3-1.2-1-1.7-0.6c-0.7,0.6,0,1,0.6,1.3c0.3,0.2,0.8,0.4,1.2,0.1
		C89.6,266.5,89.3,266.3,89,265.9"/>
	<path class="st6" d="M87.4,264.3c-0.2-0.3-1-0.9-1.4-0.9s-0.5,0.5-0.3,0.8c0.2,0.3,0.9,0.8,1.3,0.7
		C87.2,264.8,87.5,264.6,87.4,264.3"/>
	<path class="st6" d="M86.2,265.3c-0.6,0.1-1.1-0.8-1.6-0.6c-1.2,0.3,0.3,1.3,0.7,1.6c0.4,0.3,0.8,0.4,1.1-0.1
		c0.3-0.5-0.2-0.8-0.6-1.1"/>
	<path class="st6" d="M87.9,267.1c-0.7-0.4-1-0.7-1.4,0.1c-0.3,0.6,0.2,1.2,0.8,1.5c0.3,0.2,1.2,0.1,1.3-0.4
		C88.7,267.9,88.1,267.3,87.9,267.1"/>
	<path class="st6" d="M90.5,268.6c-0.6-0.3-1.2-0.7-1.6,0c-0.5,0.7-0.2,1.3,0.6,1.6c0.6,0.2,1.5,0.4,1.5-0.5c0-0.4-0.5-1-0.8-1.2"/>
	<path class="st6" d="M92.6,269c-0.3-0.4-0.7-0.2-1,0.1c-0.4,0.4-0.1,0.8,0.3,1.1c0.4,0.4,0.9,0.5,1.3,0c0.2-0.2,0.2-0.3,0-0.6
		c-0.2-0.3-0.5-0.6-0.8-0.8"/>
	<path class="st6" d="M94.2,270.8c-0.5-0.1-1.1-0.6-1.3-0.1c-0.3,0.7,0.7,1.1,1.2,1.3c0.4,0.1,0.7,0.2,0.7-0.4
		C94.9,271.3,94.5,270.9,94.2,270.8"/>
	<path class="st6" d="M96.5,271c-0.3-0.2-1-0.6-1.3-0.4c-0.4,0.2-0.2,0.8,0,1c0.3,0.4,0.7,0.7,1.1,0.3c0.2-0.2,0.2-0.5,0.2-0.8"/>
	<path class="st6" d="M85.2,266.5c-0.3-0.2-0.9-0.6-1.3-0.5c-0.2,0.1-0.4,0.3-0.5,0.5c-0.2,0.3-0.2,0.4,0,0.7c0.5,0.5,1.3,1,1.7,0.3
		C85.6,267.2,85.6,266.8,85.2,266.5"/>
	<path class="st6" d="M86.5,268.4c-0.4,0.2-1.1-0.3-1.3,0.3c-0.2,0.6,0.9,1.4,1.5,1.5c0.4,0,0.8-0.4,0.6-0.9c-0.1-0.5-0.8-0.8-1.2-1
		"/>
	<path class="st6" d="M88.3,270.1c-0.4,0.1-0.9,0.4-0.6,0.9c0.2,0.3,1.3,1,1.7,0.8c0.6-0.3,0.3-1-0.1-1.3c-0.5-0.5-0.8-0.4-1.4-0.3"
		/>
	<path class="st6" d="M91.6,271c-0.8-0.9-1.8,0.3-0.8,0.9c0.3,0.2,0.6,0.4,0.9,0.2C92,271.7,91.9,271.3,91.6,271"/>
	<path class="st6" d="M93.2,272.3c-0.4-0.1-0.8-0.4-1.1-0.1c-0.4,0.4,0.2,0.8,0.5,1c0.3,0.2,0.9,0.7,1.2,0.1
		c0.3-0.5-0.3-0.9-0.7-1.1"/>
	<path class="st6" d="M94.5,272.7c-0.6-0.2,0,1.5,0.6,0.7c0.2-0.4-0.3-0.7-0.6-0.8"/>
	<path class="st6" d="M94.3,274.2c-0.3-0.2-0.5-0.3-0.8-0.4c-0.3,0.5-0.8,1.3,0.1,1.4C94,275.2,94.7,274.7,94.3,274.2"/>
	<path class="st6" d="M92.5,273.7c-0.5-0.3-0.9-0.7-1.3-0.1c-0.4,0.6,0.1,0.9,0.7,1.2c0.3,0.1,0.5,0.2,0.8-0.1
		C92.7,274.4,92.8,274,92.5,273.7"/>
	<path class="st6" d="M90.6,272.2c-0.4-0.1-1.2-0.3-1.4,0.2c-0.2,0.6,0.6,1.2,1.1,1.1c0.8-0.2,1-1.3,0-1.3"/>
	<path class="st6" d="M88,271.7c-0.5-0.1-0.9-0.7-1.4-0.3c-0.9,0.9,0.7,1.6,1.3,1.8c0.6,0.2,1.1-0.1,0.8-0.8
		c-0.2-0.5-0.7-0.6-1.1-0.8"/>
	<path class="st6" d="M86.1,270.6c-0.4-0.2-1.2-0.9-1.6-0.7c-0.6,0.2-0.2,0.9,0,1.2c0.4,0.4,0.9,0.8,1.4,0.4
		C86.1,271.3,86.3,270.8,86.1,270.6"/>
	<path class="st6" d="M84.3,268.3c-0.3-0.2-0.7-0.6-1.1-0.7c-1-0.1-0.4,1.3-0.2,1.7c0.3,0.4,1,1.7-0.1,1.7c-1.3-0.1-1.2-2,0.1-1.8
		c0.3,0,0.7,0.3,1.1,0.2C84.6,269.3,84.5,268.7,84.3,268.3"/>
	<path class="st6" d="M84.7,271.6c-0.4-0.2-1.1-0.7-1.4-0.2c-0.5,0.9,0.5,1.9,1.4,1.8c0.6,0,0.6-0.6,0.3-1c-0.2-0.2-0.4-0.2-0.5-0.4
		c-0.1-0.2-0.1-0.3-0.2-0.4"/>
	<path class="st6" d="M87.1,273.3c-0.3-0.3-1-0.9-1.3-0.3c-0.3,0.6,0.8,1.5,1.4,1.5c1,0,0.2-1.3-0.2-1.5"/>
	<path class="st6" d="M89.8,273.9c-0.4-0.6-1.1-0.5-1.4,0c-0.4,0.6-0.2,1,0.6,1.3C89.7,275.4,90.6,274.5,89.8,273.9"/>
	<path class="st6" d="M91.8,275.2c-0.4-0.3-1-0.5-1.5-0.2c-0.7,0.4-0.1,0.9,0.3,1.2c0.4,0.2,1,0.6,1.3,0c0.1-0.3-0.1-0.9-0.4-1"/>
	<path class="st6" d="M93.1,275.6c-0.3-0.4-0.5-0.2-0.7,0.1c-0.3,0.4-0.4,0.6,0,0.8c0.3,0.2,0.5,0.2,0.7-0.1
		C93.5,276.2,93.2,276,93.1,275.6"/>
	<path class="st6" d="M92,277.3c-1-0.3-1.3,1.4-0.3,1.5c0.3,0,0.8-0.6,0.8-0.9c0-0.3-0.3-0.7-0.6-0.9"/>
	<path class="st6" d="M91.2,276.8c-0.5-0.3-1.1-0.9-1.7-0.6s-0.5,0.8,0.1,1.1c0.6,0.3,1.8,0.4,1.4-0.6"/>
	<path class="st6" d="M88.6,275.7c-0.4-0.2-0.8-0.4-1.1-0.7c-0.7,0.7-0.3,1.6,0.7,1.6c0.2,0,0.5-0.1,0.6-0.4
		C88.8,276,88.7,275.9,88.6,275.7"/>
	<path class="st6" d="M86.8,275c-0.5-0.3-1.2-1.1-1.9-1c-0.2,0.1-0.5,0.4-0.6,0.6c-0.3,0.4-0.3,0.5,0,0.9c0.4,0.4,1.3,1,1.8,0.6
		c0.2-0.2,0.6-0.7,0.4-1"/>
	<path class="st6" d="M84.1,273.5c-0.4-0.2-1.1-0.8-1.5-0.7c-0.7,0.2-0.6,0.9-0.2,1.3s1,0.5,1.4,0.1c0.3-0.3,0.3-0.6,0-0.8"/>
	<path class="st6" d="M82.4,271.5c-0.5-1.1-1.9,0-1.3,0.7C81.7,273,82.9,272.4,82.4,271.5"/>
	<path class="st6" d="M81.5,273.1c-0.2-0.1-0.6-0.5-0.8-0.4c-0.3,0.1-0.5,0.6-0.3,0.8c0.3,0.4,0.9,0,0.9-0.5"/>
	<path class="st6" d="M82.3,274.9c-0.2-0.3-0.8-0.6-1-0.3c-0.8,0.7,0.6,1.5,1.1,1.7c0.5,0.2,1,0,0.9-0.7c-0.1-0.6-0.8-1-1.3-1.1"/>
	<path class="st6" d="M85,276.6c-0.2-0.1-0.7-0.5-1-0.4c-0.5,0.1-0.5,0.6-0.2,0.9c0.3,0.4,0.9,0.8,1.3,0.2
		C85.3,277.1,85.3,276.7,85,276.6"/>
	<path class="st6" d="M87.9,277.2c-0.5-0.3-1.4-0.9-1.9-0.4c-0.6,0.5-0.4,1.1,0.2,1.5c0.4,0.3,0.9,0.5,1.3,0.2
		c0.5-0.3,0.5-0.8,0.2-1.3"/>
	<path class="st6" d="M88.8,277.6c-1.2,0.7,0.6,2.1,1.3,1.6c0.6-0.5-0.7-1.9-1.3-1.8"/>
	<path class="st6" d="M80.2,274.6c-0.7-0.1-0.7,0.6-0.1,0.8C80.5,275.1,80.6,274.7,80.2,274.6"/>
	<path class="st6" d="M82.2,276.5c-0.4,0.2-1.3-0.5-1.7-0.3c-0.3,0.2-0.1,0.9,0.1,1.1c0.4,0.5,1.3,0.9,1.8,0.3
		C82.7,277.2,82.4,276.9,82.2,276.5"/>
	<path class="st6" d="M84.4,278c-0.4-0.2-1-0.7-1.4-0.3c-0.1,0.1-0.3,0.4-0.3,0.5c-0.1,0.4,0.3,0.5,0.7,0.7c0.6,0.3,1.6,1.2,1.8,0
		c0.1-0.6-0.5-0.8-1-1"/>
	<path class="st6" d="M86.5,278.9c-0.2-0.3-0.8-0.8-1.2-0.4c-0.4,0.4,0.2,1,0.5,1.3c0.4,0.3,1.5,0.5,1.3-0.3
		C87.1,279.2,86.7,278.8,86.5,278.9"/>
	<path class="st6" d="M89.5,279.9c-0.3-0.2-1.1-0.7-1.4-0.6c-0.1,0-0.4,0.5-0.4,0.6c-0.1,0.3,0.1,0.5,0.4,0.6
		c0.4,0.3,1.1,0.6,1.5,0.2C89.9,280.4,89.7,280.2,89.5,279.9"/>
	<path class="st6" d="M86.4,280.5c-0.7-0.4-1.5-0.5-2.2-0.9c-0.6,0.9,0.1,1.8,1.1,1.8C85.5,281.4,87,281,86.4,280.5"/>
	<path class="st6" d="M83.3,279.4c-0.4-0.2-0.9-0.8-1.3-0.8c-0.6-0.1-0.7,0.7-0.4,1.1c0.4,0.6,1.1,0.9,1.7,0.5
		C83.6,279.8,83.5,279.6,83.3,279.4"/>
	<path class="st6" d="M89,281.2c-0.7,0-1.2-0.5-1.8-0.5c-0.6,0-0.9,0.6-0.5,1c0.4,0.5,1.3,0.8,1.9,0.5C88.9,282,89.3,281.6,89,281.2
		"/>
	<path class="st6" d="M81.2,278.2c-0.4-0.2-0.6-0.8-1-1c-0.4-0.2-0.8,0.1-0.9,0.6C79.2,278.8,81.3,279.2,81.2,278.2"/>
	<path class="st6" d="M79.4,275.9c-0.3,0.2-0.5,0.2-0.7,0.6c0.3,0.2,1,0.6,1.1,0c0.1-0.3-0.4-0.9-0.7-0.6"/>
	<path class="st6" d="M79.9,279.3c-0.4-0.2-0.7-0.6-1-1c-0.1-0.1-0.4-0.6-0.5-0.6c-0.3-0.1-0.7,0.5-0.7,0.8
		c-0.1,0.5,0.3,0.8,0.6,1.1c0.4,0.3,1.3,1.1,1.8,0.6C80.5,279.8,80.3,279.5,79.9,279.3"/>
	<path class="st6" d="M82.4,280.8c-0.4-0.2-0.8-0.5-1.2-0.8c-0.3-0.2-0.3-0.2-0.5,0c-0.6,0.5,0.1,1.3,0.5,1.6c0.4,0.2,1.3,0.6,1.6,0
		c0.2-0.4-0.3-0.8-0.7-1"/>
	<path class="st6" d="M85.6,282.2c-0.4-0.2-1.3-1-1.8-0.9c-0.4,0.1-0.9,0.7-0.8,1.1c0.2,0.7,1.5,1,2,0.7c0.4-0.2,0.4-0.4,0.4-0.8"/>
	<path class="st6" d="M88.3,282.7c-0.4-0.2-0.9-0.2-1.4-0.3c-0.2-0.1-0.4-0.2-0.6-0.2c-0.5,0-0.7,0.7-0.4,1.1
		c0.3,0.5,1.2,0.7,1.7,0.4c0.3-0.1,0.8-0.6,0.6-0.8"/>
	<path class="st6" d="M87.2,284.4c-0.4-0.2-1.2-0.5-1.6-0.5c-0.2,0-0.2-0.1-0.3,0.1c-0.1,0.2,0,0.5,0.1,0.7c0.3,0.3,1.4,0.9,1.8,0.5
		c0.2-0.2,0.2-0.7,0-0.9"/>
	<path class="st6" d="M84.2,283.6c-0.4-0.2-1.1-0.9-1.5-0.7c-0.8,0.4,0.8,1.3,1.1,1.4c1.5,0.6,0.9-1.1,0.3-1"/>
	<path class="st6" d="M81.8,282.6c-0.5-0.2-0.8-0.8-1.4-0.9c-0.4-0.1-0.9,0.1-0.8,0.6c0.1,0.3,1.1,1,1.4,0.9
		c0.2-0.1,0.5-0.4,0.4-0.5"/>
	<path class="st6" d="M79.6,281.1c-0.2-0.4-1.2-1.1-1.7-1.4c-0.4-0.2-1.2-0.3-1,0.4c0.1,0.6,1.9,2,2.4,1.1"/>
	<path class="st6" d="M77,281.5c-0.2-0.9-1.1,0.3-0.3,0.8c0.6,0.4,0.5-0.5,0.1-0.8"/>
	<path class="st6" d="M78.1,282c-0.3,0-0.8,0.4-0.8,0.7c0,0.4,0.8,0.8,1.2,0.8c0.4-0.1,0.5-0.4,0.4-0.7c-0.1-0.5-0.7-0.7-1.1-0.9"/>
	<path class="st6" d="M80,283.2c-0.4-0.1-1.1,0-1.1,0.5c0.1,0.6,1.3,1.5,1.9,1.3c0.4-0.2,0.7-0.7,0.4-1.1
		C81,283.5,80.4,283.4,80,283.2"/>
	<path class="st6" d="M83.5,284.9c-0.5-0.3-1.1-0.7-1.6-0.9c-0.2,0.2-0.4,0.5-0.4,0.8c0,0.6,1.1,1.5,1.6,1.5
		c0.5,0.1,0.9-0.3,0.9-0.8s-0.4-0.6-0.7-0.8"/>
	<path class="st6" d="M85.7,285.7c-0.5-0.3-1-0.4-1.4,0.1c-0.5,0.5,0.5,0.8,1,0.8c0.3,0,1-0.1,1.1-0.4c0.1-0.3-0.7-0.8-0.9-0.6"/>
	<path class="st6" d="M85.5,287.2c-0.3-0.2-0.6-0.1-0.9-0.2c-0.3-0.1-0.5-0.3-0.8-0.4c-0.5-0.1-0.6,0.4-0.3,0.7
		c0.4,0.4,1.2,0.7,1.6,0.5c0.3-0.1,0.6-0.5,0.2-0.6"/>
	<path class="st6" d="M80.8,285.4c-0.6-0.1-1.1-0.4-1.5-0.7c-0.3-0.2-0.6-0.2-0.8,0.2c-0.3,0.6,0.6,1.1,1.2,1.2
		c0.5,0,0.6-0.1,0.8-0.5"/>
	<path class="st6" d="M81.1,285.9c-0.1,0-0.3,0.2-0.3,0.4c0,0.4,0.7,0.7,1,0.8s1,0.2,1.1-0.3c0.1-0.4-1.8-1.4-2-1"/>
	<path class="st6" d="M78,283.8c-0.5-0.1-0.9-0.6-1.4-0.7c-0.6-0.1-0.9,0.6-0.6,1.1c0.3,0.6,1,0.8,1.5,0.5c0.4-0.2,0.8-0.7,0.3-1"/>
	<path class="st6" d="M77.4,285.2c-0.2-0.2-0.6-0.1-0.8-0.2c-0.4-0.1-0.8-0.5-1.1-0.6c-0.3-0.1-0.4-0.2-0.6,0.2
		c-0.1,0.3-0.1,0.8,0.1,1.1c0.4,0.5,2.7,0.7,2.2-0.4"/>
	<path class="st6" d="M78,286c-0.4-0.6-1,0.7-0.9,1.1c0.2,0.7,1.3,1.3,2,1.2c0.6-0.2,0.9-1,0.5-1.5c-0.5-0.5-1.3-0.4-1.8-1"/>
	<path class="st6" d="M80.5,288c-1.7,0.2-0.1,1.9,0.9,1.9c0.6,0,0.6-0.7,0.3-1.1C81.5,288.4,81,288.3,80.5,288"/>
	<path class="st6" d="M83.8,289.4c-0.3-0.2-0.8-0.7-1.2-0.4c-0.4,0.2-0.4,1-0.2,1.2c0.3,0.5,1.1,0.6,1.5,0.2
		C84.2,290.1,84.2,289.5,83.8,289.4"/>
	<path class="st6" d="M83,291.3c-0.4-0.3-0.9-0.7-1.4-0.7s-1.1,0.5-0.8,1c0.2,0.4,1.2,0.9,1.7,0.8c0.4-0.1,0.6-0.6,0.7-1"/>
	<path class="st6" d="M80.4,290.3c-0.2-0.3-1-1-1.4-0.9c-0.5,0.2-0.6,1-0.3,1.4c0.4,0.7,1.5,0.5,1.6-0.3"/>
	<path class="st6" d="M78.4,288.7c-0.3-0.2-1-0.6-1.3-0.7c-0.5-0.1-0.8,0.5-0.5,0.9c0.2,0.4,0.8,0.8,1.2,0.6
		C78.1,289.5,78.4,289.1,78.4,288.7"/>
	<path class="st6" d="M76.3,286.9c-0.5-0.3-1.2-1.1-1.8-0.8c-0.3,0.2-0.7,0.8-0.7,1.2c0.1,0.5,1,1.1,1.5,1.1c0.3-0.1,1.4-0.8,1-1.2"
		/>
	<path class="st6" d="M75.6,289.1c-0.6-0.4-1.3-0.6-2-1c-0.3-0.2-0.6-0.3-0.9-0.1c-0.4,0.3-0.2,0.8,0.1,1.1c0.4,0.5,1.6,1.3,2.3,1.1
		c0.4-0.1,0.6-0.7,0.4-1"/>
	<path class="st6" d="M78.1,292.7c-0.3-0.2-0.7-0.9-0.5-1.3s0.8-0.1,1.1,0c0.6,0.3,1.5,0.9,1.1,1.6
		C79.5,293.9,78.5,293.1,78.1,292.7"/>
	<path class="st6" d="M77.5,290.7c-0.2-0.2-0.6-0.9-0.9-0.9s-1,0.7-1,1c-0.1,1.1,2,0.7,1.7-0.2"/>
	<path class="st6" d="M80.5,292.6c-0.5,0.3-0.5,0.8-0.1,1c0.4,0.2,0.9,0.3,1.1,0C82.2,292.9,80.9,292.5,80.5,292.6"/>
	<path class="st6" d="M79.3,293.9c-0.6-0.2-0.6,0.5-0.3,0.8c0.3,0.3,1.1,0.4,1.4,0.1c0.5-0.6-1.2-1-1.6-1"/>
	<path class="st6" d="M78.1,293.5c-0.2-0.2-0.6-0.8-0.9-0.9c-0.5-0.2-0.8,0.4-0.6,0.8c0.2,0.5,0.9,1.1,1.4,0.7
		C78.2,293.9,78.3,293.7,78.1,293.5"/>
	<path class="st6" d="M76.3,291.9c-0.4-0.3-1-0.4-1.4-0.6c-0.3-0.2-0.9-0.2-0.6,0.4c0.2,0.4,1.1,0.9,1.5,0.8
		c0.3-0.1,0.5-0.4,0.3-0.6"/>
	<path class="st6" d="M74.2,290.6c-0.3-0.2-2-1.6-2.1-0.6c-0.1,0.8,1.4,1.6,1.9,0.8"/>
	<path class="st6" d="M102.6,239.3c-0.5,0.8-0.1,1.8,0.7,2.2c0.3-0.4,0.6-0.9,0.7-1.3c-0.5-0.4-1-0.6-1.6-0.7"/>
</g>
<g>
	<g class="st0">
		<g>
			<g>
				<defs>
					<rect id="SVGID_5_" x="66.6" y="316.4" width="54" height="54"/>
				</defs>
				<clipPath id="SVGID_6_">
					<use xlink:href="#SVGID_5_"  style="overflow:visible;"/>
				</clipPath>
			</g>
		</g>
	</g>
	<path class="st7" d="M73.4,325.7c0.8-0.2,1.5-0.6,2.2-0.9c0.5-0.2,1-0.6,1.6-0.9c0.1-0.1,0.2,0.2,0.3,0c0.6-0.6,3-0.8,4.1-1
		c1.4-0.2,3.9-0.4,5.7,0.2c0.4,0.1,0.2-0.2,0.3-0.2c0.2,0,0.4,0.3,0.6,0.4c2.3,0.6,5.9,1.5,8.8,3.4c-0.7,2.4-3.5,5.4-3.6,7.7
		c0.4,0.2,0.8,0.5,1.2,0.7c0.2-0.3,0.6-0.1,0.9-0.2c0.4-0.1,0.9-0.3,1.4-0.4c0.1,0,0.3-0.1,0.4-0.1c0.3,0,0.7,0.2,0.9,0.2
		c0.3,0,0.6-0.3,0.8-0.4c0.3-0.1,0.6-0.1,0.9-0.2c0.8-0.1,2.4-0.5,2.8-0.4s0.6-0.1,1.1-0.2s1.4,0,1.9-0.4c2.1,0,4-0.4,5.9-1
		c1.3,0.3,2.8-0.4,4.2-0.5c0.7-0.8,0.6-1.2,0.3-2c-0.1-0.3-0.1-0.7-0.2-0.9c0-0.1-0.3-0.1-0.4-0.2c-0.4-0.9-0.8-2.1-1.2-3.1
		c-0.6-1.5-1.7-3.6-2-5c-0.2-0.1-0.3-0.2-0.5-0.3c-0.6-2.8-2.4-5.3-3.1-8.1c-0.7-0.3-0.5-1.8-1.6-2.1c-0.4-0.1-0.5,0.3-1,0.3
		c-1.3,2.3-2.5,4.6-3.8,6.9c-0.3-0.1-0.7-0.3-1.2-0.5c-0.6-0.3-1.1-0.6-1.5-0.8c-1.4-0.6-3.6-1-5.1-1.4c-0.2,0-0.2,0.1-0.5,0
		c-1.4-0.4-3.1-0.1-4.5-0.4c-0.8,0.4-1.7,0.5-2.7,0.7c-1.4,0.3-3,1-4.5,1.4c-1.1,1-2.5,1.6-3.4,2.4c-0.3,0.3-0.6,0.9-1.1,0.8
		C76.4,321.5,74.3,323.1,73.4,325.7"/>
	<path class="st7" d="M121.5,371c-1.6-2-3.3-4.1-4.9-6.1c0.2-0.3,0.5-0.5,0.9-0.9c1.7-1.5,2.7-2.7,3.7-4.3c0.4-0.6,1-1.2,1.3-1.8
		c0-0.1-0.2-0.2-0.1-0.3c0.5-0.7,1-1.7,1.3-2.5s0.6-1.7,0.8-2.7c0-0.3-0.1-0.6,0-0.9s0.4-0.6,0.4-0.9c0.1-1.3-0.3-2.7,0.1-4
		c-0.4-1-0.5-1.9-0.7-2.9c0-0.3-0.2-0.7,0-0.9c-0.5-0.6-0.6-1.2-0.6-1.7c-1-1.4-1.7-3.5-2.7-5c-0.3-0.5-0.8-1.4-1.6-1.3
		c0.2,0.3,0.2,0.8,0.3,1.2c0,0.2,0,0.5,0,0.7c0,0.5,0.1,1.3,0.1,1.9c0,0.4-0.3,1,0.2,1.1c-0.4,0.8-0.4,1.7-0.6,2.5s-0.5,1.6-0.6,2.5
		c-0.5,0.4-0.7,1.1-1,1.7c-0.3,0.7-0.7,1.3-1.1,2c-0.2,0.3-0.2,0.1,0.1,0.3c-2.2,2.5-3.8,5-7.1,7.4c-1.6-2-3.2-4-4.9-6
		c-0.3,0.1-0.6-0.2-0.9-0.2c-1.3,0.6-1.1,2.1-1.5,3.4c-0.4,1.5-0.7,3.3-1.1,5c-0.1,0.5-0.2,0.9-0.3,1.4c-0.1,0.3-0.2,0.8-0.2,1.3
		c-0.1,0.7-0.6,1.4-0.7,2.1c-0.1,0.3,0,0.7-0.1,1.2c-0.2,0.7-0.4,1.5-0.5,2.3c-0.1,0.6,0,0.8-0.4,1.4c-0.5,0.9-0.3,2.8-0.8,3.8
		c0.2,0.6,0.4,0.6,0.9,1.1c2.7-0.1,5.4-0.2,8.1-0.3c0.9,0,1.9,0,2.7,0.2c0.5-0.5,1.5-0.1,2.3-0.2c0.2,0,0.3,0,0.4,0
		c0.7,0,1.4-0.1,2.3-0.2c0.2,0,0.5,0.2,0.7,0.2c0.3,0,0.5-0.2,0.7-0.2c1,0,2.1,0.3,3.1-0.1C120.1,373,121.8,372.2,121.5,371"/>
	<path class="st7" d="M65.3,356.9c0.1,0,0.2,0.1,0.4,0.1c0.2,0,0.1,0.1,0.2,0.2s0.2,0.2,0.4,0.2c0.2,0,0.3,0.2,0.4,0.3
		c0.1,0.1,0.4,0.1,0.4,0.1c-0.3,0.1-0.2,0.2,0,0.2s0.5,0.1,0.5,0.1c-0.2,0,0,0.2,0.1,0.2c0.1,0.1,0.3,0.2,0.5,0.2s0.3,0.1,0.5,0.2
		c0.2,0,0.3,0.1,0.3,0.1c-0.2,0.1-0.5,0.1-0.7,0.1s-0.3,0-0.6,0.1c-0.2,0.1-0.5,0.2-0.7,0.3c-0.2,0.1-0.4,0.2-0.6,0.3
		c-0.1,0.1-0.2,0.2,0,0.2s0.3,0.2,0.4,0.3c0.1,0,0.4,0.3,0.5,0.4s0.1,0.2,0.3,0.3c0.1,0.2,0.2,0.2,0.4,0.2c0.1,0.1,0.3,0.2,0.3,0.2
		c-0.1,0-0.3,0.2-0.2,0.2c0.1,0,0.2,0.2,0.4,0.3c0.2,0.1,0.5,0.3,0.7,0.4c0.2,0,0.4,0.2,0.6,0.2s0.2,0.2,0.2,0.2
		c-0.2,0-0.2,0.1,0,0.2c0.2,0,0.5,0.3,0.7,0.4c0.2,0,0.2,0.2,0.4,0.2c0.2,0,0.3,0.1,0.6,0.1c0.2,0,0.3,0.1,0.5,0.2
		c0.2,0,0.3,0.2,0.4,0.2c0.1,0.1,0.3,0,0.4,0c0.2,0,0.7,0.2,0.9,0.2c0.2,0,0.2,0.1,0.4,0.1c0.2,0,0.5,0,1,0.1c0.4,0,0.8,0,0.8,0
		s0.8,0.3,1.4,0.4c0.5,0.1,1.4,0.1,1.9,0.1s0.9-0.1,1.1-0.2c0.2,0,0.4,0.1,0.5,0.1c0.3,0.5,0.8,0.8,1.1,1.1c0.5,0.4,1.3,0.8,1.6,1.1
		c0.4,0.2,0.9,0.4,1,0.5s0.2,0.1,0.3,0.1c0.1,0,1.4,0.6,2,0.8c0.7,0.2,1.3,0.5,1.9,0.7s0.8,0.3,1,0.4c0.1,0.1,0.2,0.3,0.4,0.2
		c0.1,0,0.1-0.3,0.1-0.3s0.2,0,0.2-0.2c0.1-0.3-0.1-0.4-0.2-0.5c-0.2-0.1-1-0.3-1.6-0.4s-2.3-0.6-3.6-1.2c-1.4-0.6-2.3-1.2-2.7-1.5
		c-0.4-0.4-0.8-0.6-1.3-1.4c0,0,0.1-0.5,0.4-1c0.3-0.6,0.5-1.1,0.8-1.3c0.3-0.3,0.4-0.4,0.6-0.9c0.2-0.4,0.4-1,0.9-1.8
		s0.6-1.1,0.9-1.4s0.5-0.6,0.5-0.8c0.1-0.1,0.1-0.4,0.3-0.5c0.2-0.1,0.2-0.4,0.3-0.5c0.1-0.1,0.3-0.5,0.4-0.7
		c0.2-0.2,0.2-0.6,0.3-0.9c0.1-0.3-0.1-0.3-0.2-0.2c0,0,0.2-0.1,0.2-0.3c0-0.2,0.2-0.3,0-0.5c0,0,0.2,0,0.3-0.2
		c0-0.2,0.1-0.6,0.2-0.7s-0.2-0.2-0.3-0.1c0,0,0.1-0.2,0.2-0.3c0.2-0.2,0.2-0.6,0.2-0.8c0-0.2-0.2-0.2-0.2-0.2s0.2-0.2,0.2-0.3
		c0-0.2,0-0.4,0-0.6s0-0.3,0-0.5c0.1-0.1-0.1-0.3-0.2-0.3c-0.2,0-0.4,0-0.7,0c-0.2,0-0.7,0.2-0.8,0.3c-0.1,0.1-0.2,0.2-0.4,0.3
		c0,0,0-0.1,0-0.3c0.1-0.2,0.2-0.4,0.2-0.6c0.1-0.3,0.2-0.6,0.3-0.7c0.1-0.2,0-0.4-0.1-0.3c0,0,0.1-0.3,0.2-0.5
		c0-0.2,0.1-0.5,0.1-0.7s0-0.5-0.1-0.6s-0.1-0.2,0-0.3c0.1-0.1,0.1-0.3,0.2-0.6c0-0.2-0.1-0.2-0.3,0c0,0,0.1-0.2,0.1-0.3
		c0-0.1-0.1-0.5-0.2-0.6c-0.1-0.2-0.3,0-0.3,0s0-0.2,0-0.4c0-0.2-0.1-0.6-0.2-0.6c-0.1-0.1-0.3-0.1-0.3-0.1s0.1-0.1,0-0.3
		c-0.1-0.1-0.2-0.3-0.2-0.5c0-0.1-0.1-0.1-0.3-0.1c-0.2,0.1-0.4,0.1-0.5,0.2s-0.1,0.1-0.2,0.1s-0.4,0.1-0.6,0.3
		c-0.2,0.2-0.3,0.4-0.7,0.6l0.1-0.4c0-0.2,0.1-0.4,0-0.6s0-0.3,0-0.5c-0.1-0.2-0.2-0.4-0.2-0.7c0-0.3-0.1-0.5,0-0.7S82,340.2,82,340
		c0-0.1,0-0.3-0.1-0.6c-0.1-0.2-0.2-0.5-0.3-0.6c-0.1-0.1-0.2,0-0.2,0.1c0,0-0.1-0.2-0.1-0.4c0-0.2-0.2-0.4-0.3-0.5
		c-0.1-0.1-0.2,0-0.3,0.1c0,0-0.2-0.5-0.2-0.7c-0.1-0.2-0.1-0.4-0.2-0.3c-0.2,0-0.4,0.1-0.4,0.2c-0.1,0.1-0.3,0.1-0.4,0.1
		c-0.2,0-0.2,0.1-0.4,0.2c-0.1,0.1-0.2,0.2-0.5,0.4c-0.1,0.1-0.1,0.3-0.3,0.4c0,0-0.2-0.6-0.3-0.7c-0.1-0.1-0.3-0.7-0.4-0.8
		c-0.1-0.1-0.2,0-0.2-0.1s-0.3-0.9-0.5-1c-0.1-0.1-0.3-0.1-0.3,0.1c0,0-0.3-0.7-0.4-0.8c-0.1-0.1-0.2,0-0.2,0.1c0,0-0.3-0.5-0.5-0.7
		c-0.1-0.1-0.2,0.1-0.3,0.2c-0.1,0.1-0.2,0.3-0.4,0.4c-0.2,0.1-0.2,0.3-0.6,0.5c0,0-0.1-0.2-0.1-0.4c0-0.2-0.2-0.4-0.3-0.5
		c-0.1-0.2-0.2-0.2-0.3-0.3c-0.1-0.1-0.2,0-0.3-0.1c-0.1-0.2-0.3-0.4-0.3-0.5s-0.1,0-0.1,0.2c0,0-0.3-0.3-0.4-0.4s-0.2-0.2-0.3-0.3
		c-0.1-0.1-0.2,0-0.2,0.1s0.1,0.3-0.1,0.4s-0.2,0.3-0.4,0.4c-0.2,0.1-0.3,0.2-0.3,0.2s0-0.2-0.1-0.4c-0.1-0.1-0.2-0.3-0.3-0.4
		c-0.1-0.1-0.2,0-0.3-0.1c-0.2-0.1-0.3-0.3-0.6-0.5c-0.1,0-0.1,0.1-0.2,0.2c0,0.1-0.4,0.2-0.5,0.3c0,0-0.1-0.2-0.2-0.3
		c-0.1-0.1-0.2-0.2-0.2-0.2c-0.1-0.1-0.2,0-0.3-0.1c-0.1-0.1-0.1-0.1-0.2-0.2s-0.2,0-0.3,0.1c-0.1,0.1-0.2,0.1-0.3,0.1
		c-0.1,0-0.4-0.5-0.5-0.5s-0.1,0.1-0.2,0.2c0,0-0.3,0.1-0.3,0.2s0,0.3,0,0.4c-0.1,0-0.2,0.1-0.2,0.1s0-0.2-0.1-0.1s-0.2,0.2-0.2,0.4
		c0,0.2-0.1,0.3-0.1,0.5c0,0.1,0.1,0.3,0.1,0.3s-0.2,0.1-0.3,0.1c-0.1,0-0.3-0.1-0.2,0c0,0.1,0,0.2,0,0.3c0,0.1,0.1,0.1,0.1,0.1
		s-0.1,0.1-0.2,0.2c0,0.1-0.2,0.2-0.1,0.3c0,0.1,0,0.1,0,0.3c0,0.2,0.1,0.3,0.1,0.3s-0.2,0.1-0.3,0c-0.1,0-0.2-0.1-0.3,0
		c-0.1,0.1,0,0.4-0.1,0.5s0,0.2-0.1,0.4c-0.1,0.1-0.1,0.3-0.1,0.4s0,0.2,0.1,0.3c0,0.1,0.1,0.2,0.1,0.2s-0.1,0.2-0.2,0.2
		s-0.3-0.1-0.5-0.1c-0.2,0-0.3,0.1-0.4,0.1c-0.2,0-0.4,0-0.5,0s-0.2,0.1-0.1,0.2c0.1,0.1,0.2,0.4,0.2,0.5s-0.1,0.2-0.1,0.3
		c0.1,0.1,0.2,0.3,0.1,0.5c-0.1,0.2,0,0.2-0.1,0.4c-0.1,0.1,0.1,0.3,0.1,0.5s0.1,0.4,0.2,0.5c0.1,0.2,0.2,0.2,0.3,0.5
		c0,0-0.1,0-0.3,0s-0.4-0.1-0.7,0s-0.6,0.1-0.8,0.1s-0.3,0.1-0.1,0.2s0.2,0.3,0.2,0.5s0.1,0.3,0.1,0.4c0.1,0.2,0.1,0.3,0.1,0.3
		S62.2,343,62,343c-0.1,0,0,0.1,0,0.2c0.1,0.1,0.2,0.2,0.2,0.4c0,0.2,0.2,0.3,0.2,0.3s-0.1,0.1-0.2,0.1c-0.1,0,0,0.1,0.1,0.2
		s0.2,0.3,0.2,0.5s0.2,0.3,0.3,0.4c0,0.1,0.2,0.2,0.2,0.2s-0.2,0-0.1,0.1c0,0.1,0.1,0.3,0.2,0.4c0.1,0.1,0.2,0.2,0.3,0.4
		c0,0.1,0.3,0.2,0.5,0.4c0,0-0.1,0.1-0.3,0.1c-0.1,0-0.3-0.1-0.4-0.1c-0.1,0-0.4,0.1-0.6,0.2c-0.1,0.1-0.1,0.2-0.3,0.2
		s-0.4,0.2-0.6,0.2c-0.1,0-0.1,0.1,0,0.2s0.2,0.2,0.2,0.4c0,0.1,0.2,0.2,0.2,0.2s0,0.1-0.2,0.1c-0.1,0-0.1,0.1,0,0.2
		s0.2,0.2,0.2,0.4c0,0.2,0.3,0.3,0.3,0.3s-0.1,0.2-0.2,0.2c-0.1,0-0.1,0.1,0,0.3c0.1,0.1,0.2,0.3,0.2,0.4s0.2,0.1,0.2,0.2
		s0.5,0.4,0.5,0.4s-0.1,0.1-0.2,0.1c-0.1,0,0.1,0.1,0.1,0.2c0.1,0.1,0.3,0.2,0.3,0.4c0,0.2,0.4,0.3,0.4,0.3s-0.1,0.1,0,0.2
		s0.2,0.1,0.3,0.3c0.1,0.1,0.2,0.2,0.3,0.3c0.1,0,0.4,0.1,0.4,0.2c0,0-0.3,0.1-0.4,0.1c-0.2,0-0.3-0.1-0.5,0c-0.2,0-0.4,0.1-0.7,0
		s-0.5-0.2-0.7-0.1s-0.6,0.2-0.7,0.3c-0.1,0.1-0.1,0.1-0.2,0.1c-0.1,0-0.3,0.1-0.4,0.2c-0.1,0.1-0.2,0.2-0.1,0.2
		c0.1,0.1,0.1,0.3,0.2,0.4c0.1,0.1,0.2,0.1,0.2,0.1l-0.1,0.2c0,0.1,0.2,0.3,0.3,0.4s0.3,0.2,0.3,0.2c-0.1,0-0.3,0.1-0.2,0.2
		s0.2,0.4,0.3,0.4c0.1,0.1,0.3,0.1,0.3,0.1c-0.2,0-0.3,0.1-0.1,0.2s0.3,0.2,0.5,0.2c0.1,0,0.3,0.1,0.2,0.2c0,0.1,0.1,0.3,0.3,0.4
		s0.4,0.2,0.5,0.3c0.1,0.1,0.4,0.1,0.4,0.1c-0.1,0-0.1,0.2,0.1,0.2C64.8,356.8,65,356.8,65.3,356.9"/>
</g>
<rect x="162.3" y="168.8" class="st2" width="491.7" height="364.6"/>
<text transform="matrix(1 0 0 1 162.2949 198.3523)" class="st8 st9 st10">Naturally breathable</text>
<text transform="matrix(1 0 0 1 162.2949 279.9523)" class="st8 st9 st10">GM free corn based film</text>
<text transform="matrix(1 0 0 1 162.2949 361.4523)" class="st8 st9 st10">Natural and renewable material </text>
<text transform="matrix(1 0 0 1 162.2949 443.0523)" class="st8 st9 st10">Chlorine and fragrance free  </text>
<text transform="matrix(1 0 0 1 162.2949 524.5523)" class="st8 st9 st10"> </text>
<text transform="matrix(1 0 0 1 173.3949 524.5523)" class="st8 st9 st10"> </text>
</svg>
