<?xml version="1.0" encoding="utf-8"?>
<!-- Generator: Adobe Illustrator 16.0.0, SVG Export Plug-In . SVG Version: 6.00 Build 0)  -->
<!DOCTYPE svg PUBLIC "-//W3C//DTD SVG 1.1//EN" "http://www.w3.org/Graphics/SVG/1.1/DTD/svg11.dtd">
<svg version="1.1" id="Layer_1" xmlns="http://www.w3.org/2000/svg" xmlns:xlink="http://www.w3.org/1999/xlink" x="0px" y="0px"
	 width="100px" height="40px" viewBox="0 0 100 40" enable-background="new 0 0 100 40" xml:space="preserve">
<g>
	<path d="M12.755,0.657c3.084,0,5.366,0.956,7.463,2.868c0.278,0.247,0.278,0.617,0.031,0.864l-2.406,2.498
		c-0.215,0.216-0.555,0.216-0.771,0c-1.141-1.018-2.651-1.573-4.163-1.573c-3.484,0-6.044,2.898-6.044,6.353
		c0,3.423,2.59,6.26,6.075,6.26c1.45,0,3.022-0.523,4.132-1.479c0.216-0.185,0.617-0.185,0.802,0.031l2.406,2.559
		c0.216,0.216,0.185,0.617-0.031,0.833c-2.097,2.035-4.749,2.991-7.494,2.991c-6.167,0-11.133-4.903-11.133-11.071
		C1.622,5.623,6.587,0.657,12.755,0.657z"/>
	<path d="M29.314,12.16l-6.815-10.3c-0.247-0.4,0-0.894,0.493-0.894h4.009c0.247,0,0.4,0.154,0.493,0.277l4.287,6.322l4.287-6.322
		c0.093-0.124,0.215-0.277,0.493-0.277h4.009c0.494,0,0.74,0.494,0.494,0.894l-6.909,10.269v9.838c0,0.309-0.278,0.586-0.585,0.586
		H29.9c-0.339,0-0.586-0.277-0.586-0.586V12.16z"/>
	<path d="M44.917,1.706c0-0.4,0.309-0.74,0.74-0.74h3.608c0.401,0,0.74,0.339,0.74,0.74v8.11l6.846-8.542
		c0.123-0.154,0.4-0.308,0.586-0.308h3.887c0.586,0,0.893,0.678,0.555,1.141l-7.217,9.036l7.865,10.239
		c0.338,0.462,0,1.141-0.586,1.141h-4.256c-0.217,0-0.494-0.123-0.557-0.216l-7.123-9.683v9.19c0,0.4-0.339,0.74-0.74,0.74h-3.608
		c-0.431,0-0.74-0.34-0.74-0.74V1.706z"/>
	<path d="M67.059,1.551c0-0.308,0.246-0.585,0.586-0.585H80.41c0.34,0,0.586,0.277,0.586,0.585v3.362
		c0,0.309-0.246,0.585-0.586,0.585h-8.541v3.824H78.9c0.309,0,0.586,0.277,0.586,0.586v3.361c0,0.339-0.277,0.586-0.586,0.586
		h-7.031v4.163h8.541c0.34,0,0.586,0.278,0.586,0.586v3.362c0,0.309-0.246,0.586-0.586,0.586H67.645
		c-0.34,0-0.586-0.277-0.586-0.586V1.551z"/>
	<path d="M86.518,1.551c0-0.308,0.246-0.585,0.586-0.585h3.668c0.309,0,0.588,0.277,0.588,0.585v16.468h7.338
		c0.34,0,0.586,0.278,0.586,0.586v3.362c0,0.309-0.246,0.586-0.586,0.586H87.104c-0.34,0-0.586-0.277-0.586-0.586V1.551z"/>
	<path d="M0.487,38.844l4.344-9.339c0.042-0.084,0.139-0.153,0.236-0.153h0.139c0.097,0,0.194,0.069,0.236,0.153l4.343,9.339
		c0.083,0.18-0.028,0.36-0.235,0.36H8.009c-0.25,0-0.361-0.083-0.486-0.347l-0.5-1.096H3.249l-0.5,1.109
		c-0.069,0.167-0.222,0.333-0.5,0.333H0.724C0.515,39.204,0.404,39.023,0.487,38.844z M3.541,27.173
		c0-0.889,0.708-1.597,1.596-1.597c0.874,0,1.595,0.708,1.595,1.597c0,0.888-0.721,1.597-1.595,1.597
		C4.248,28.77,3.541,28.061,3.541,27.173z M6.191,35.874l-1.055-2.29H5.122l-1.04,2.29H6.191z M5.733,27.173
		c0-0.319-0.278-0.597-0.596-0.597c-0.319,0-0.611,0.277-0.611,0.597s0.292,0.61,0.611,0.61C5.455,27.783,5.733,27.492,5.733,27.173
		z"/>
	<path d="M12.297,31.53h-1.985c-0.153,0-0.264-0.125-0.264-0.264v-1.513c0-0.139,0.111-0.264,0.264-0.264h6.161
		c0.153,0,0.264,0.125,0.264,0.264v1.513c0,0.139-0.11,0.264-0.264,0.264h-1.984v7.41c0,0.139-0.125,0.264-0.264,0.264H12.56
		c-0.138,0-0.263-0.125-0.263-0.264V31.53z"/>
	<path d="M18.749,29.754c0-0.139,0.111-0.264,0.264-0.264h5.745c0.152,0,0.264,0.125,0.264,0.264v1.513
		c0,0.139-0.112,0.264-0.264,0.264h-3.844v1.721h3.164c0.139,0,0.264,0.125,0.264,0.264v1.513c0,0.152-0.125,0.264-0.264,0.264
		h-3.164v1.874h3.844c0.152,0,0.264,0.124,0.264,0.263v1.513c0,0.139-0.112,0.264-0.264,0.264h-5.745
		c-0.153,0-0.264-0.125-0.264-0.264V29.754z"/>
	<path d="M27.505,29.754c0-0.139,0.111-0.264,0.264-0.264h4.149c1.665,0,3.025,1.347,3.025,2.997c0,1.277-0.846,2.304-2.054,2.79
		l1.901,3.524c0.096,0.181,0,0.402-0.237,0.402h-1.845c-0.112,0-0.194-0.068-0.223-0.125l-1.845-3.677h-0.958v3.538
		c0,0.139-0.125,0.264-0.264,0.264h-1.651c-0.153,0-0.264-0.125-0.264-0.264V29.754z M31.738,33.64c0.568,0,1.054-0.527,1.054-1.11
		s-0.485-1.055-1.054-1.055h-2.055v2.165H31.738z"/>
	<path d="M36.178,29.852c-0.083-0.181,0.028-0.361,0.236-0.361h1.846c0.111,0,0.208,0.083,0.236,0.153l2.289,5.064h0.083l2.29-5.064
		c0.028-0.07,0.125-0.153,0.236-0.153h1.846c0.208,0,0.319,0.181,0.236,0.361l-4.358,9.339c-0.042,0.084-0.125,0.152-0.236,0.152
		h-0.139c-0.111,0-0.194-0.068-0.236-0.152L36.178,29.852z"/>
	<path d="M47.238,29.754c0-0.139,0.125-0.264,0.264-0.264h1.666c0.139,0,0.264,0.125,0.264,0.264v9.187
		c0,0.139-0.125,0.264-0.264,0.264h-1.666c-0.139,0-0.264-0.125-0.264-0.264V29.754z"/>
	<path d="M52.428,29.602c0-0.139,0.125-0.25,0.264-0.25h0.348l5.537,5.329h0.014v-4.927c0-0.139,0.111-0.264,0.264-0.264h1.666
		c0.137,0,0.264,0.125,0.264,0.264v9.34c0,0.139-0.127,0.249-0.264,0.249h-0.223c-0.043,0-0.152-0.041-0.182-0.068l-5.48-5.51
		h-0.014v5.176c0,0.139-0.111,0.264-0.264,0.264h-1.652c-0.139,0-0.264-0.125-0.264-0.264L52.428,29.602z"/>
	<path d="M63.779,29.602c0-0.139,0.125-0.25,0.264-0.25h0.348l5.537,5.329h0.014v-4.927c0-0.139,0.109-0.264,0.264-0.264h1.664
		c0.139,0,0.264,0.125,0.264,0.264v9.34c0,0.139-0.125,0.249-0.264,0.249h-0.221c-0.043,0-0.152-0.041-0.182-0.068l-5.48-5.51
		h-0.014v5.176c0,0.139-0.111,0.264-0.264,0.264h-1.652c-0.139,0-0.264-0.125-0.264-0.264L63.779,29.602z"/>
	<path d="M75.145,29.754c0-0.139,0.125-0.264,0.264-0.264h1.666c0.139,0,0.264,0.125,0.264,0.264v9.187
		c0,0.139-0.125,0.264-0.264,0.264h-1.666c-0.139,0-0.264-0.125-0.264-0.264V29.754z"/>
	<path d="M80.334,29.602c0-0.139,0.125-0.25,0.264-0.25h0.348l5.537,5.329h0.014v-4.927c0-0.139,0.111-0.264,0.264-0.264h1.666
		c0.139,0,0.264,0.125,0.264,0.264v9.34c0,0.139-0.125,0.249-0.264,0.249h-0.223c-0.041,0-0.152-0.041-0.182-0.068l-5.48-5.51
		h-0.014v5.176c0,0.139-0.111,0.264-0.264,0.264h-1.652c-0.139,0-0.264-0.125-0.264-0.264L80.334,29.602z"/>
	<path d="M95.988,29.366c1.164,0,2.441,0.485,3.385,1.304c0.125,0.097,0.141,0.264,0.029,0.375l-1.098,1.165
		c-0.109,0.098-0.264,0.098-0.375,0.014c-0.525-0.485-1.137-0.666-1.816-0.666c-1.514,0-2.734,1.277-2.734,2.804
		c0,1.513,1.234,2.761,2.748,2.761c0.402,0,0.818-0.055,1.234-0.221v-0.806h-0.873c-0.152,0-0.266-0.111-0.266-0.25v-1.373
		c0-0.153,0.113-0.264,0.266-0.264h2.789c0.139,0,0.25,0.125,0.25,0.264l0.014,3.732c0,0.069-0.057,0.181-0.111,0.223
		c0,0-1.43,0.902-3.441,0.902c-2.762,0-4.982-2.193-4.982-4.969C91.006,31.585,93.227,29.366,95.988,29.366z"/>
</g>
</svg>
